<svg width="440" height="354" viewBox="0 0 440 354" fill="none" xmlns="http://www.w3.org/2000/svg">
<g clip-path="url(#clip0_4565_16622)">
<path d="M441.207 177.674C441.207 248.281 343.669 320.191 238.24 320.191C132.811 320.191 31.7365 267.635 15.4155 183.541C1.16421 110.147 76.4523 27.4694 236.105 50.4205C340.543 65.414 441.207 107.068 441.207 177.674Z" fill="#E1F0F1"/>
<mask id="mask0_4565_16622" style="mask-type:alpha" maskUnits="userSpaceOnUse" x="13" y="46" width="429" height="275">
<path d="M441.207 177.674C441.207 248.281 343.669 320.191 238.24 320.191C132.811 320.191 31.7365 267.635 15.4155 183.541C1.16421 110.147 76.4523 27.4694 236.105 50.4205C340.543 65.414 441.207 107.068 441.207 177.674Z" fill="#E1F0F1"/>
</mask>
<g mask="url(#mask0_4565_16622)">
<path d="M357.317 243.843C357.317 243.843 349.232 221.498 342.138 216.373C336.295 212.125 329.051 209.315 327.564 210.956C326.076 212.597 326.874 221.611 330.323 223.656C333.773 225.702 357.317 243.843 357.317 243.843Z" fill="#B76639"/>
<path d="M339.594 293.656C338.559 293.769 337.632 292.982 337.524 291.903L324.912 170.156L328.663 169.729L341.254 291.476C341.362 292.577 340.629 293.544 339.594 293.656Z" fill="#111224"/>
<path d="M358.187 180.973C376.492 161.889 376.492 130.947 358.187 111.862C339.883 92.7775 310.205 92.7775 291.901 111.862C273.597 130.947 273.597 161.889 291.901 180.973C310.205 200.058 339.883 200.058 358.187 180.973Z" fill="#2C85B9"/>
<path d="M331.121 181.845L329.267 163.862L299.837 167.167L299.234 161.277L323.122 115.959L332.372 114.925L336.619 155.972L345.48 154.983L346.213 161.996L337.352 162.985L339.206 180.969L331.121 181.845ZM328.534 156.849L326.248 134.819C325.882 131.357 325.623 127.896 325.472 124.434L325.17 124.456C323.618 128.548 322.368 131.56 320.923 134.797L307.75 158.984L307.771 159.187L328.534 156.849Z" fill="white"/>
<path d="M359.343 250.361C359.343 250.361 353.285 224.421 335.606 216.418C333.902 215.654 332.372 215.227 330.97 215.069C330.97 215.069 321.484 213.451 321.872 220.487C321.872 220.487 318.077 221.453 319.651 227.748C319.651 227.748 317.021 229.883 319.069 235.413C319.069 235.413 316.352 238.582 322.583 247.192C327.822 255.06 339.724 264.973 339.724 264.973L351.237 323.621L378.015 319.282L359.343 250.361Z" fill="#F4A16D"/>
<path d="M321.893 220.487C322.928 220.375 324.006 220.509 325.02 220.712C326.055 220.914 327.068 221.251 328.038 221.656C329.008 222.105 329.957 222.577 330.819 223.184C331.272 223.454 331.682 223.814 332.091 224.129C332.501 224.466 332.889 224.848 333.256 225.207C332.781 224.96 332.35 224.668 331.897 224.398L331.229 224.016C331.121 223.949 331.013 223.881 330.884 223.814L330.539 223.634C330.302 223.522 330.086 223.387 329.849 223.252L329.159 222.915L328.814 222.735L328.469 222.577C328.232 222.465 327.995 222.353 327.758 222.263L327.046 221.971C326.809 221.881 326.572 221.791 326.335 221.701C326.098 221.611 325.86 221.521 325.602 221.431C325.365 221.341 325.106 221.274 324.869 221.184C323.92 220.914 322.928 220.667 321.893 220.487Z" fill="#B76639"/>
<path d="M319.673 227.725C320.708 227.905 321.699 228.197 322.669 228.534C323.165 228.714 323.64 228.916 324.114 229.119C324.351 229.209 324.588 229.344 324.826 229.456C325.063 229.568 325.3 229.681 325.537 229.793C326.464 230.288 327.37 230.827 328.211 231.457C329.051 232.086 329.849 232.805 330.539 233.615C329.677 233.008 328.814 232.446 327.952 231.906C327.736 231.771 327.499 231.659 327.283 231.524C327.068 231.389 326.852 231.254 326.615 231.142L325.947 230.76L325.257 230.4C324.804 230.153 324.351 229.928 323.877 229.703C323.424 229.456 322.95 229.254 322.497 229.029L319.673 227.725Z" fill="#B76639"/>
<path d="M319.112 235.413C319.974 235.863 320.794 236.357 321.591 236.897C322.001 237.166 322.389 237.436 322.777 237.706C323.165 237.998 323.553 238.29 323.942 238.56C324.696 239.144 325.451 239.774 326.162 240.426C326.874 241.078 327.564 241.775 328.167 242.561C327.391 241.999 326.615 241.415 325.86 240.853C325.106 240.268 324.33 239.706 323.575 239.122C322.82 238.538 322.066 237.931 321.333 237.324C320.535 236.717 319.802 236.087 319.112 235.413Z" fill="#B76639"/>
<path d="M120.112 252.327C120.112 252.327 117.244 227.735 110.992 221.531C105.839 216.406 99.0905 212.472 97.3872 213.843C95.684 215.214 95.145 224.273 98.2497 226.836C101.354 229.421 120.112 252.327 120.112 252.327Z" fill="#663821"/>
<path d="M88.526 298.184C87.4911 298.005 86.8012 296.993 86.9737 295.914L106.098 175.112L109.827 175.764L90.7251 296.588C90.5311 297.645 89.5609 298.364 88.526 298.184Z" fill="#111224"/>
<path d="M112.307 201.12C138.193 201.12 159.179 179.24 159.179 152.251C159.179 125.261 138.193 103.381 112.307 103.381C86.4203 103.381 65.4351 125.261 65.4351 152.251C65.4351 179.24 86.4203 201.12 112.307 201.12Z" fill="#2C85B9"/>
<path d="M109.073 188.105L111.897 170.256L82.6832 165.221L83.6103 159.376L118.258 122.376L127.442 123.949L120.996 164.681L129.792 166.187L128.693 173.134L119.896 171.627L117.072 189.476L109.073 188.105ZM112.975 163.31L116.425 141.438C116.964 137.999 117.611 134.604 118.344 131.21L118.042 131.165C115.498 134.672 113.514 137.212 111.294 139.954L92.3853 159.579L92.3637 159.781L112.975 163.31Z" fill="white"/>
<path d="M120.974 258.127C120.974 258.127 118.796 231.534 102.518 220.789C100.945 219.755 99.5001 219.081 98.1202 218.721C98.1202 218.721 88.9787 215.596 88.3319 222.632C88.3319 222.632 84.4511 222.992 85.0763 229.444C85.0548 229.444 82.1657 231.129 83.3731 236.929C83.3731 236.929 80.2253 239.627 85.0979 249.135C89.1296 257.767 99.4138 269.456 99.4138 269.456L102.152 329.251H129.253L120.974 258.127Z" fill="#663821"/>
<path d="M88.3535 222.632C89.41 222.7 90.4233 222.992 91.4151 223.352C92.4068 223.734 93.3555 224.206 94.261 224.768C95.145 225.352 96.0289 225.982 96.7836 226.724C97.1932 227.083 97.5382 227.488 97.9047 227.87C98.2496 228.275 98.5946 228.702 98.8965 229.129C98.4653 228.792 98.0987 228.432 97.6891 228.117L97.0854 227.623C96.9776 227.533 96.8914 227.443 96.7836 227.376L96.4817 227.128C96.2661 226.971 96.0721 226.814 95.8565 226.656L95.2097 226.207L94.8863 225.982L94.5629 225.757C94.3473 225.622 94.1317 225.465 93.916 225.33L93.2477 224.925C93.0321 224.79 92.7949 224.678 92.5793 224.543C92.3637 224.408 92.1266 224.296 91.8894 224.161C91.6522 224.049 91.4366 223.914 91.1995 223.801C90.2939 223.374 89.3453 222.97 88.3535 222.632Z" fill="#49210F"/>
<path d="M85.0979 229.444C86.0897 229.781 87.0383 230.23 87.9438 230.725C88.3966 230.972 88.8494 231.242 89.3021 231.534C89.5177 231.669 89.7333 231.826 89.9489 231.984C90.1645 232.141 90.3801 232.276 90.5957 232.433C91.4366 233.063 92.2343 233.76 92.9889 234.501C93.7435 235.266 94.4119 236.097 94.9725 236.997C94.1963 236.277 93.4417 235.558 92.6655 234.884C92.4715 234.704 92.2559 234.569 92.0618 234.389C91.8678 234.232 91.6738 234.052 91.4582 233.894L90.8545 233.422L90.2292 232.95C89.8196 232.636 89.4099 232.343 88.9787 232.051C88.5691 231.736 88.1379 231.467 87.7067 231.152L85.0979 229.444Z" fill="#49210F"/>
<path d="M83.3947 236.929C84.1708 237.491 84.9039 238.12 85.6154 238.795C85.9819 239.11 86.3268 239.469 86.6718 239.784C87.0168 240.121 87.3402 240.481 87.6851 240.818C88.3535 241.515 89.0003 242.257 89.604 243.021C90.2077 243.785 90.7898 244.572 91.2641 245.449C90.5742 244.752 89.9058 244.077 89.2375 243.381C88.5691 242.684 87.9007 242.009 87.2324 241.29C86.5856 240.593 85.9172 239.874 85.2704 239.155C84.6236 238.435 83.9983 237.693 83.3947 236.929Z" fill="#49210F"/>
<path d="M240.439 261.534C240.439 261.534 231.039 236.717 212.475 231.277C210.686 230.76 209.112 230.557 207.711 230.602C207.711 230.602 198.095 230.333 199.41 237.279C199.41 237.279 195.788 238.785 198.16 244.787C198.16 244.787 195.831 247.282 198.591 252.475C198.591 252.475 196.327 256.004 203.614 263.647C209.845 270.705 226.101 276.662 226.101 276.662L282.33 344.886L313.657 327.127L240.439 261.534Z" fill="#FEB67C"/>
<path d="M205.21 265.288C205.382 265.422 219.051 265.827 217.046 259.488C217.046 259.488 223.32 258.364 221.531 253.643C221.531 253.643 226.662 251.148 224.118 244.787C221.574 238.425 212.82 233.435 212.82 233.435C212.82 233.435 197.836 257.555 199.367 261.534C200.855 265.535 205.21 265.288 205.21 265.288Z" fill="#F4A16D"/>
<path d="M213.877 301.389C212.842 301.411 211.958 300.557 211.936 299.478L208.336 177.08L212.109 176.967L215.709 299.366C215.731 300.445 214.912 301.366 213.877 301.389Z" fill="#111224"/>
<path d="M210.19 202.279C236.077 202.279 257.062 180.399 257.062 153.409C257.062 126.42 236.077 104.54 210.19 104.54C184.303 104.54 163.318 126.42 163.318 153.409C163.318 180.399 184.303 202.279 210.19 202.279Z" fill="#2C85B9"/>
<path d="M229.034 151.206C230.543 170.831 224.398 182.272 212.131 183.306C201.307 184.228 193.158 174.27 191.519 155.185C190.01 135.808 197.211 124.479 208.444 123.535C220.129 122.523 227.611 132.819 229.034 151.206ZM199.022 154.623C200.186 169.639 205.274 177.799 212.087 177.215C219.763 176.563 222.695 166.942 221.552 152.195C220.453 137.989 216.227 128.952 208.487 129.604C201.933 130.144 197.815 138.888 199.022 154.623Z" fill="white"/>
<path d="M205.145 230.715C205.145 230.715 215.106 232.873 219.871 238.538C225.886 245.686 216.938 243.573 216.938 243.573C216.938 243.573 221.768 245.663 220.97 248.81C220.172 251.98 216.874 250.879 215.3 250.631C215.3 250.631 220.194 252.16 218.685 255.667C217.176 259.173 212.411 258.049 212.411 258.049C212.411 258.049 216.723 258.904 215.408 262.073C214.092 265.243 202.407 263.04 200.596 260.904C197.038 256.678 199.13 253.981 199.13 253.981C199.13 253.981 195.766 249.305 198.655 245.663C198.655 245.663 196.09 239.909 200.014 237.548C200.014 237.526 198.936 231.03 205.145 230.715Z" fill="#FEB67C"/>
<path d="M216.054 244.315C216.054 244.315 219.978 245.888 220.237 248.631C220.496 251.373 214.179 249.822 214.179 249.822C214.179 249.822 215.17 245.034 216.054 244.315Z" fill="#F4A16D"/>
<path d="M216.938 243.573C215.71 243.056 214.502 242.516 213.295 241.977C212.087 241.437 210.88 240.92 209.651 240.403L208.746 240.021L207.84 239.639C207.236 239.392 206.611 239.144 206.007 238.897C204.779 238.425 203.55 237.976 202.256 237.683C203.571 237.796 204.865 238.155 206.115 238.56C207.366 238.965 208.616 239.459 209.824 239.976C211.053 240.493 212.26 241.055 213.446 241.662C214.61 242.269 215.796 242.899 216.938 243.573Z" fill="#F4A16D"/>
<path d="M215.3 250.609C213.877 250.339 212.476 250.024 211.053 249.665C209.651 249.327 208.25 248.945 206.848 248.541C205.447 248.136 204.067 247.709 202.687 247.237C201.307 246.765 199.949 246.248 198.656 245.596L199.173 245.776C199.345 245.843 199.518 245.911 199.69 245.956C200.035 246.068 200.38 246.18 200.725 246.27C201.415 246.495 202.105 246.697 202.795 246.9L206.956 248.091L211.117 249.305C212.519 249.755 213.92 250.182 215.3 250.609Z" fill="#F4A16D"/>
<path d="M212.432 258.027C211.29 257.87 210.147 257.645 209.004 257.397C207.862 257.15 206.741 256.858 205.619 256.543C204.498 256.229 203.399 255.869 202.299 255.464L201.48 255.15L200.682 254.79C200.423 254.678 200.165 254.52 199.906 254.408C199.647 254.273 199.41 254.093 199.151 253.958L199.561 254.138C199.69 254.206 199.82 254.25 199.971 254.318C200.251 254.408 200.51 254.52 200.79 254.61L201.609 254.88L202.429 255.15C203.528 255.487 204.649 255.801 205.749 256.116L209.091 257.06C210.19 257.375 211.311 257.69 212.432 258.027Z" fill="#F4A16D"/>
<path d="M209.716 258.521C209.716 258.521 214.869 258.881 214.869 261.039C214.869 263.197 210.018 262.635 210.018 262.635C210.018 262.635 208.53 261.017 209.716 258.521Z" fill="#F4A16D"/>
<path d="M213.963 251.778C214.114 251.598 218.577 252.654 218.103 255.194C217.628 257.735 212.346 256.453 212.346 256.453C212.346 256.453 211.678 254.385 213.963 251.778Z" fill="#F4A16D"/>
<path d="M221.531 235.795C221.531 235.795 215.494 235.368 212.476 238.65C208.552 242.921 208.465 251.913 209.888 252.452C212.303 253.374 216.744 248.923 217.197 244.764C217.197 244.764 224.679 245.326 227.158 245.821C230.349 246.45 229.594 244.337 229.594 244.337L221.531 235.795Z" fill="#FEB67C"/>
<path d="M217.477 236.559C216.895 236.807 216.292 237.054 215.731 237.369C215.17 237.661 214.61 237.976 214.092 238.358C213.575 238.74 213.058 239.099 212.626 239.549C212.174 239.999 211.786 240.493 211.419 241.033C210.729 242.112 210.212 243.326 209.845 244.562C209.479 245.821 209.263 247.102 209.198 248.406C209.155 249.058 209.177 249.71 209.241 250.339C209.285 250.654 209.328 250.968 209.435 251.261C209.479 251.395 209.543 251.553 209.608 251.665C209.651 251.71 209.694 251.778 209.716 251.8C209.737 251.823 209.824 251.868 209.888 251.89C210.406 252.16 211.031 252.182 211.613 252.025C212.195 251.868 212.756 251.575 213.252 251.193C213.748 250.811 214.222 250.384 214.631 249.889C215.041 249.417 215.429 248.878 215.753 248.338C216.399 247.237 216.895 246.001 217.068 244.719L217.089 244.607H217.197C218.965 244.674 220.711 244.787 222.458 244.966C223.342 245.056 224.204 245.146 225.088 245.304C225.519 245.371 225.951 245.461 226.382 245.551C226.813 245.641 227.244 245.753 227.654 245.933C226.813 245.641 225.951 245.528 225.067 245.394C224.204 245.281 223.32 245.191 222.436 245.146C221.552 245.079 220.69 245.034 219.806 244.989C218.922 244.944 218.06 244.922 217.176 244.899L217.305 244.787C217.154 246.135 216.68 247.417 216.033 248.563C215.365 249.71 214.524 250.766 213.467 251.553C212.928 251.957 212.346 252.272 211.699 252.452C211.052 252.632 210.319 252.609 209.716 252.295C209.63 252.25 209.565 252.227 209.479 252.137C209.392 252.07 209.328 251.98 209.285 251.912C209.177 251.755 209.112 251.575 209.047 251.418C208.94 251.081 208.875 250.744 208.832 250.406C208.746 249.732 208.746 249.058 208.767 248.383C208.832 247.035 209.069 245.708 209.457 244.427C209.845 243.146 210.363 241.909 211.096 240.785C211.462 240.223 211.872 239.706 212.346 239.257C212.82 238.785 213.359 238.403 213.898 238.065C214.459 237.728 215.02 237.436 215.623 237.166C216.248 236.941 216.852 236.717 217.477 236.559Z" fill="#F4A16D"/>
<path d="M210.729 244.517C210.729 244.517 214.567 245.663 214.718 246.473C214.869 247.282 212.842 251.013 211.419 251.126C209.974 251.261 209.435 248.136 210.729 244.517Z" fill="#F4A16D"/>
</g>
<path d="M123.734 63.0313C129.9 62.8964 135.268 69.6401 134.018 75.9343C135.872 74.0685 138.783 73.4166 141.219 74.3158C143.655 75.2149 145.51 77.6427 145.833 80.3177C150.856 78.0698 157.217 79.6433 160.731 84.0267C161.658 85.1731 162.413 86.8141 161.744 88.1629C161.162 89.3093 159.804 89.6914 158.597 89.9162C153.422 90.9053 148.14 90.9952 142.879 91.0851C132.401 91.265 121.944 91.4448 111.466 91.6246C102.432 91.782 93.377 91.9393 84.3649 91.1526C80.6996 90.8379 76.9482 90.3208 73.7573 88.4326C73.0242 88.0055 72.2696 87.4211 72.1187 86.5444C71.9031 85.4204 72.7655 84.4089 73.6495 83.757C77.8537 80.6773 83.4809 81.2168 88.5691 81.8912C88.6985 79.3061 90.9838 77.1931 93.4417 76.766C95.8996 76.3389 98.4221 77.2605 100.535 78.6317C99.8882 75.6196 102.734 72.6748 105.688 72.5624C107.607 72.4725 109.353 73.3042 110.862 74.4506C112.264 75.5072 113.579 75.17 113.816 73.2593C114.247 69.8874 115.929 66.8302 118.646 64.8746C120.112 63.7506 121.901 63.0762 123.734 63.0313Z" fill="white"/>
<path d="M183.65 226.971C185.568 226.858 187.53 226.701 189.277 225.847C191.023 224.993 192.489 223.284 192.554 221.284C192.619 218.586 190.053 216.451 187.487 216.158C184.922 215.844 182.377 216.878 179.984 217.867C180.545 215.866 179.51 213.641 177.936 212.359C176.362 211.078 174.336 210.539 172.352 210.179C170.368 209.819 168.299 209.595 166.358 210.179C164.418 210.763 162.65 212.337 162.305 214.428C160.58 212.449 157.691 211.685 155.255 212.539C152.818 213.394 150.964 215.821 150.727 218.474C149.024 217.35 147.084 216.383 145.078 216.608C143.073 216.833 141.133 218.676 141.413 220.744C141.262 219.733 137.748 220.789 137.317 221.036C136.131 221.666 134.708 223.015 134.6 224.498C134.385 227.645 142.06 226.858 144.087 226.971C152.538 227.488 161.011 227.668 169.463 227.51C174.185 227.465 178.928 227.263 183.65 226.971Z" fill="white"/>
<path d="M282.956 102.077C284.163 101.987 285.435 101.875 286.427 101.156C287.419 100.436 287.936 98.8628 287.181 97.8737C286.19 96.5699 284.228 97.2893 282.675 96.9746C283.107 93.6701 280.692 90.2533 277.522 89.7138C274.375 89.1743 271.033 91.6246 270.451 94.9065C269.308 93.4004 267.174 92.8609 265.492 93.6477C263.81 94.4344 262.775 96.4576 263.077 98.3458C261.309 97.2668 259.239 96.8397 257.213 96.7723C255.402 96.7273 253.526 96.9746 251.995 97.9861C250.939 98.7055 248.632 101.605 250.292 102.774C251.068 103.336 252.987 102.954 253.914 102.976C255.229 102.976 256.566 102.999 257.881 102.976C263.25 102.954 268.64 102.819 274.008 102.572C276.983 102.459 279.98 102.302 282.956 102.077Z" fill="white"/>
<path d="M303.524 255.767C288.259 255.901 272.973 256.014 257.709 256.149C255.531 256.171 252.319 254.8 252.75 252.575C253.181 250.349 256.372 249.427 257.838 251.113C258.312 248.821 260.274 246.955 262.495 246.64C264.716 246.325 267.087 247.584 268.122 249.652C266.98 246.303 268.575 242.302 271.486 240.413C274.396 238.548 278.277 238.705 281.252 240.458C284.228 242.212 286.298 245.359 287.246 248.798C288.367 247.629 290.243 247.292 291.666 248.034C293.089 248.776 293.973 250.529 293.736 252.17C295.159 250.889 297.272 250.484 299.018 251.181C300.764 251.878 303.287 253.833 303.524 255.767Z" fill="white"/>
<path d="M74.9431 180.664C76.4308 180.484 77.9615 180.259 79.2336 179.428C80.5056 178.596 81.3896 176.955 80.9584 175.471C80.2685 173.111 77.2069 172.886 74.8569 173.111C76.7757 170.841 75.7193 166.795 73.1105 165.468C70.5017 164.142 67.0952 165.423 65.4782 167.941C66.3622 162.276 61.4896 156.409 55.9702 156.522C50.4508 156.634 45.8153 162.681 46.8933 168.323C45.1685 165.985 41.5464 165.873 39.261 167.626C36.9972 169.38 36.0054 172.527 36.1132 175.471C34.1728 174.55 32.1677 173.583 30.0333 173.561C25.8937 173.516 22.2716 179.63 27.8341 180.732C38.3771 182.822 49.1787 182.283 59.851 181.878C64.8961 181.676 69.9196 181.271 74.9431 180.664Z" fill="white"/>
<path d="M413.136 171.672C411.842 169.02 406.905 172.841 405.59 174.819C405.417 168.997 401.601 163.962 396.039 164.434C390.476 164.906 385.927 170.818 386.66 176.595C384.267 176.078 381.874 178.978 382.715 181.383C378.812 179.855 374.436 179.742 370.468 181.069C369.175 181.496 367.838 182.148 367.083 183.339C366.329 184.53 366.372 186.374 367.515 187.16C368.851 188.105 371.223 187.79 372.775 187.88C374.069 187.947 375.363 188.037 376.678 188.06C379.89 188.127 383.103 188.105 386.315 188.037C394.185 187.88 402.054 187.318 409.859 186.351C411.002 186.216 412.123 186.059 413.244 185.902C413.265 185.902 414.106 173.628 413.136 171.672Z" fill="white"/>
<path d="M417.534 181.339C417.577 187.026 417.189 192.713 416.37 198.333C416.154 199.726 415.939 201.143 415.659 202.536C415.529 203.233 415.4 203.93 415.249 204.627L414.796 206.717L414.559 207.751L414.3 208.785L413.783 210.853C413.61 211.528 413.395 212.225 413.222 212.899C413.028 213.573 412.856 214.27 412.619 214.945L411.993 216.968L411.842 217.485L411.67 217.979L411.325 218.991C411.088 219.665 410.872 220.34 410.635 220.992L409.88 222.992L409.514 223.981L409.104 224.97L408.307 226.948C408.026 227.6 407.746 228.252 407.466 228.904C407.185 229.556 406.905 230.208 406.603 230.837C404.232 235.963 401.537 240.953 398.561 245.718C395.564 250.484 392.287 255.07 388.773 259.431L388.126 260.262L387.458 261.072L386.1 262.69C385.194 263.747 384.245 264.803 383.34 265.837L381.917 267.388C381.443 267.905 380.968 268.422 380.472 268.917L379.006 270.423L378.273 271.165L377.519 271.907C369.584 279.774 360.831 286.72 351.539 292.767C342.246 298.814 332.415 303.917 322.217 308.12C312.04 312.324 301.519 315.606 290.804 318.034C285.457 319.247 280.067 320.236 274.633 321.023C273.275 321.203 271.917 321.405 270.559 321.585L266.484 322.057L262.387 322.439C261.697 322.507 261.029 322.552 260.339 322.597L258.291 322.754C252.836 323.136 247.36 323.316 241.884 323.316C236.429 323.316 230.953 323.159 225.498 322.889C220.043 322.597 214.588 322.17 209.155 321.585C203.722 321.001 198.289 320.304 192.899 319.45C187.487 318.596 182.119 317.584 176.75 316.46C171.403 315.314 166.056 314.055 160.774 312.594C150.21 309.694 139.775 306.232 129.577 302.118C124.488 300.05 119.443 297.847 114.484 295.442C109.526 293.059 104.632 290.497 99.8451 287.754C90.2509 282.269 81.0231 276.11 72.3775 269.119C63.7319 262.128 55.6684 254.373 48.4673 245.763C41.3093 237.154 35.0353 227.713 30.0764 217.575C27.597 212.494 25.441 207.257 23.6731 201.884C21.9051 196.512 20.4822 191.004 19.4473 185.43C20.59 190.982 22.1207 196.444 23.9965 201.749C25.8722 207.077 28.0929 212.247 30.6586 217.26C35.7468 227.263 42.0854 236.547 49.3297 244.977C56.5523 253.406 64.6589 261.027 73.3046 267.838C81.9502 274.649 91.1564 280.718 100.708 286.046C105.494 288.721 110.366 291.216 115.304 293.554C120.241 295.892 125.243 298.072 130.31 300.095C140.443 304.119 150.813 307.513 161.335 310.323C171.856 313.133 182.485 315.381 193.222 317.067C203.959 318.73 214.761 319.877 225.606 320.416C231.017 320.709 236.45 320.866 241.884 320.866C247.295 320.866 252.728 320.686 258.14 320.326L260.167 320.169C260.835 320.124 261.525 320.079 262.193 320.012L266.247 319.63L270.278 319.157C271.615 319 272.973 318.798 274.31 318.618C279.679 317.854 285.025 316.865 290.308 315.696C300.894 313.358 311.329 310.166 321.419 306.052C326.464 304.007 331.423 301.736 336.296 299.241C341.147 296.746 345.911 294.026 350.525 291.081C359.775 285.192 368.463 278.358 376.397 270.67C384.353 263.005 391.468 254.373 397.526 244.999C400.545 240.301 403.283 235.423 405.719 230.365C406.043 229.736 406.323 229.084 406.603 228.455C406.884 227.825 407.185 227.173 407.466 226.544L408.285 224.611L408.695 223.644L409.083 222.655L409.859 220.699C410.118 220.047 410.333 219.373 410.592 218.721L410.958 217.732L411.131 217.238L411.303 216.743L411.972 214.742C412.209 214.068 412.403 213.394 412.597 212.719C412.791 212.045 413.007 211.37 413.201 210.696L413.74 208.651L414.02 207.639L414.257 206.605L414.753 204.537C414.904 203.84 415.033 203.143 415.184 202.469C415.486 201.098 415.702 199.681 415.96 198.288C416.952 192.668 417.448 187.003 417.534 181.339Z" fill="#BCBEC0"/>
<path d="M239.598 50.4205C259.11 52.7134 278.514 56.355 297.53 61.66C307.038 64.2901 316.439 67.4147 325.666 71.0113C334.894 74.6305 343.928 78.7891 352.681 83.5771C361.392 88.4101 369.8 93.895 377.605 100.257C381.486 103.449 385.237 106.843 388.751 110.462C392.287 114.059 395.586 117.948 398.604 122.039C400.135 124.084 401.537 126.197 402.916 128.355C403.261 128.895 403.585 129.457 403.908 129.996C404.232 130.536 404.577 131.075 404.878 131.637C405.504 132.761 406.15 133.863 406.711 135.009C409.061 139.55 411.088 144.271 412.64 149.171L413.222 151.014C413.395 151.621 413.567 152.251 413.74 152.858C414.106 154.094 414.386 155.353 414.688 156.589C414.839 157.218 414.969 157.848 415.098 158.477L415.486 160.366L415.809 162.254L415.96 163.198C416.003 163.513 416.047 163.827 416.09 164.142L416.348 166.053L416.413 166.525L416.456 166.997L416.542 167.963C416.607 168.593 416.672 169.245 416.715 169.874L416.844 171.785L416.909 172.751C416.931 173.066 416.931 173.403 416.931 173.718L416.974 175.629C416.995 176.258 416.974 176.91 416.974 177.54L416.952 179.45L416.866 177.54C416.844 176.91 416.823 176.258 416.78 175.629L416.65 173.718C416.629 173.403 416.607 173.089 416.586 172.774L416.478 171.83L416.284 169.919C416.219 169.29 416.111 168.66 416.025 168.031L415.896 167.087L415.831 166.615L415.745 166.143L415.421 164.254C414.537 159.242 413.222 154.319 411.541 149.553C409.88 144.765 407.767 140.179 405.353 135.773C404.771 134.672 404.102 133.593 403.477 132.514C403.175 131.974 402.809 131.457 402.485 130.918C402.14 130.378 401.817 129.861 401.472 129.322C400.092 127.231 398.669 125.186 397.138 123.208C396.75 122.713 396.384 122.219 395.996 121.724L394.81 120.285L394.228 119.566C394.034 119.319 393.818 119.094 393.624 118.847L392.395 117.431C391.576 116.486 390.735 115.587 389.894 114.666C389.032 113.766 388.191 112.867 387.307 111.991C383.793 108.484 380.084 105.179 376.225 102.1C368.506 95.8956 360.206 90.5007 351.582 85.7576C342.958 80.9695 334.01 76.8559 324.89 73.1918C320.341 71.3485 315.727 69.6401 311.092 68.0216L307.599 66.8527C306.435 66.4481 305.27 66.0884 304.106 65.7063C302.942 65.3241 301.756 64.9645 300.592 64.5823L298.824 64.0428L297.056 63.5258C278.212 57.8836 258.981 53.725 239.598 50.4205Z" fill="#BCBEC0"/>
<path d="M18.9298 183.541L18.4555 181.181C18.3908 180.776 18.3045 180.394 18.2399 179.99L18.0458 178.798C17.9165 178.012 17.7871 177.202 17.6793 176.416L17.4206 173.988C17.3128 173.179 17.2697 172.369 17.205 171.583L17.1187 170.369L17.0756 169.762C17.054 169.559 17.054 169.357 17.054 169.155L16.9678 166.727C16.9462 166.322 16.9462 165.918 16.9462 165.513V164.299C16.9247 162.681 17.0109 161.062 17.0756 159.444C17.1187 158.635 17.205 157.825 17.2481 157.016L17.3343 155.802L17.4637 154.588L17.744 152.183L18.1105 149.778C18.1752 149.373 18.2183 148.969 18.3045 148.586L18.5417 147.395C18.6926 146.608 18.8435 145.799 19.016 145.012C19.3825 143.439 19.7275 141.843 20.1803 140.292L20.5037 139.123C20.6115 138.741 20.7193 138.336 20.8486 137.954L21.5601 135.639L21.7326 135.054C21.7973 134.852 21.862 134.672 21.9266 134.492L22.3363 133.346L22.7459 132.199L22.94 131.637L23.1556 131.075L24.0395 128.827L24.2551 128.265L24.4923 127.703L24.9666 126.602L25.441 125.501L25.6781 124.939L25.9368 124.399L26.9933 122.219C27.3383 121.477 27.7263 120.78 28.0929 120.061L28.6534 118.982C28.8475 118.622 29.0199 118.262 29.2355 117.925C30.0333 116.531 30.8094 115.115 31.6718 113.766C32.103 113.092 32.5127 112.395 32.9439 111.721L34.2806 109.72L34.949 108.709L35.6389 107.742L37.0403 105.786C37.5147 105.135 38.0105 104.528 38.5064 103.876L39.2395 102.932L39.606 102.46L39.9941 101.987L41.5248 100.144C41.7836 99.8295 42.0207 99.5148 42.301 99.2225L43.0987 98.3234L44.6942 96.5475C45.2332 95.9631 45.7938 95.4011 46.3328 94.8166C50.731 90.2084 55.4743 85.9374 60.4762 82.071C70.5017 74.3158 81.4974 68.0441 92.9674 62.9863C98.7024 60.4911 104.588 58.2882 110.517 56.4L112.76 55.7031L113.881 55.3659L114.441 55.1861L115.002 55.0287L119.508 53.7474L124.036 52.5785C124.79 52.3762 125.545 52.2189 126.299 52.039L128.585 51.522C134.665 50.1733 140.788 49.0943 146.954 48.2176L151.568 47.6331L152.732 47.4758L153.896 47.3634L156.203 47.1161L158.51 46.8688L160.839 46.689L163.167 46.5092C163.943 46.4417 164.72 46.3743 165.496 46.3518L170.131 46.0821C170.907 46.0371 171.684 46.0146 172.46 45.9922L174.788 45.9022L177.117 45.8123L179.445 45.7674C180.998 45.7449 182.55 45.7224 184.102 45.7224C187.207 45.7674 190.312 45.7449 193.395 45.8798L195.723 45.9472L196.887 45.9922L198.052 46.0596L202.687 46.2844C208.875 46.6665 215.041 47.1611 221.207 47.8804L223.514 48.1501C224.29 48.2401 225.045 48.33 225.821 48.4199L230.435 49.0268C231.966 49.2291 233.497 49.4764 235.027 49.7012L239.62 50.4205L235.006 49.9035C233.475 49.7237 231.923 49.5439 230.392 49.409L225.778 48.9594C225.002 48.8695 224.247 48.8245 223.471 48.7571L221.164 48.5773L218.857 48.3974L217.693 48.3075L216.529 48.2401L211.893 47.9478L210.729 47.8804L209.565 47.8354L207.258 47.723L204.951 47.6107L203.787 47.5657L202.622 47.5432L197.987 47.4083L196.823 47.3859H195.659L193.352 47.3634C190.268 47.3184 187.185 47.3859 184.102 47.4083C177.936 47.5657 171.77 47.813 165.625 48.33C164.849 48.3749 164.094 48.4649 163.318 48.5323L161.011 48.7571L158.704 48.9819L156.397 49.2516L154.09 49.5214L152.948 49.6562L151.805 49.8136L147.234 50.443C141.133 51.3647 135.074 52.5111 129.059 53.8823L126.817 54.4218C126.062 54.6016 125.308 54.759 124.575 54.9613L120.09 56.1302L115.649 57.4115L115.088 57.5689L114.528 57.7487L113.428 58.0859L111.229 58.7827C105.365 60.6935 99.5648 62.8739 93.9161 65.3466C82.5754 70.2695 71.7306 76.4513 61.8345 84.0267C56.8757 87.7807 52.1756 91.9393 47.8204 96.4126C47.2814 96.9746 46.7208 97.5366 46.1818 98.0986L44.6079 99.8295C43.5299 100.976 42.5597 102.19 41.5248 103.381L41.1368 103.831L40.7702 104.28L40.0372 105.202C39.5413 105.809 39.0454 106.416 38.5711 107.045L37.1697 108.933L36.4582 109.878L35.7898 110.844L34.4531 112.8C34.0219 113.452 33.5907 114.126 33.1811 114.801C32.3186 116.127 31.5425 117.498 30.7232 118.847C29.1709 121.612 27.6832 124.399 26.3896 127.299L25.8722 128.355L25.6134 128.895L25.3763 129.434L24.4492 131.637L24.212 132.177L23.9964 132.739L23.5868 133.863L23.1771 134.987C23.1125 135.167 23.0262 135.369 22.9615 135.549L22.7675 136.111L22.0129 138.381C21.8835 138.763 21.7757 139.145 21.6679 139.527L21.323 140.674C20.8486 142.202 20.4821 143.754 20.094 145.305C19.9 146.069 19.7491 146.856 19.5766 147.642L19.3179 148.811C19.2316 149.193 19.1669 149.598 19.1023 149.98L18.6711 152.34L18.3261 154.723L18.1536 155.915L18.0243 157.106C17.938 157.893 17.8518 158.702 17.7871 159.489C17.7009 161.085 17.5499 162.681 17.5284 164.299L17.4853 165.513C17.4637 165.918 17.4637 166.322 17.4637 166.727L17.4853 169.132C17.4853 169.335 17.4853 169.537 17.4853 169.739L17.5068 170.346L17.5715 171.56C17.6146 172.369 17.6362 173.179 17.7009 173.965L17.8949 176.371C17.9596 177.18 18.0674 177.967 18.1752 178.776L18.3261 179.967C18.3692 180.372 18.4555 180.754 18.4986 181.159L18.9298 183.541Z" fill="#BCBEC0"/>
</g>
<defs>
<clipPath id="clip0_4565_16622">
<rect width="440" height="354" fill="white"/>
</clipPath>
</defs>
</svg>
