<?xml version="1.0" encoding="utf-8"?>
<!-- Generator: Adobe Illustrator 24.0.2, SVG Export Plug-In . SVG Version: 6.00 Build 0)  -->
<svg version="1.1" id="Layer_1" xmlns="http://www.w3.org/2000/svg" xmlns:xlink="http://www.w3.org/1999/xlink" x="0px" y="0px"
	 viewBox="0 0 416 407" style="enable-background:new 0 0 416 407;" xml:space="preserve">
<style type="text/css">
	.st0{fill:#787878;}
</style>
<g>
	<path class="st0" d="M26.1,392.5c-5.3-2.7-6.9-7-6.8-12.8c0.3-20.6,0.2-41.2,0-61.8c0-4.6,1.4-8.1,4.7-11.3
		c39.9-39.9,79.7-79.8,119.6-119.7c1.7-1.7,2.3-3,1.4-5.4C119.4,107.5,163,29,239.5,11.6c5.9-1.3,12-2.1,18-3.1c6.5,0,13,0,19.5,0
		c7,1.2,14,2.1,20.9,3.8c51.2,12.2,90.3,55.5,97.6,107.9c9.4,68.2-35.5,131.9-102.6,145.4c-23.1,4.6-45.9,3.2-68.1-4.8
		c-2.6-0.9-4.2-0.5-6.1,1.5c-8.6,8.9-17.4,17.5-26.1,26.3c-2.7,2.8-5.8,4.1-9.7,4c-6.1-0.1-12.1,0-18.6,0c0,6.4,0,12.4,0,18.4
		c0,8-3.3,11.3-11.4,11.4c-2.2,0-4.4,0-7.3,0c0,3,0.1,5.7,0,8.4c-0.2,6.7-3.6,10.1-10.2,10.2c-7.2,0.1-14.4,0-22.2,0
		c0,6-0.4,11.7,0.1,17.3c0.6,7-1.6,12.3-6.9,16.8c-4.5,3.8-8.3,8.3-12.5,12.3c-2.1,1.9-4.5,3.4-6.8,5.1
		C66.6,392.5,46.4,392.5,26.1,392.5z M38.3,334.9c0.5,0.5,1,0.9,1.5,1.4c0.7-1.3,1.2-2.8,2.2-3.9c32.3-32.5,64.7-64.9,97.1-97.3
		c1.1-1.1,2.1-2.2,3.3-3.1c3.3-2.6,7.9-2.4,11,0.4c3.2,2.9,3.6,7.7,1,11.2c-1,1.3-2.1,2.4-3.3,3.6c-36.7,36.8-73.4,73.5-110.1,110.3
		c-1,1-2.6,2.2-2.7,3.4c-0.3,4.2-0.1,8.4-0.1,12.8c9.3,0,18,0,26.7,0c5.2,0,11.1,1.3,15.5-0.6c4.6-2,7.9-7,11.6-10.9
		c1.1-1.2,1.9-3.2,1.9-4.9c0.2-7.7,0.1-15.5,0.1-23.2c0-8.7,3.3-11.9,12-11.9c6.7,0,13.4,0,20.1,0c1-5.6-1.3-11.4,3.1-15.8
		c4.5-4.6,10.4-2.2,15.9-3.3c0-6.1,0-12,0-18c0-7.9,3.5-11.4,11.5-11.4c6.7,0,13.5-0.1,20.2,0c2.6,0.1,4.4-0.7,6.2-2.5
		c8.8-9,18-17.7,26.6-26.9c4.8-5.1,9.6-5.9,16-3.2c17.5,7.4,35.8,9.6,54.6,7.4c61.3-7.3,105.1-64.4,96.3-125.6
		c-9.2-63.5-69.6-106.2-132-93.1C177,43.9,138.7,116,164.7,180.2c3,7.4,2.5,9.6-3.1,15.3c-37.8,37.9-75.5,76.1-113.7,113.5
		c-7.5,7.3-11.3,14.5-9.7,24.7C38.3,334.2,38.3,334.5,38.3,334.9z"/>
	<path class="st0" d="M271.2,98.4c0.4-19.7,16.5-35.4,35.9-35c19.5,0.4,35.2,16.7,34.8,36.2c-0.5,19.4-16.9,35.2-36,34.6
		C286.4,133.6,270.8,117.6,271.2,98.4z M306.7,115.2c9.1-0.1,16.4-7.5,16.4-16.5c0-9-7.5-16.4-16.5-16.5c-9.2,0-16.6,7.5-16.4,16.8
		C290.3,108.2,297.6,115.3,306.7,115.2z"/>
</g>
</svg>
