<?xml version="1.0" encoding="utf-8"?>
<!-- Generator: Adobe Illustrator 24.0.2, SVG Export Plug-In . SVG Version: 6.00 Build 0)  -->
<svg version="1.1" id="Layer_1" xmlns="http://www.w3.org/2000/svg" xmlns:xlink="http://www.w3.org/1999/xlink" x="0px" y="0px"
	 viewBox="0 0 416 407" style="enable-background:new 0 0 416 407;" xml:space="preserve">
<style type="text/css">
	.st0{fill:#787878;}
</style>
<g>
	<path class="st0" d="M395,104.5c-1.9,12-9.8,20-18,28c-75.6,74.9-151,150-226.6,225c-2.3,2.2-5.4,4.1-8.5,4.9
		c-38.6,11.2-77.3,22.2-115.9,33.3c-1,0.3-2,0.8-3,1.3c-1.7,0-3.5,0-5.2,0c-6.3-4.6-6.9-6.5-4.8-14.2
		c11.1-38.9,22.1-77.8,33.3-116.6c0.9-3,2.6-6,4.8-8.2c76.5-77.5,153-154.9,229.5-232.5c6.4-6.5,13.7-10.6,22.4-12.6
		c3.2,0,6.5,0,9.7,0c11,1.8,18.9,8.6,26.4,16.3c12.9,13.4,26,26.5,39.3,39.4c7.8,7.6,14.7,15.5,16.6,26.7
		C395,98.5,395,101.5,395,104.5z M109.7,285.7c55.8-55.9,111.4-111.6,166.8-167.1c-10.3-10.4-20.8-20.9-31.6-31.7
		C189,143.3,132.9,200,76.2,257.4c4.6,0,8,0.2,11.3-0.1c5.8-0.5,9.3,2,11.7,7.2C102.5,271.8,106.3,278.8,109.7,285.7z M151.1,332.5
		c57.4-57,114-113.2,170-168.9c-10.8-10.9-21.3-21.4-31.5-31.6C234.3,187.4,178.7,243.1,123,298.9c7.3,3.7,14.8,7.5,22.4,11.2
		c3.9,1.9,5.8,4.9,5.7,9.3C151,323.4,151.1,327.4,151.1,332.5z M257.8,72.9c26.2,26.3,51.5,51.7,77.3,77.6
		c12.6-12.8,25.6-25.7,38.3-39c6.3-6.6,5.8-16.7-0.8-23.4c-17.3-17.5-34.6-34.9-52.1-52.2c-7.4-7.3-18-7-25.4,0.4
		c-5,4.9-9.8,10-14.8,14.9C272.6,58.5,265,65.9,257.8,72.9z M62.2,274.8c-0.3,0.7-0.6,1.1-0.7,1.6c-3.6,12.7-7.3,25.4-10.7,38.1
		c-0.3,1.2,0.4,3.1,1.3,4c10,10.2,20.2,20.4,30.4,30.5c3.2,3.2,6,8,9.7,8.9c3.9,1,8.8-1.8,13.2-3c9.4-2.7,18.9-5.4,28.4-8.2
		c0-6.7-0.2-13.2,0.1-19.7c0.1-2.6-0.9-3.7-3.1-4.8c-8.5-4.1-17-8.2-25.3-12.8c-2.5-1.4-5-3.8-6.4-6.4c-4.6-8.4-8.6-17.1-13-25.7
		c-0.6-1.1-1.9-2.5-3-2.6C76.1,274.7,69.1,274.8,62.2,274.8z M33.1,375.6c13.6-3.9,26.3-7.6,38.4-11c-9.2-9.2-18.3-18.4-27.4-27.5
		C40.6,349.3,37,362.1,33.1,375.6z"/>
</g>
</svg>
