<svg xmlns="http://www.w3.org/2000/svg" width="22" height="16" fill="none" viewBox="0 0 22 16">
  <path fill="#fff" d="M10.949 10.54c-3.45 0-6.361.564-6.361 2.74S7.518 16 10.948 16c3.45 0 6.362-.564 6.362-2.74s-2.93-2.72-6.361-2.72"/>
  <path fill="#D5F6FF" d="M10.949 8.467a4.207 4.207 0 004.21-4.233A4.206 4.206 0 0010.948 0a4.206 4.206 0 00-4.21 4.234 4.207 4.207 0 004.21 4.233M20.088 5.22C20.692 2.841 18.92.706 16.664.706c-.245 0-.48.027-.71.072-.03.008-.064.023-.082.05-.02.034-.005.08.018.11a5.807 5.807 0 011.067 3.37 5.762 5.762 0 01-.984 3.242.158.158 0 00.106.244c.158.028.32.042.484.047 1.643.043 3.118-1.02 3.525-2.623" opacity=".4"/>
  <path fill="#fff" d="M21.81 10.817c-.301-.645-1.028-1.087-2.132-1.304-.52-.128-1.931-.308-3.243-.284-.02.003-.03.016-.032.025-.003.013.003.035.029.048.606.302 2.95 1.614 2.655 4.381-.013.12.083.224.202.206.576-.083 2.06-.404 2.52-1.402a1.922 1.922 0 000-1.67"/>
  <path fill="#D5F6FF" d="M6.045.78a3.514 3.514 0 00-.71-.073C3.08.707 1.307 2.842 1.912 5.22c.407 1.602 1.882 2.665 3.525 2.622.164-.004.326-.02.483-.047a.158.158 0 00.107-.244 5.764 5.764 0 01-.984-3.24c0-1.252.39-2.416 1.068-3.372.021-.03.037-.075.016-.11C6.109.803 6.076.788 6.045.78" opacity=".4"/>
  <path fill="#fff" d="M2.322 9.513c-1.104.217-1.83.659-2.13 1.304a1.918 1.918 0 000 1.67c.46.998 1.943 1.32 2.52 1.402.119.018.214-.085.201-.206-.294-2.766 2.05-4.078 2.656-4.38.025-.015.03-.035.028-.049-.002-.009-.012-.022-.031-.024-1.313-.025-2.722.155-3.244.283"/>
</svg>
