<svg viewBox="0 0 24 24">
    <path
        d="M20.4108 13.0771C20.4579 12.7333 20.4815 12.3781 20.4815 12C20.4815 11.6333 20.4579 11.2667 20.399 10.9229L22.7903 9.1125C23.0024 8.95208 23.0613 8.64271 22.9317 8.41354L20.67 4.60937C20.5286 4.35729 20.2341 4.27708 19.9749 4.35729L17.1596 5.45729C16.5706 5.02187 15.9462 4.65521 15.2512 4.38021L14.8272 1.46979C14.78 1.19479 14.5444 1 14.2617 1H9.73827C9.45556 1 9.23174 1.19479 9.18462 1.46979L8.76055 4.38021C8.06554 4.65521 7.42943 5.03333 6.85222 5.45729L4.03684 4.35729C3.77768 4.26562 3.48319 4.35729 3.34183 4.60937L1.09188 8.41354C0.950525 8.65417 0.997644 8.95208 1.23324 9.1125L3.62455 10.9229C3.56565 11.2667 3.51853 11.6448 3.51853 12C3.51853 12.3552 3.54209 12.7333 3.60099 13.0771L1.20968 14.8875C0.997644 15.0479 0.938745 15.3573 1.06832 15.5865L3.33005 19.3906C3.47141 19.6427 3.7659 19.7229 4.02506 19.6427L6.84044 18.5427C7.42943 18.9781 8.05376 19.3448 8.74877 19.6198L9.17284 22.5302C9.23174 22.8052 9.45556 23 9.73827 23H14.2617C14.5444 23 14.78 22.8052 14.8154 22.5302L15.2395 19.6198C15.9345 19.3448 16.5706 18.9781 17.1478 18.5427L19.9632 19.6427C20.2223 19.7344 20.5168 19.6427 20.6582 19.3906L22.9199 15.5865C23.0613 15.3344 23.0024 15.0479 22.7785 14.8875L20.4108 13.0771ZM12 16.125C9.6676 16.125 7.75926 14.2687 7.75926 12C7.75926 9.73125 9.6676 7.875 12 7.875C14.3324 7.875 16.2407 9.73125 16.2407 12C16.2407 14.2687 14.3324 16.125 12 16.125Z"
        fill="#D5F6FF" />
</svg>