<svg xmlns="http://www.w3.org/2000/svg" xmlns:xlink="http://www.w3.org/1999/xlink" viewBox="0 0 662 496"><defs><style>.cls-1{fill:none;}.cls-2{fill:#b7e5e2;}.cls-3{fill:#c2f0ed;}.cls-4,.cls-6{fill:#fff;}.cls-5{clip-path:url(#clip-path);}.cls-6{opacity:0.57;}.cls-7{fill:#fdb500;}.cls-8{fill:#ffcd19;}.cls-9{fill:#e5d439;}.cls-10{opacity:0.5;}.cls-11{fill:#ffca17;}.cls-12{fill:#fef045;}.cls-13{fill:#5d3c06;}.cls-14{fill:#f7a341;}.cls-15{clip-path:url(#clip-path-2);}.cls-16{opacity:0.71;}.cls-17{fill:#fff6de;}.cls-18{clip-path:url(#clip-path-3);}</style><clipPath id="clip-path"><ellipse class="cls-1" cx="334" cy="294.5" rx="308" ry="178.5"/></clipPath><clipPath id="clip-path-2"><path class="cls-1" d="M211.68,204.5C215.42,215,200.75,221.05,196,211c-.6-1.26-2.48-.16-1.88,1.1a10.66,10.66,0,0,0,19.69-8.19c-.47-1.31-2.57-.75-2.1.58Z"/></clipPath><clipPath id="clip-path-3"><ellipse class="cls-1" cx="1043" cy="294.5" rx="308" ry="178.5"/></clipPath></defs><title>Greeting-morning</title><g id="Layer_1" data-name="Layer 1"><ellipse class="cls-2" cx="330.5" cy="280.5" rx="315.5" ry="196.5"/><ellipse class="cls-3" cx="328" cy="294.5" rx="306" ry="182.5"/><path class="cls-4" d="M464.28,139.71a6.55,6.55,0,0,0,.2-1.6,6.67,6.67,0,0,0-6.66-6.67,7.33,7.33,0,0,0-1.06.09,8.91,8.91,0,0,0-15.92-5,10.78,10.78,0,0,0-20.45-.7,6.67,6.67,0,0,0-10.29,5.59,10.78,10.78,0,0,0-.71,21.53v0h54.18a6.66,6.66,0,0,0,.71-13.29Z"/><g class="cls-5"><path class="cls-6" d="M711.47,409.45a33,33,0,0,0-37.3-48.19,96.82,96.82,0,0,0-182.53-25.82,46.33,46.33,0,0,0-49.42,7.09,46.39,46.39,0,0,0-81.82-14.28,93.54,93.54,0,0,0-64.28-24.94c-30.9,0-58.16,14.38-74.37,36.28A46.35,46.35,0,0,0,149,375.92a46.37,46.37,0,0,0-66.19.75,50.2,50.2,0,1,0-95.08,32.17A33.07,33.07,0,0,0-44.55,441.9,33.1,33.1,0,0,0-11.45,475H704.89a33.1,33.1,0,0,0,6.58-65.55Z"/></g><path class="cls-7" d="M362.79,170.87l15.29-6.16-16.44-1.22C329,161.07,313,122.65,334.13,97.74l10.68-12.57-15.13,6.56c-30,13-62.09-13.53-54.91-45.43l3.61-16.09L268,43.05c-20.52,25.47-61.26,16.87-69.74-14.71L194,12.41l-3.19,16.18C184.5,60.68,144.43,72,122.24,48L111.06,35.86l4.69,15.81c9.31,31.35-20.92,60-51.72,49L48.49,95.18,60,107c22.81,23.44,9.37,62.85-23,67.46l-16.32,2.32,15.67,5.12c31.09,10.15,37.5,51.3,11,70.43L33.93,262l16.26-2.75c32.24-5.46,57,28,42.44,57.26l-7.36,14.75,13.12-10c26-19.82,63.52-1.72,64.19,31l.34,16.49,7-14.95c13.82-29.63,55.44-31,71.23-2.4l8,14.44-.78-16.47c-1.53-32.67,34.67-53.25,62-35.24L324,323.16l-8.34-14.23c-16.54-28.21,5.95-63.26,38.49-60l16.4,1.65-14-8.72C328.83,224.58,332.46,183.09,362.79,170.87Z"/><path class="cls-8" d="M354.71,169.78,369.16,164l-15.41-.83c-30.54-1.67-45-36.21-24.73-59.12l10.21-11.55-14.29,6.19c-28.34,12.27-58-11.26-50.76-40.27l3.64-14.63-9.9,11.8C248.27,78.93,210.2,71.8,202.76,43.33L199,29l-3.26,14.7c-6.45,29.16-44.21,40.06-64.63,18.66l-10.29-10.8L125,65.79C133.2,94,104.4,120.47,75.68,111L61.2,106.28l10.6,10.51c21,20.86,7.77,56.78-22.66,61.47l-15.35,2.37L48.41,185c29,8.7,34.34,45.86,9.16,63.61l-12.7,9,15.29-2.76c30.32-5.46,53,24.44,38.88,51.18L91.9,319.48l12.46-9.26c24.71-18.37,59.6-2.58,59.7,27l.05,14.93,6.78-13.65c13.44-27.06,52.49-29,66.84-3.32L245,348.15l-.46-14.91c-.91-29.56,33.37-48.79,58.67-32.91l12.75,8-7.59-12.75c-15.05-25.28,6.6-57.39,37.06-54.95l15.36,1.23-13-7.68C322,219,326.08,181.34,354.71,169.78Z"/><ellipse class="cls-9" cx="197.06" cy="195.68" rx="106.09" ry="105.99" transform="translate(-60.01 90.61) rotate(-22.57)"/><g class="cls-10"><path class="cls-4" d="M196.94,35.41s.05-6.7,0-6.7-.06,6.7,0,6.7Z"/></g><circle class="cls-11" cx="198.84" cy="191.71" r="117.23"/><ellipse class="cls-12" cx="199.88" cy="194.81" rx="112.96" ry="112.86" transform="translate(-59.46 91.63) rotate(-22.57)"/><circle class="cls-13" cx="139.65" cy="204.5" r="17.04"/><circle class="cls-4" cx="130.83" cy="200.33" r="4.99"/><circle class="cls-13" cx="251.88" cy="157.86" r="17.04"/><circle class="cls-4" cx="243.06" cy="153.69" r="4.99"/><ellipse class="cls-14" cx="148.92" cy="233.08" rx="18.07" ry="6.71" transform="translate(-78.05 75) rotate(-22.57)"/><ellipse class="cls-14" cx="263.37" cy="185.52" rx="18.07" ry="6.71" transform="translate(-51.03 115.28) rotate(-22.57)"/><g class="cls-15"><rect class="cls-1" x="207.2" y="195.57" width="7.61" height="7.61" transform="matrix(0.92, -0.38, 0.38, 0.92, -60.36, 96.25)"/><rect class="cls-13" x="207.2" y="195.57" width="7.61" height="7.61" transform="matrix(0.92, -0.38, 0.38, 0.92, -60.36, 96.25)"/><rect class="cls-1" x="210.12" y="202.6" width="7.61" height="7.61" transform="translate(-62.83 97.91) rotate(-22.57)"/><rect class="cls-13" x="210.12" y="202.6" width="7.61" height="7.61" transform="translate(-62.83 97.91) rotate(-22.57)"/><rect class="cls-1" x="213.04" y="209.63" width="7.61" height="7.61" transform="translate(-65.31 99.56) rotate(-22.57)"/><rect class="cls-13" x="213.04" y="209.63" width="7.61" height="7.61" transform="translate(-65.31 99.56) rotate(-22.57)"/><rect class="cls-1" x="200.17" y="198.49" width="7.61" height="7.61" transform="translate(-62.02 93.77) rotate(-22.57)"/><rect class="cls-13" x="200.17" y="198.49" width="7.61" height="7.61" transform="translate(-62.02 93.77) rotate(-22.57)"/><rect class="cls-1" x="203.09" y="205.53" width="7.61" height="7.61" transform="translate(-64.49 95.43) rotate(-22.57)"/><rect class="cls-13" x="203.09" y="205.53" width="7.61" height="7.61" transform="translate(-64.49 95.43) rotate(-22.57)"/><rect class="cls-1" x="206.01" y="212.56" width="7.61" height="7.61" transform="translate(-66.97 97.09) rotate(-22.57)"/><rect class="cls-13" x="206.01" y="212.56" width="7.61" height="7.61" transform="translate(-66.97 97.09) rotate(-22.57)"/><rect class="cls-1" x="208.94" y="219.59" width="7.61" height="7.61" transform="translate(-69.44 98.75) rotate(-22.57)"/><rect class="cls-13" x="208.94" y="219.59" width="7.61" height="7.61" transform="translate(-69.44 98.75) rotate(-22.57)"/><rect class="cls-1" x="193.14" y="201.42" width="7.61" height="7.61" transform="translate(-63.68 91.3) rotate(-22.57)"/><rect class="cls-13" x="193.14" y="201.42" width="7.61" height="7.61" transform="translate(-63.68 91.3) rotate(-22.57)"/><rect class="cls-1" x="196.06" y="208.45" width="7.61" height="7.61" transform="translate(-66.15 92.96) rotate(-22.57)"/><rect class="cls-13" x="196.06" y="208.45" width="7.61" height="7.61" transform="translate(-66.15 92.96) rotate(-22.57)"/><rect class="cls-1" x="198.98" y="215.48" width="7.61" height="7.61" transform="translate(-68.63 94.62) rotate(-22.57)"/><rect class="cls-13" x="198.98" y="215.48" width="7.61" height="7.61" transform="translate(-68.63 94.62) rotate(-22.57)"/><rect class="cls-1" x="186.11" y="204.34" width="7.61" height="7.61" transform="matrix(0.92, -0.38, 0.38, 0.92, -65.34, 88.82)"/><rect class="cls-13" x="186.11" y="204.34" width="7.61" height="7.61" transform="matrix(0.92, -0.38, 0.38, 0.92, -65.34, 88.82)"/><rect class="cls-1" x="189.03" y="211.37" width="7.61" height="7.61" transform="translate(-67.81 90.48) rotate(-22.57)"/><rect class="cls-13" x="189.03" y="211.37" width="7.61" height="7.61" transform="translate(-67.81 90.48) rotate(-22.57)"/><rect class="cls-1" x="191.95" y="218.4" width="7.61" height="7.61" transform="translate(-70.29 92.14) rotate(-22.57)"/><rect class="cls-13" x="191.95" y="218.4" width="7.61" height="7.61" transform="translate(-70.29 92.14) rotate(-22.57)"/></g><g class="cls-16"><path class="cls-4" d="M147.81,284.33c5.78,0,5.79-9,0-9s-5.79,9,0,9Z"/></g><g class="cls-16"><path class="cls-4" d="M159.24,291.09a34.25,34.25,0,0,0,18.12,4.29c5.76-.26,5.79-9.25,0-9a25.25,25.25,0,0,1-13.59-3.07c-5.07-2.78-9.61,5-4.53,7.76Z"/></g><path class="cls-17" d="M628.48,413.88A68.46,68.46,0,0,0,547.8,346.5c0-.37,0-.73,0-1.1a45.3,45.3,0,0,0-89-12,45.19,45.19,0,0,0-27.48-14.08A105.12,105.12,0,1,0,223.8,295.78c0,1,0,2,.08,3a68.5,68.5,0,0,0-88,57.34,45.26,45.26,0,0,0-51.39,38.45A45.3,45.3,0,1,0,69.9,482.71H565.44v-.59A68.46,68.46,0,0,0,628.48,413.88Z"/><path class="cls-4" d="M616.57,420.25c0-34.64-29.12-62.72-65-62.72a67,67,0,0,0-11.59,1c0-.34,0-.68,0-1,0-22.91-19.26-41.49-43-41.49-19.81,0-36.49,12.93-41.48,30.52a43.41,43.41,0,0,0-26.09-12.9,93.09,93.09,0,0,0,2.55-21.57c0-53.18-44.7-96.29-99.83-96.29s-99.83,43.11-99.83,96.29c0,.91.05,1.81.08,2.72a67.39,67.39,0,0,0-19-2.72c-33.28,0-60.71,24.13-64.55,55.23a45.39,45.39,0,0,0-6.21-.44c-21.7,0-39.65,15.51-42.59,35.67a44.24,44.24,0,0,0-13.9-2.23c-23.75,0-43,18.57-43,41.49s19.26,41.49,43,41.49H556.7v-.54C590.2,480.22,616.57,453.22,616.57,420.25Z"/><path class="cls-8" d="M275.34,307.27a3.79,3.79,0,0,1-3.7,3.7,3.64,3.64,0,0,1-2.22-.74q-4.07-3.21-7.4-3a6.52,6.52,0,0,0-4.75,2,18,18,0,0,0-3.52,5.25,44.55,44.55,0,0,0-2.53,7.09q-1,3.89-1.66,7.59c-.42,2.47-.7,4.77-.87,6.91s-.24,3.83-.24,5.06q0,2.6.43,7.16a51.56,51.56,0,0,0,1.66,9,25,25,0,0,0,3.58,7.77,7.43,7.43,0,0,0,6.05,3.45,9.06,9.06,0,0,0,5.3-1.72,23.1,23.1,0,0,0,4.57-4.26,36.34,36.34,0,0,0,3.7-5.37q1.61-2.83,2.71-5.06c-2,.42-4,.83-6,1.24s-4.05.74-6.11,1a22.84,22.84,0,0,1-3.7.37,6.44,6.44,0,0,1-3.39-.92,3.25,3.25,0,0,1-1.55-3,3.81,3.81,0,0,1,3.71-3.71,4.24,4.24,0,0,1,1.23.25c.33,0,1.3-.1,2.9-.31s4.42-.72,8.45-1.54c1.32-.33,2.55-.62,3.7-.86s2.18-.46,3.09-.62c1.07-.25,2.05-.49,3-.74a1.4,1.4,0,0,0,.43-.06,1.44,1.44,0,0,1,.43-.06,3.51,3.51,0,0,1,2.66,1.11,3.64,3.64,0,0,1,1.05,2.59,9.78,9.78,0,0,1-.81,3.08q-.79,2.1-1.91,4.38c-.74,1.53-1.48,3-2.22,4.32s-1.28,2.28-1.6,2.78a48.13,48.13,0,0,1-3.46,5.18,29.21,29.21,0,0,1-4.38,4.63,24.35,24.35,0,0,1-5.24,3.39,14.07,14.07,0,0,1-6.17,1.36,21.37,21.37,0,0,1-12.22-3.4,26.67,26.67,0,0,1-8.2-8.7,40.7,40.7,0,0,1-4.63-11.72A55.62,55.62,0,0,1,234,339.6a61.87,61.87,0,0,1,1.54-13.39,44.42,44.42,0,0,1,4.94-12.83,30.43,30.43,0,0,1,8.76-9.69,21.82,21.82,0,0,1,13-3.82,16.4,16.4,0,0,1,3.52.49,22.32,22.32,0,0,1,4.32,1.48,15.2,15.2,0,0,1,3.7,2.34A4,4,0,0,1,275.34,307.27Z"/><path class="cls-8" d="M310.39,335.53a3.77,3.77,0,0,1,2.28.67,3.05,3.05,0,0,1,1.17,1.42h1a9.26,9.26,0,0,1,5.61,1.67,12.14,12.14,0,0,1,3.64,4.26,21.14,21.14,0,0,1,2,5.67,29.74,29.74,0,0,1,.61,5.8,31.22,31.22,0,0,1-.86,7,21.53,21.53,0,0,1-2.84,6.79,16.34,16.34,0,0,1-5.24,5.12,14.77,14.77,0,0,1-8,2,18.34,18.34,0,0,1-7-1.36,17.74,17.74,0,0,1-9.88-9.87,21,21,0,0,1-1.48-8,23.56,23.56,0,0,1,1.36-7.9,21.28,21.28,0,0,1,3.89-6.78,19.5,19.5,0,0,1,6-4.76A16.83,16.83,0,0,1,310.39,335.53Zm3.82,9.5a3.89,3.89,0,0,1-3.58-2.23q-1.23,0-2.16,1.92A20.64,20.64,0,0,0,307,349c-.37,1.6-.66,3.19-.86,4.75a29.23,29.23,0,0,0-.31,3.08c0,.33,0,1.11.12,2.35a21.44,21.44,0,0,0,.68,3.94,11,11,0,0,0,1.79,3.77,4.06,4.06,0,0,0,3.46,1.66,4.65,4.65,0,0,0,3.51-1.48,11.14,11.14,0,0,0,2.29-3.64,21.22,21.22,0,0,0,1.23-4.5,26.15,26.15,0,0,0,.37-4.07,27.5,27.5,0,0,0-.18-2.9,15,15,0,0,0-.74-3.21,8.16,8.16,0,0,0-1.55-2.65A3.3,3.3,0,0,0,314.21,345Z"/><path class="cls-8" d="M351.47,335.53a3.79,3.79,0,0,1,2.29.67,3.18,3.18,0,0,1,1.17,1.42h1a9.26,9.26,0,0,1,5.61,1.67,12.24,12.24,0,0,1,3.64,4.26,21.13,21.13,0,0,1,2,5.67,29,29,0,0,1,.62,5.8,31.22,31.22,0,0,1-.86,7,21.77,21.77,0,0,1-2.84,6.79,16.44,16.44,0,0,1-5.24,5.12,14.77,14.77,0,0,1-8,2,18.43,18.43,0,0,1-7-1.36,17.68,17.68,0,0,1-9.87-9.87,21,21,0,0,1-1.48-8,23.31,23.31,0,0,1,1.36-7.9,21.09,21.09,0,0,1,3.89-6.78,19.5,19.5,0,0,1,6-4.76A16.82,16.82,0,0,1,351.47,335.53Zm3.83,9.5a3.89,3.89,0,0,1-3.58-2.23q-1.23,0-2.16,1.92a20.64,20.64,0,0,0-1.48,4.32c-.37,1.6-.66,3.19-.86,4.75a29.23,29.23,0,0,0-.31,3.08c0,.33,0,1.11.12,2.35a20.63,20.63,0,0,0,.68,3.94,11,11,0,0,0,1.79,3.77,4,4,0,0,0,3.45,1.66,4.67,4.67,0,0,0,3.52-1.48,11,11,0,0,0,2.28-3.64A20.66,20.66,0,0,0,360,359a26.15,26.15,0,0,0,.37-4.07,25.29,25.29,0,0,0-.19-2.9,13.88,13.88,0,0,0-.74-3.21,8,8,0,0,0-1.54-2.65A3.3,3.3,0,0,0,355.3,345Z"/><path class="cls-8" d="M387.63,376a15.48,15.48,0,0,1-11.05-4,14,14,0,0,1-4.25-10.68,19.14,19.14,0,0,1,1.79-8.26,22.87,22.87,0,0,1,4.75-6.73,21.07,21.07,0,0,1,6.91-4.5,21.7,21.7,0,0,1,8.26-1.61,17,17,0,0,1,5.43.87V320.72q0-7.28.62-14.69A19.51,19.51,0,0,1,401,302c.45-1.31,1.55-2,3.27-2a6.1,6.1,0,0,1,2,.49,5.2,5.2,0,0,1,2.41,2.35,17.91,17.91,0,0,1,1.85,5.18q.74,3.33,1.29,7.46t.87,8.76c.2,3.09.37,6,.49,8.83s.2,5.36.25,7.71.06,4.22.06,5.61a160.26,160.26,0,0,1-1.11,21.1c-.17,1-.37,2.18-.62,3.58a21.74,21.74,0,0,1-1.11,4,9.52,9.52,0,0,1-2,3.21,4.43,4.43,0,0,1-3.34,1.3,3.52,3.52,0,0,1-2.22-.68,4.72,4.72,0,0,1-1.35-1.73,9.82,9.82,0,0,1-.74-2.22,21.58,21.58,0,0,1-.37-2.28,11.1,11.1,0,0,1-.31-2.23c0-.82-.11-1.72-.19-2.71a27.23,27.23,0,0,1-5.37,5.74A11.15,11.15,0,0,1,387.63,376Zm-1.11-12.34V365a10.91,10.91,0,0,0,.12,1.61A6.12,6.12,0,0,0,387,368c.16.41.37.61.62.61a5.52,5.52,0,0,0,3.88-1.91,24.61,24.61,0,0,0,3.58-4.63,40.34,40.34,0,0,0,2.84-5.49q1.17-2.78,1.67-4.38v-3a11.09,11.09,0,0,0-5.43-1.6,4.23,4.23,0,0,0-3.34,1.91,16.07,16.07,0,0,0-2.4,4.57,35.32,35.32,0,0,0-1.42,5.36A25.07,25.07,0,0,0,386.52,363.66Z"/><path class="cls-8" d="M182.78,398.11c-.66-2.88-1.32-5.71-2-8.51s-1.31-5.39-2-7.78a2.19,2.19,0,0,1-.19-.61,2.29,2.29,0,0,0-.18-.62q-1.11,8.15-1.61,16.23T176.36,413q0,1.72.12,5.25t.44,7.28q.3,3.76.86,6.91a9.1,9.1,0,0,0,1.54,4.25,3.71,3.71,0,0,1-2.59,6.3,3.49,3.49,0,0,1-2.71-1.24,12.39,12.39,0,0,1-2.9-5.55,45.53,45.53,0,0,1-1.48-8c-.29-2.84-.48-5.65-.56-8.45s-.12-5.1-.12-6.91q0-3.82.24-10t.74-12.52c.33-4.24.76-8.22,1.3-12a34.08,34.08,0,0,1,2-8.45,5.16,5.16,0,0,1,2.16-2.65,4.88,4.88,0,0,1,2-.56,4.52,4.52,0,0,1,2,.49,10.86,10.86,0,0,1,5.73,3.64,32.54,32.54,0,0,1,4.57,7,64.17,64.17,0,0,1,3.58,9c1,3.26,1.89,6.46,2.59,9.63s1.27,6.11,1.73,8.82.8,4.94,1,6.66q3.83-10.37,6.73-21t5.37-21.22a3.25,3.25,0,0,1,1.35-2.16,4.11,4.11,0,0,1,2.47-.81,7.32,7.32,0,0,1,5,1.79,14.29,14.29,0,0,1,3.33,4.38,22.82,22.82,0,0,1,1.91,5.56q.61,3,1,5.18a114.5,114.5,0,0,1,1.3,12.34q.3,6.17.3,12.46,0,4.81-.12,9.56t-.31,8.89c-.12,2.75-.27,5.24-.43,7.46s-.29,4.07-.37,5.55a18.63,18.63,0,0,0-.12,2v1.11a4,4,0,0,1-1.18,2.53,3.44,3.44,0,0,1-2.52,1.05,3.9,3.9,0,0,1-1.73-.37,6,6,0,0,1-2.1-1.67,11,11,0,0,1-1.79-3.45,36.54,36.54,0,0,1-1.42-5.86q-.61-3.58-1.11-9-.62-6.92-.86-14.87t-.5-15.49q0-1.11-.06-2.22c0-.74-.06-1.44-.06-2.09Q211,398.36,209,404.9t-4.63,13c-.41,1-.88,2.08-1.42,3.27a23.66,23.66,0,0,1-1.85,3.4,9.7,9.7,0,0,1-2.53,2.65,5.63,5.63,0,0,1-3.33,1.05,6.37,6.37,0,0,1-4.5-3.39,40.8,40.8,0,0,1-3.27-8c-.74-2.63-1.51-5.57-2.29-8.83S183.6,401.49,182.78,398.11Z"/><path class="cls-8" d="M255.21,402.55a3.78,3.78,0,0,1,2.28.68,3.18,3.18,0,0,1,1.17,1.42h1a9.26,9.26,0,0,1,5.61,1.67,12.19,12.19,0,0,1,3.64,4.25,21.21,21.21,0,0,1,2,5.68,29.74,29.74,0,0,1,.61,5.8,31.29,31.29,0,0,1-.86,7,21.63,21.63,0,0,1-2.84,6.79,16.44,16.44,0,0,1-5.24,5.12,14.77,14.77,0,0,1-8,2,18.53,18.53,0,0,1-7-1.36,17.66,17.66,0,0,1-9.88-9.87,21,21,0,0,1-1.48-8,23.31,23.31,0,0,1,1.36-7.9,21.25,21.25,0,0,1,3.89-6.79,19.61,19.61,0,0,1,6-4.75A16.83,16.83,0,0,1,255.21,402.55Zm3.82,9.5a3.9,3.9,0,0,1-3.58-2.22q-1.23,0-2.16,1.92a20.64,20.64,0,0,0-1.48,4.32,48,48,0,0,0-.86,4.75,29.23,29.23,0,0,0-.31,3.08q0,.5.12,2.34a20.59,20.59,0,0,0,.68,3.95,11,11,0,0,0,1.79,3.77,4.06,4.06,0,0,0,3.46,1.66,4.65,4.65,0,0,0,3.51-1.48,11.24,11.24,0,0,0,2.29-3.64,21.38,21.38,0,0,0,1.23-4.5,26.15,26.15,0,0,0,.37-4.07,25.15,25.15,0,0,0-.19-2.9,13.88,13.88,0,0,0-.74-3.21,8,8,0,0,0-1.54-2.65A3.28,3.28,0,0,0,259,412.05Z"/><path class="cls-8" d="M303,424.39c0-.65,0-1.6.12-2.83s.16-2.43.25-3.58.12-2.16.12-3-.08-1.29-.25-1.29c-1.31,0-2.51,1-3.58,3.08a44.62,44.62,0,0,0-2.89,7.22c-.87,2.76-1.61,5.51-2.23,8.27s-1.13,4.87-1.54,6.35a9.06,9.06,0,0,1-1.54,3.09,3.61,3.61,0,0,1-3,1.36,5.52,5.52,0,0,1-4.38-1.92,12.08,12.08,0,0,1-2.47-4.62,27.69,27.69,0,0,1-1.05-5.68c-.17-2-.25-3.62-.25-4.94s.1-3.39.31-6a50.71,50.71,0,0,1,1.23-7.71,21.53,21.53,0,0,1,2.78-6.67,5.64,5.64,0,0,1,4.94-2.83,3.17,3.17,0,0,1,2.59,1.05,7.12,7.12,0,0,1,1.29,2.53,13,13,0,0,1,.5,3.08c0,1.07.1,2,.18,2.71a20.09,20.09,0,0,1,4-4.07,8.64,8.64,0,0,1,5.37-1.72,13,13,0,0,1,9.75,3.82,13.59,13.59,0,0,1,3.7,9.87,17.76,17.76,0,0,1-.49,3.95,13.22,13.22,0,0,1-1.55,3.83,10.07,10.07,0,0,1-2.65,2.9,6.3,6.3,0,0,1-3.82,1.17q-3.21,0-4.32-2.35A11.67,11.67,0,0,1,303,424.39Z"/><path class="cls-8" d="M348.36,427.23c0-.82,0-2,.13-3.51s.1-3,.06-4.51a34.12,34.12,0,0,0-.31-3.89c-.17-1.11-.49-1.66-1-1.66a3.27,3.27,0,0,0-2.53,1.48,16.65,16.65,0,0,0-2.16,3.82,44.61,44.61,0,0,0-1.79,5.25c-.53,1.93-1,3.8-1.48,5.61s-.82,3.5-1.11,5.06a32.67,32.67,0,0,1-.8,3.58,9.15,9.15,0,0,1-1.54,3.09,3.6,3.6,0,0,1-3,1.35,5.51,5.51,0,0,1-4.38-1.91,12.12,12.12,0,0,1-2.47-4.63,27.59,27.59,0,0,1-1.05-5.67c-.17-2-.25-3.62-.25-4.94s.1-3.39.31-6a51,51,0,0,1,1.23-7.72,20.72,20.72,0,0,1,2.78-6.6,5.67,5.67,0,0,1,4.94-2.77,3.29,3.29,0,0,1,2.59,1,6.52,6.52,0,0,1,1.29,2.47,12.63,12.63,0,0,1,.5,3.09c0,1.07.1,2,.18,2.83a18,18,0,0,1,3.95-4.13,8.53,8.53,0,0,1,5.31-1.79,12.28,12.28,0,0,1,7.09,2,15.88,15.88,0,0,1,4.75,5.06,22.11,22.11,0,0,1,2.66,6.78,34.15,34.15,0,0,1,.8,7.16,38,38,0,0,1-.37,4.75,20.17,20.17,0,0,1-1.42,5.24,13.1,13.1,0,0,1-2.78,4.2A6,6,0,0,1,354,443a4.12,4.12,0,0,1-3.76-1.85,12.58,12.58,0,0,1-1.67-4.45,22.38,22.38,0,0,1-.37-5.24Q348.36,428.84,348.36,427.23Z"/><path class="cls-8" d="M383.53,438.58a9.24,9.24,0,0,1-1.54,3.09,3.62,3.62,0,0,1-3,1.36,5.52,5.52,0,0,1-4.38-1.92,12.06,12.06,0,0,1-2.46-4.62,27.69,27.69,0,0,1-1.05-5.68c-.17-2-.25-3.62-.25-4.94s.1-3.39.31-6a49.49,49.49,0,0,1,1.23-7.71,21.53,21.53,0,0,1,2.78-6.67,5.64,5.64,0,0,1,4.93-2.83,3.36,3.36,0,0,1,2.84,1.29,6.45,6.45,0,0,1,1.24,3,66.89,66.89,0,0,1,.61,6.91c.08,2.3.13,4.6.13,6.91v3.88c0,1.61-.05,3.27-.13,5s-.22,3.39-.43,5A20.51,20.51,0,0,1,383.53,438.58Zm0-45.65a4.64,4.64,0,1,1-1.36-3.33A4.49,4.49,0,0,1,383.53,392.93Z"/><path class="cls-8" d="M417.46,427.23c0-.82,0-2,.13-3.51s.1-3,.06-4.51a36.58,36.58,0,0,0-.31-3.89c-.17-1.11-.5-1.66-1-1.66a3.26,3.26,0,0,0-2.53,1.48,16.65,16.65,0,0,0-2.16,3.82,44.61,44.61,0,0,0-1.79,5.25c-.53,1.93-1,3.8-1.48,5.61s-.82,3.5-1.11,5.06a35.22,35.22,0,0,1-.8,3.58,9.34,9.34,0,0,1-1.54,3.09,3.61,3.61,0,0,1-3,1.35,5.51,5.51,0,0,1-4.38-1.91,12.1,12.1,0,0,1-2.46-4.63,27.59,27.59,0,0,1-1.05-5.67c-.17-2-.25-3.62-.25-4.94s.1-3.39.31-6a49.81,49.81,0,0,1,1.23-7.72,20.72,20.72,0,0,1,2.78-6.6,5.67,5.67,0,0,1,4.93-2.77,3.3,3.3,0,0,1,2.6,1,6.52,6.52,0,0,1,1.29,2.47,12.62,12.62,0,0,1,.49,3.09c.05,1.07.11,2,.19,2.83a18,18,0,0,1,4-4.13,8.52,8.52,0,0,1,5.3-1.79,12.29,12.29,0,0,1,7.1,2,15.88,15.88,0,0,1,4.75,5.06,22.09,22.09,0,0,1,2.65,6.78,33.49,33.49,0,0,1,.8,7.16,36.13,36.13,0,0,1-.37,4.75,20.16,20.16,0,0,1-1.41,5.24,13.1,13.1,0,0,1-2.78,4.2,6,6,0,0,1-4.44,1.73,4.14,4.14,0,0,1-3.77-1.85,12.77,12.77,0,0,1-1.66-4.45,22.38,22.38,0,0,1-.37-5.24Q417.46,428.84,417.46,427.23Z"/><path class="cls-8" d="M459.29,470.54q-7,0-11.35-4.19a14.33,14.33,0,0,1-4.32-10.74,3.64,3.64,0,0,1,1.05-2.59,3.49,3.49,0,0,1,2.65-1.11,3.79,3.79,0,0,1,3.7,3.7,7.4,7.4,0,0,0,2,5.49,6.64,6.64,0,0,0,4.87,2,7.43,7.43,0,0,0,2-.31,4.59,4.59,0,0,0,1.91-1.17,7,7,0,0,0,1.48-2.41,11.36,11.36,0,0,0,.62-4.13q0-4.94-2.35-6.54a13,13,0,0,0-6.66-1.85H452.5a4.34,4.34,0,0,1-2.9-1,3.21,3.21,0,0,1-1.05-2.84,3.65,3.65,0,0,1,1.61-3c.16-.08.55-.33,1.17-.74s1.38-.94,2.28-1.6A19.56,19.56,0,0,1,443.43,432a15.05,15.05,0,0,1-4-10.85,17.55,17.55,0,0,1,1.55-7.35,19.29,19.29,0,0,1,4.13-5.92,19.1,19.1,0,0,1,13.33-5.37,7.77,7.77,0,0,0,3.33-.74A11.31,11.31,0,0,0,464.6,400a11.91,11.91,0,0,0,2-2.22,3.64,3.64,0,0,0,.74-1.85,3.64,3.64,0,0,1,1.05-2.59,3.49,3.49,0,0,1,2.65-1.11,3.79,3.79,0,0,1,3.7,3.7,11.2,11.2,0,0,1-.92,3.76,31.54,31.54,0,0,1-4.51,7,12.6,12.6,0,0,1,4.2,6,22.45,22.45,0,0,1,1.23,7.22,22.68,22.68,0,0,1-.86,6.54,18.89,18.89,0,0,1-2.47,5.18,23.87,23.87,0,0,1-3.82,4.32c-1.48,1.32-3.09,2.67-4.81,4.07a43,43,0,0,1,6,1.61,17.4,17.4,0,0,1,5,2.65,12.64,12.64,0,0,1,3.45,4.07,12.14,12.14,0,0,1,1.3,5.86,14.29,14.29,0,0,1-1.79,7.28,16.25,16.25,0,0,1-4.63,5.12,20.36,20.36,0,0,1-6.23,3A23.84,23.84,0,0,1,459.29,470.54Zm-5.43-49.23c0,.58,0,1.38.12,2.41a10.8,10.8,0,0,0,.74,3.08,8.11,8.11,0,0,0,1.79,2.71,4.22,4.22,0,0,0,3.15,1.18,5.76,5.76,0,0,0,3.52-1.05,8.68,8.68,0,0,0,2.34-2.65,12.45,12.45,0,0,0,1.36-3.52,16.45,16.45,0,0,0,.43-3.64,18.63,18.63,0,0,0-.12-2,11.09,11.09,0,0,0-.5-2.22,8.12,8.12,0,0,0-1-2,3.49,3.49,0,0,0-1.48-1.3,3.6,3.6,0,0,1-2.47.87,3.52,3.52,0,0,1-2.41-.93,3.88,3.88,0,0,1-1.29-2.28q-1.37.5-2.78,3.64A18.66,18.66,0,0,0,453.86,421.31Z"/><path class="cls-7" d="M273,305.71a3.58,3.58,0,0,1-1.11,2.6,3.54,3.54,0,0,1-2.59,1.11,3.64,3.64,0,0,1-2.22-.74c-2.72-2.14-5.18-3.13-7.4-3a6.49,6.49,0,0,0-4.75,2,18.13,18.13,0,0,0-3.52,5.24,44.67,44.67,0,0,0-2.53,7.1q-1.05,3.89-1.67,7.59t-.86,6.91c-.17,2.14-.25,3.82-.25,5.06,0,1.72.15,4.11.43,7.15a52.17,52.17,0,0,0,1.67,9,25,25,0,0,0,3.58,7.77,7.41,7.41,0,0,0,6.05,3.46,9.09,9.09,0,0,0,5.3-1.73,23.1,23.1,0,0,0,4.57-4.26,37,37,0,0,0,3.7-5.36q1.61-2.83,2.71-5.06l-6,1.23c-2,.41-4.05.74-6.11,1a22.84,22.84,0,0,1-3.7.37,6.4,6.4,0,0,1-3.39-.93,3.24,3.24,0,0,1-1.55-3,3.79,3.79,0,0,1,3.7-3.7,3.93,3.93,0,0,1,1.24.25c.33,0,1.29-.11,2.9-.31s4.42-.72,8.45-1.55c1.32-.32,2.55-.61,3.7-.86s2.18-.45,3.09-.62c1.07-.24,2.05-.49,3-.74a1.4,1.4,0,0,0,.43-.06,1.4,1.4,0,0,1,.43-.06,3.51,3.51,0,0,1,2.66,1.11,3.69,3.69,0,0,1,1,2.59,9.73,9.73,0,0,1-.8,3.09q-.8,2.1-1.91,4.38T279,357.11c-.74,1.35-1.28,2.28-1.61,2.77a46.11,46.11,0,0,1-3.45,5.18,29.67,29.67,0,0,1-4.38,4.63,24.22,24.22,0,0,1-5.25,3.4,14.13,14.13,0,0,1-6.16,1.35A21.42,21.42,0,0,1,246,371.05a26.8,26.8,0,0,1-8.21-8.7,40.8,40.8,0,0,1-4.62-11.72A55.7,55.7,0,0,1,231.65,338a61.94,61.94,0,0,1,1.54-13.39,44.92,44.92,0,0,1,4.93-12.83,30.65,30.65,0,0,1,8.77-9.68,21.81,21.81,0,0,1,13-3.83,17.06,17.06,0,0,1,3.52.49,23,23,0,0,1,4.32,1.48,14.93,14.93,0,0,1,3.7,2.35A4,4,0,0,1,273,305.71Z"/><path class="cls-7" d="M308,334a3.79,3.79,0,0,1,2.29.68,3.08,3.08,0,0,1,1.17,1.42h1a9.25,9.25,0,0,1,5.61,1.66,12.24,12.24,0,0,1,3.64,4.26,21.2,21.2,0,0,1,2,5.68,29,29,0,0,1,.62,5.8,31.29,31.29,0,0,1-.86,7,21.87,21.87,0,0,1-2.84,6.79,16.65,16.65,0,0,1-5.24,5.12,14.85,14.85,0,0,1-8,2,18.57,18.57,0,0,1-7-1.35,18.13,18.13,0,0,1-5.86-3.83,17.92,17.92,0,0,1-4-6.05,20.91,20.91,0,0,1-1.48-8,23.3,23.3,0,0,1,1.36-7.89,21.14,21.14,0,0,1,3.89-6.79,19.47,19.47,0,0,1,6-4.75A16.82,16.82,0,0,1,308,334Zm3.83,9.5a3.9,3.9,0,0,1-3.58-2.22c-.82,0-1.54.64-2.16,1.91a20.47,20.47,0,0,0-1.48,4.32c-.37,1.61-.66,3.19-.86,4.75a29.33,29.33,0,0,0-.31,3.09q0,.49.12,2.34a20.72,20.72,0,0,0,.68,3.95,11,11,0,0,0,1.79,3.76A4,4,0,0,0,309.5,367a4.67,4.67,0,0,0,3.52-1.48,11.06,11.06,0,0,0,2.28-3.64,20.74,20.74,0,0,0,1.24-4.51,27.33,27.33,0,0,0,.37-4.07,25.29,25.29,0,0,0-.19-2.9,13.88,13.88,0,0,0-.74-3.21,8.07,8.07,0,0,0-1.54-2.65A3.3,3.3,0,0,0,311.85,343.47Z"/><path class="cls-7" d="M349.11,334a3.74,3.74,0,0,1,2.28.68,3,3,0,0,1,1.18,1.42h1a9.28,9.28,0,0,1,5.62,1.66,12.24,12.24,0,0,1,3.64,4.26,21.2,21.2,0,0,1,2,5.68,29.71,29.71,0,0,1,.62,5.8,31.29,31.29,0,0,1-.86,7,21.87,21.87,0,0,1-2.84,6.79,16.58,16.58,0,0,1-5.25,5.12,14.82,14.82,0,0,1-7.95,2,18.57,18.57,0,0,1-7-1.35,18.13,18.13,0,0,1-5.86-3.83,17.78,17.78,0,0,1-4-6.05,20.73,20.73,0,0,1-1.48-8,23.3,23.3,0,0,1,1.36-7.89,21.3,21.3,0,0,1,3.88-6.79,19.62,19.62,0,0,1,6-4.75A16.76,16.76,0,0,1,349.11,334Zm3.83,9.5a3.89,3.89,0,0,1-3.58-2.22c-.82,0-1.54.64-2.16,1.91a20.47,20.47,0,0,0-1.48,4.32c-.37,1.61-.66,3.19-.86,4.75a29.33,29.33,0,0,0-.31,3.09q0,.49.12,2.34a20.72,20.72,0,0,0,.68,3.95,10.8,10.8,0,0,0,1.79,3.76,4,4,0,0,0,3.45,1.67,4.67,4.67,0,0,0,3.52-1.48,11.22,11.22,0,0,0,2.28-3.64,20.74,20.74,0,0,0,1.24-4.51,27.33,27.33,0,0,0,.37-4.07,27.79,27.79,0,0,0-.19-2.9,13.88,13.88,0,0,0-.74-3.21,8.07,8.07,0,0,0-1.54-2.65A3.32,3.32,0,0,0,352.94,343.47Z"/><path class="cls-7" d="M385.26,374.44a15.43,15.43,0,0,1-11-4A14,14,0,0,1,370,359.76a19.33,19.33,0,0,1,1.79-8.27,22.88,22.88,0,0,1,4.75-6.72,21.14,21.14,0,0,1,6.91-4.51,21.94,21.94,0,0,1,8.27-1.6,17.24,17.24,0,0,1,5.43.86V319.16q0-7.28.62-14.68a19.23,19.23,0,0,1,.92-4.07q.68-2,3.27-2a6.22,6.22,0,0,1,2,.5,5.21,5.21,0,0,1,2.4,2.34,17.72,17.72,0,0,1,1.85,5.18c.5,2.23.93,4.71,1.3,7.47s.66,5.68.86,8.76.37,6,.5,8.82.2,5.37.24,7.71.07,4.22.07,5.62a160.37,160.37,0,0,1-1.11,21.1c-.17,1-.37,2.18-.62,3.58a22,22,0,0,1-1.11,4,9.59,9.59,0,0,1-2,3.2A4.35,4.35,0,0,1,403,378a3.52,3.52,0,0,1-2.22-.68,4.66,4.66,0,0,1-1.36-1.73,10.16,10.16,0,0,1-.74-2.22c-.16-.78-.29-1.54-.37-2.28a12.77,12.77,0,0,1-.31-2.22c0-.82-.1-1.73-.18-2.71a27,27,0,0,1-5.37,5.73A11.18,11.18,0,0,1,385.26,374.44Zm-1.11-12.34v1.3a9.59,9.59,0,0,0,.13,1.6,6,6,0,0,0,.37,1.42c.16.41.37.62.61.62a5.58,5.58,0,0,0,3.89-1.91,24.94,24.94,0,0,0,3.58-4.63,42.13,42.13,0,0,0,2.84-5.49q1.17-2.77,1.66-4.38v-3a11.05,11.05,0,0,0-5.43-1.61,4.23,4.23,0,0,0-3.33,1.91,16.07,16.07,0,0,0-2.4,4.57,34.31,34.31,0,0,0-1.42,5.37A25.32,25.32,0,0,0,384.15,362.1Z"/><path class="cls-7" d="M180.41,396.56q-1-4.32-2-8.52t-2-7.77a1.89,1.89,0,0,1-.19-.62,2.21,2.21,0,0,0-.18-.61q-1.11,8.13-1.61,16.22T174,411.49c0,1.15,0,2.9.12,5.24s.23,4.77.43,7.28.5,4.81.87,6.91a9.1,9.1,0,0,0,1.54,4.26,3.67,3.67,0,1,1-5.31,5.06,12.69,12.69,0,0,1-2.9-5.56,46.36,46.36,0,0,1-1.48-7.95q-.44-4.26-.55-8.46c-.08-2.79-.13-5.1-.13-6.91,0-2.54.09-5.88.25-10s.41-8.29.74-12.52.76-8.23,1.3-12a34.71,34.71,0,0,1,2-8.46,5.3,5.3,0,0,1,2.16-2.65,4.88,4.88,0,0,1,2-.55,4.35,4.35,0,0,1,2,.49,10.82,10.82,0,0,1,5.74,3.64,32.46,32.46,0,0,1,4.57,7,65.54,65.54,0,0,1,3.57,9q1.54,4.88,2.6,9.62c.69,3.17,1.27,6.11,1.72,8.83s.81,4.93,1.05,6.66q3.82-10.37,6.73-21t5.36-21.22a3.35,3.35,0,0,1,1.36-2.16,4.14,4.14,0,0,1,2.47-.8,7.33,7.33,0,0,1,5,1.79,14.36,14.36,0,0,1,3.33,4.38,22.89,22.89,0,0,1,1.91,5.55c.41,2,.74,3.7,1,5.18a112.5,112.5,0,0,1,1.29,12.34q.31,6.18.31,12.47,0,4.8-.12,9.56c-.08,3.17-.19,6.13-.31,8.88s-.27,5.25-.43,7.47-.29,4.07-.37,5.55a18.86,18.86,0,0,0-.13,2v1.11a3.91,3.91,0,0,1-1.17,2.53,3.44,3.44,0,0,1-2.53,1.05,3.73,3.73,0,0,1-1.72-.37,6,6,0,0,1-2.1-1.66,11,11,0,0,1-1.79-3.46,36.27,36.27,0,0,1-1.42-5.86c-.41-2.38-.78-5.39-1.11-9q-.62-6.9-.86-14.87t-.5-15.48q0-1.11-.06-2.22t-.06-2.1q-1.72,6.66-3.76,13.2t-4.63,13c-.41,1-.89,2.08-1.42,3.27a25.15,25.15,0,0,1-1.85,3.39,9.74,9.74,0,0,1-2.53,2.66,5.62,5.62,0,0,1-3.33,1,6.34,6.34,0,0,1-4.51-3.39,41.53,41.53,0,0,1-3.27-8q-1.11-3.94-2.28-8.82T180.41,396.56Z"/><path class="cls-7" d="M252.84,401a3.79,3.79,0,0,1,2.29.68,3.08,3.08,0,0,1,1.17,1.42h1a9.25,9.25,0,0,1,5.61,1.66,12.24,12.24,0,0,1,3.64,4.26,21.2,21.2,0,0,1,2,5.68,29.69,29.69,0,0,1,.62,5.79,31.31,31.31,0,0,1-.86,7,21.71,21.71,0,0,1-2.84,6.78,16.58,16.58,0,0,1-5.24,5.13,14.88,14.88,0,0,1-8,2,18.39,18.39,0,0,1-7-1.36,18.11,18.11,0,0,1-5.86-3.82,17.87,17.87,0,0,1-4-6.05,20.73,20.73,0,0,1-1.48-8,23.3,23.3,0,0,1,1.36-7.89,21.14,21.14,0,0,1,3.89-6.79,19.32,19.32,0,0,1,6-4.75A16.82,16.82,0,0,1,252.84,401Zm3.83,9.5a3.89,3.89,0,0,1-3.58-2.22c-.82,0-1.54.64-2.16,1.91a20.47,20.47,0,0,0-1.48,4.32c-.37,1.6-.66,3.19-.86,4.75a29.09,29.09,0,0,0-.31,3.09q0,.5.12,2.34a20.85,20.85,0,0,0,.68,3.95,11,11,0,0,0,1.79,3.76,4,4,0,0,0,3.45,1.67,4.71,4.71,0,0,0,3.52-1.48,11.06,11.06,0,0,0,2.28-3.64,20.74,20.74,0,0,0,1.24-4.51,27.44,27.44,0,0,0,.37-4.07,25.29,25.29,0,0,0-.19-2.9,13.88,13.88,0,0,0-.74-3.21,8.07,8.07,0,0,0-1.54-2.65A3.3,3.3,0,0,0,256.67,410.5Z"/><path class="cls-7" d="M300.59,422.84c0-.66,0-1.6.13-2.84s.16-2.42.24-3.58.13-2.16.13-3-.09-1.3-.25-1.3q-2,0-3.58,3.09a45.14,45.14,0,0,0-2.9,7.22c-.86,2.75-1.6,5.51-2.22,8.26S291,435.55,290.6,437a9,9,0,0,1-1.54,3.08,3.59,3.59,0,0,1-3,1.36,5.54,5.54,0,0,1-4.38-1.91,12.18,12.18,0,0,1-2.46-4.63,27.59,27.59,0,0,1-1.05-5.67c-.17-2-.25-3.62-.25-4.94s.1-3.39.31-6a49.43,49.43,0,0,1,1.23-7.72,21.13,21.13,0,0,1,2.78-6.66,5.65,5.65,0,0,1,4.93-2.84,3.17,3.17,0,0,1,2.6,1.05A7.12,7.12,0,0,1,291,404.7a12.62,12.62,0,0,1,.49,3.09c.05,1.07.11,2,.19,2.71a19.84,19.84,0,0,1,4-4.07,8.65,8.65,0,0,1,5.37-1.73,13,13,0,0,1,9.75,3.83,13.63,13.63,0,0,1,3.7,9.87,17.3,17.3,0,0,1-.5,4,13,13,0,0,1-1.54,3.82,9.94,9.94,0,0,1-2.65,2.9,6.33,6.33,0,0,1-3.83,1.17c-2.14,0-3.57-.78-4.32-2.34A11.67,11.67,0,0,1,300.59,422.84Z"/><path class="cls-7" d="M346,425.68c0-.82,0-2,.12-3.52s.11-3,.07-4.5a36.36,36.36,0,0,0-.31-3.89c-.17-1.11-.5-1.67-1-1.67a3.29,3.29,0,0,0-2.53,1.48,16.74,16.74,0,0,0-2.16,3.83,43.8,43.8,0,0,0-1.79,5.24c-.53,1.94-1,3.81-1.48,5.62s-.82,3.5-1.11,5.06a36.54,36.54,0,0,1-.8,3.58,9,9,0,0,1-1.54,3.08,3.59,3.59,0,0,1-3,1.36,5.54,5.54,0,0,1-4.38-1.91,12.18,12.18,0,0,1-2.46-4.63,27.56,27.56,0,0,1-1.05-5.68c-.17-2-.25-3.62-.25-4.93s.1-3.4.31-6a49.49,49.49,0,0,1,1.23-7.71,20.4,20.4,0,0,1,2.78-6.6,5.68,5.68,0,0,1,4.93-2.78,3.27,3.27,0,0,1,2.6,1,6.52,6.52,0,0,1,1.29,2.47,13,13,0,0,1,.5,3.08c0,1.07.1,2,.18,2.84a18,18,0,0,1,3.95-4.13,8.46,8.46,0,0,1,5.3-1.79,12.36,12.36,0,0,1,7.1,2,16.09,16.09,0,0,1,4.75,5.06,22.25,22.25,0,0,1,2.65,6.79,33.4,33.4,0,0,1,.8,7.15,36.13,36.13,0,0,1-.37,4.75,20.34,20.34,0,0,1-1.41,5.25,13.05,13.05,0,0,1-2.78,4.19,6,6,0,0,1-4.44,1.73,4.14,4.14,0,0,1-3.77-1.85,12.64,12.64,0,0,1-1.66-4.44,22,22,0,0,1-.37-5.25C346,428.17,346,426.75,346,425.68Z"/><path class="cls-7" d="M381.17,437a9.19,9.19,0,0,1-1.54,3.08,3.59,3.59,0,0,1-3,1.36,5.54,5.54,0,0,1-4.38-1.91,12.33,12.33,0,0,1-2.47-4.63,28.27,28.27,0,0,1-1-5.67c-.17-2-.25-3.62-.25-4.94s.1-3.39.31-6a48.28,48.28,0,0,1,1.23-7.72,21.13,21.13,0,0,1,2.78-6.66,5.65,5.65,0,0,1,4.93-2.84,3.34,3.34,0,0,1,2.84,1.3,6.3,6.3,0,0,1,1.23,3,64.71,64.71,0,0,1,.62,6.91c.08,2.3.12,4.61.12,6.91v3.89c0,1.6,0,3.27-.12,5s-.23,3.39-.43,5A21.47,21.47,0,0,1,381.17,437Zm0-45.66a4.63,4.63,0,0,1-4.69,4.69,4.71,4.71,0,1,1,4.69-4.69Z"/><path class="cls-7" d="M415.1,425.68c0-.82,0-2,.12-3.52s.11-3,.06-4.5a34.13,34.13,0,0,0-.3-3.89c-.17-1.11-.5-1.67-1-1.67a3.29,3.29,0,0,0-2.53,1.48,16.74,16.74,0,0,0-2.16,3.83,42.1,42.1,0,0,0-1.79,5.24q-.81,2.91-1.48,5.62t-1.11,5.06c-.29,1.56-.56,2.75-.8,3.58a9.19,9.19,0,0,1-1.54,3.08,3.59,3.59,0,0,1-3,1.36,5.54,5.54,0,0,1-4.38-1.91,12.33,12.33,0,0,1-2.47-4.63,28.24,28.24,0,0,1-1-5.68c-.17-2-.25-3.62-.25-4.93s.1-3.4.31-6A48.34,48.34,0,0,1,393,410.5a20.4,20.4,0,0,1,2.78-6.6,5.68,5.68,0,0,1,4.93-2.78,3.25,3.25,0,0,1,2.59,1,6.4,6.4,0,0,1,1.3,2.47,12.47,12.47,0,0,1,.49,3.08c0,1.07.1,2,.19,2.84a17.76,17.76,0,0,1,3.95-4.13,8.46,8.46,0,0,1,5.3-1.79,12.38,12.38,0,0,1,7.1,2,16.2,16.2,0,0,1,4.75,5.06A22.51,22.51,0,0,1,429,418.4a33.4,33.4,0,0,1,.8,7.15,36.13,36.13,0,0,1-.37,4.75,20,20,0,0,1-1.42,5.25,13,13,0,0,1-2.77,4.19,6,6,0,0,1-4.44,1.73,4.14,4.14,0,0,1-3.77-1.85,12.44,12.44,0,0,1-1.66-4.44,22,22,0,0,1-.37-5.25C415.06,428.17,415.1,426.75,415.1,425.68Z"/><path class="cls-7" d="M456.93,469q-7,0-11.35-4.2a14.31,14.31,0,0,1-4.32-10.73,3.64,3.64,0,0,1,1.05-2.59,3.47,3.47,0,0,1,2.65-1.11,3.79,3.79,0,0,1,3.7,3.7,7.42,7.42,0,0,0,2,5.49,6.62,6.62,0,0,0,4.87,2,7.41,7.41,0,0,0,2-.3,4.51,4.51,0,0,0,1.91-1.18,7.14,7.14,0,0,0,1.48-2.4,11.42,11.42,0,0,0,.62-4.14c0-3.29-.79-5.47-2.35-6.54a13.12,13.12,0,0,0-6.66-1.85h-2.47a4.39,4.39,0,0,1-2.9-1,3.22,3.22,0,0,1-1.05-2.84,3.65,3.65,0,0,1,1.61-3c.16-.08.55-.33,1.17-.74s1.38-.95,2.28-1.61a19.44,19.44,0,0,1-10.18-5.55,15.09,15.09,0,0,1-4-10.86,17.65,17.65,0,0,1,1.54-7.34,19.37,19.37,0,0,1,4.14-5.92,18.65,18.65,0,0,1,6-3.95,18.93,18.93,0,0,1,7.28-1.42,7.93,7.93,0,0,0,3.34-.74,11.25,11.25,0,0,0,2.83-1.85,12,12,0,0,0,2-2.22,3.64,3.64,0,0,0,.74-1.85,3.67,3.67,0,0,1,1.05-2.6,3.49,3.49,0,0,1,2.65-1.11,3.79,3.79,0,0,1,3.7,3.71,11.56,11.56,0,0,1-.92,3.76,31.53,31.53,0,0,1-4.51,7,12.65,12.65,0,0,1,4.2,6,22.39,22.39,0,0,1,1.23,7.21,22.68,22.68,0,0,1-.86,6.54A19,19,0,0,1,469,430a23.48,23.48,0,0,1-3.82,4.31c-1.49,1.32-3.09,2.68-4.82,4.08a42.75,42.75,0,0,1,6.05,1.6,17.65,17.65,0,0,1,5,2.65,12.57,12.57,0,0,1,3.45,4.08,12.11,12.11,0,0,1,1.3,5.86,14.31,14.31,0,0,1-1.79,7.28,16.48,16.48,0,0,1-4.63,5.12,20.57,20.57,0,0,1-6.23,3A23.49,23.49,0,0,1,456.93,469Zm-5.43-49.24c0,.58,0,1.38.12,2.41a10.54,10.54,0,0,0,.74,3.09,8.06,8.06,0,0,0,1.79,2.71,4.26,4.26,0,0,0,3.15,1.17,5.76,5.76,0,0,0,3.52-1.05,8.57,8.57,0,0,0,2.34-2.65,12.45,12.45,0,0,0,1.36-3.52,16.92,16.92,0,0,0,.43-3.64,18.61,18.61,0,0,0-.12-2,11.09,11.09,0,0,0-.5-2.22,8.38,8.38,0,0,0-1-2,3.36,3.36,0,0,0-1.48-1.29,3.63,3.63,0,0,1-2.46.86,3.52,3.52,0,0,1-2.41-.93,3.88,3.88,0,0,1-1.3-2.28c-.9.33-1.83,1.54-2.77,3.64A18.66,18.66,0,0,0,451.5,419.75Z"/></g><g id="Layer_2" data-name="Layer 2"><g class="cls-18"><path class="cls-6" d="M537,58.55a33,33,0,0,0,37.3,48.19,96.82,96.82,0,0,0,182.53,25.82,46.33,46.33,0,0,0,49.42-7.09A46.38,46.38,0,0,0,888,139.75a93.58,93.58,0,0,0,64.28,24.94c30.91,0,58.17-14.38,74.37-36.28a46.36,46.36,0,0,0,72.8-36.33,46.37,46.37,0,0,0,66.19-.75,50.2,50.2,0,1,0,95.08-32.17A33.09,33.09,0,0,0,1259.89-7H543.56A33.1,33.1,0,0,0,537,58.55Z"/></g></g></svg>