<svg id="Layer_2" data-name="Layer 2" xmlns="http://www.w3.org/2000/svg" xmlns:xlink="http://www.w3.org/1999/xlink" viewBox="0 0 662 496"><defs><style>.cls-1{fill:none;}.cls-2{fill:#ffde94;}.cls-3{fill:#ffe9bd;}.cls-4,.cls-6{fill:#fff;}.cls-5{clip-path:url(#clip-path);}.cls-6{opacity:0.57;}.cls-7{fill:#fff6de;}.cls-8{fill:#fdb500;}.cls-9{fill:#ffcd19;}.cls-10{fill:#e5d439;}.cls-11{opacity:0.5;}.cls-12{fill:#ffca17;}.cls-13{fill:#fef045;}.cls-14{fill:#5d3c06;}.cls-15{fill:#f7a341;}.cls-16{clip-path:url(#clip-path-2);}.cls-17{opacity:0.71;}</style><clipPath id="clip-path"><ellipse class="cls-1" cx="334" cy="294.5" rx="308" ry="178.5"/></clipPath><clipPath id="clip-path-2"><path class="cls-1" d="M508.08,185.64c-.14,9.66-13.93,10.15-14.76.53-.11-1.22-2-.89-1.87.32a9.26,9.26,0,0,0,18.51-.68c0-1.21-1.86-1.39-1.88-.17Z"/></clipPath></defs><title>Greeting-afternoon</title><ellipse class="cls-2" cx="330.5" cy="280.5" rx="315.5" ry="196.5"/><ellipse class="cls-3" cx="328" cy="294.5" rx="306" ry="182.5"/><path class="cls-4" d="M464.28,139.71a6.55,6.55,0,0,0,.2-1.6,6.67,6.67,0,0,0-6.66-6.67,7.33,7.33,0,0,0-1.06.09,8.91,8.91,0,0,0-15.92-5,10.78,10.78,0,0,0-20.45-.7,6.67,6.67,0,0,0-10.29,5.59,10.78,10.78,0,0,0-.71,21.53v0h54.18a6.66,6.66,0,0,0,.71-13.29Z"/><g class="cls-5"><path class="cls-6" d="M711.47,377.45a33,33,0,0,0-37.3-48.19,96.82,96.82,0,0,0-182.53-25.82,46.33,46.33,0,0,0-49.42,7.09,46.39,46.39,0,0,0-81.82-14.28,93.54,93.54,0,0,0-64.28-24.94c-30.9,0-58.16,14.38-74.37,36.28A46.35,46.35,0,0,0,149,343.92a46.37,46.37,0,0,0-66.19.75,50.2,50.2,0,1,0-95.08,32.17A33.07,33.07,0,0,0-44.55,409.9,33.1,33.1,0,0,0-11.45,443H704.89a33.1,33.1,0,0,0,6.58-65.55Z"/><path class="cls-6" d="M-172,58.55a33,33,0,0,0-4.26,16.21,33.11,33.11,0,0,0,33.11,33.11,33.19,33.19,0,0,0,8.45-1.13,96.83,96.83,0,0,0,95.4,80.39,96.82,96.82,0,0,0,87.13-54.57,46.33,46.33,0,0,0,49.42-7.09A46.38,46.38,0,0,0,179,139.75a93.58,93.58,0,0,0,64.28,24.94c30.91,0,58.17-14.38,74.37-36.28a46.36,46.36,0,0,0,72.8-36.33,46.37,46.37,0,0,0,66.19-.75,50.2,50.2,0,1,0,95.08-32.17A33.09,33.09,0,0,0,550.89-7H-165.44a33.1,33.1,0,0,0-33.11,33.1A33.12,33.12,0,0,0-172,58.55Z"/></g><path class="cls-7" d="M655,405.39A71.53,71.53,0,0,0,570.64,335c0-.39,0-.77,0-1.16a47.36,47.36,0,0,0-93-12.53,47.21,47.21,0,0,0-28.73-14.72,109.91,109.91,0,1,0-217-24.63c0,1,.05,2.08.08,3.11a71.61,71.61,0,0,0-92,60,46.66,46.66,0,0,0-6.84-.51,47.38,47.38,0,0,0-46.89,40.72A47.36,47.36,0,1,0,71,477.36H589.08v-.62A71.58,71.58,0,0,0,655,405.39Z"/><path class="cls-4" d="M642.54,412.06c0-36.22-30.44-65.58-68-65.58a70.93,70.93,0,0,0-12.11,1.06c0-.36,0-.71,0-1.06,0-24-20.13-43.38-45-43.38-20.72,0-38.16,13.51-43.37,31.9a45.42,45.42,0,0,0-27.28-13.48A97.68,97.68,0,0,0,449.5,299c0-55.6-46.73-100.67-104.38-100.67S240.75,243.36,240.75,299c0,1,.05,1.9.07,2.85A70,70,0,0,0,221,299c-34.81,0-63.48,25.23-67.5,57.75a47.9,47.9,0,0,0-6.49-.46c-22.69,0-41.46,16.22-44.53,37.29a46.4,46.4,0,0,0-14.53-2.32c-24.84,0-45,19.42-45,43.38S63.1,478,87.94,478H580v-.57C615,474.76,642.54,446.53,642.54,412.06Z"/><path class="cls-8" d="M645,179.37l14-2.87-13.86-3.62C617.71,165.7,610,130.36,632,112.39l11.1-9.06-14,3.23c-27.67,6.42-50.92-21.3-39.79-47.43L595,46,584.11,55.3c-21.52,18.54-55,4.81-57.28-23.51l-1.15-14.28-5.27,13.33C510,57.26,474,60.65,458.77,36.64l-7.65-12.11,1.53,14.25c3,28.24-27.28,48-51.89,33.78l-12.4-7.16,8,11.9c15.81,23.6-1.85,55.17-30.24,54l-14.31-.58,12.59,6.83c25,13.55,24,49.71-1.67,61.89l-12.94,6.15,14.32.19c28.41.4,44.35,32.87,27.29,55.58l-8.61,11.45,12.78-6.48c25.33-12.85,54.54,8.49,50,36.53L443.23,317l8.3-11.67c16.46-23.16,52.24-17.83,61.24,9.11l4.53,13.59,1.93-14.19c3.81-28.15,38-40.06,58.46-20.39L588,303.4l-4.9-13.46c-9.7-26.7,15-53.12,42.29-45.22l13.76,4-10.59-9.64C607.58,219.93,617.19,185.05,645,179.37Z"/><path class="cls-9" d="M638.22,177.14l13.24-2.75-13-3.1c-25.85-6.15-32.87-37.9-12-54.36l10.52-8.29-13.17,3.08c-26.13,6.11-47.84-18.59-37.17-42.27l5.38-12-10.29,8.56c-20.41,17-51.85,5-53.81-20.51l-1-12.85-5,12.06c-10,23.93-44,27.41-58.13,6L456.58,39.9l1.34,12.82c2.66,25.41-26,43.55-49.13,31.05l-11.64-6.31,7.43,10.63c14.74,21.08-2.14,49.73-28.88,49l-13.48-.35,11.82,6c23.43,11.91,22.26,44.51-2,55.79l-12.24,5.69h13.5c26.76,0,41.56,29.09,25.32,49.75l-8.19,10.43,12.08-6c24-11.87,51.34,7,46.85,32.33l-2.26,12.77,7.9-10.62c15.68-21.05,49.36-16.67,57.65,7.5l4.18,12.19,1.91-12.82c3.79-25.41,36.06-36.54,55.24-19.05l9.66,8.82-4.51-12.08c-9-23.94,14.51-48,40.17-41.24l12.93,3.43-9.91-8.57C602.66,214.13,612,182.59,638.22,177.14Z"/><ellipse class="cls-10" cx="498.87" cy="174.02" rx="92.15" ry="92.07" transform="translate(-5.93 18.04) rotate(-2.06)"/><g class="cls-11"><path class="cls-4" d="M547.54,43.58s2.08-5.43,2-5.45-2.08,5.44-2,5.45Z"/></g><circle class="cls-12" cx="501.52" cy="171.33" r="101.83"/><ellipse class="cls-13" cx="501.43" cy="174.18" rx="98.13" ry="98.04" transform="translate(-5.93 18.13) rotate(-2.06)"/><circle class="cls-14" cx="449.48" cy="163.72" r="14.8"/><circle class="cls-4" cx="443.57" cy="157.65" r="4.34"/><circle class="cls-14" cx="554.98" cy="159.93" r="14.8"/><circle class="cls-4" cx="549.07" cy="153.86" r="4.34"/><ellipse class="cls-15" cx="448.32" cy="189.8" rx="15.7" ry="5.83" transform="translate(-6.53 16.23) rotate(-2.06)"/><ellipse class="cls-15" cx="555.91" cy="185.93" rx="15.7" ry="5.83" transform="matrix(1, -0.04, 0.04, 1, -6.32, 20.09)"/><g class="cls-16"><rect class="cls-1" x="505.78" y="177.97" width="6.61" height="6.61" transform="translate(-6.18 18.41) rotate(-2.06)"/><rect class="cls-14" x="505.78" y="177.97" width="6.61" height="6.61" transform="translate(-6.18 18.41) rotate(-2.06)"/><rect class="cls-1" x="506.02" y="184.58" width="6.61" height="6.61" transform="translate(-6.42 18.42) rotate(-2.06)"/><rect class="cls-14" x="506.02" y="184.58" width="6.61" height="6.61" transform="translate(-6.42 18.42) rotate(-2.06)"/><rect class="cls-1" x="506.26" y="191.19" width="6.61" height="6.61" transform="translate(-6.66 18.43) rotate(-2.06)"/><rect class="cls-14" x="506.26" y="191.19" width="6.61" height="6.61" transform="translate(-6.66 18.43) rotate(-2.06)"/><rect class="cls-1" x="499.17" y="178.21" width="6.61" height="6.61" transform="translate(-6.2 18.17) rotate(-2.06)"/><rect class="cls-14" x="499.17" y="178.21" width="6.61" height="6.61" transform="translate(-6.2 18.17) rotate(-2.06)"/><rect class="cls-1" x="499.41" y="184.82" width="6.61" height="6.61" transform="translate(-6.43 18.18) rotate(-2.06)"/><rect class="cls-14" x="499.41" y="184.82" width="6.61" height="6.61" transform="translate(-6.43 18.18) rotate(-2.06)"/><rect class="cls-1" x="499.65" y="191.43" width="6.61" height="6.61" transform="translate(-6.67 18.2) rotate(-2.06)"/><rect class="cls-14" x="499.65" y="191.43" width="6.61" height="6.61" transform="translate(-6.67 18.2) rotate(-2.06)"/><rect class="cls-1" x="499.89" y="198.04" width="6.61" height="6.61" transform="translate(-6.91 18.21) rotate(-2.06)"/><rect class="cls-14" x="499.89" y="198.04" width="6.61" height="6.61" transform="translate(-6.91 18.21) rotate(-2.06)"/><rect class="cls-1" x="492.56" y="178.44" width="6.61" height="6.61" transform="translate(-6.21 17.93) rotate(-2.06)"/><rect class="cls-14" x="492.56" y="178.44" width="6.61" height="6.61" transform="translate(-6.21 17.93) rotate(-2.06)"/><rect class="cls-1" x="492.8" y="185.05" width="6.61" height="6.61" transform="translate(-6.45 17.95) rotate(-2.06)"/><rect class="cls-14" x="492.8" y="185.05" width="6.61" height="6.61" transform="translate(-6.45 17.95) rotate(-2.06)"/><rect class="cls-1" x="493.04" y="191.66" width="6.61" height="6.61" transform="translate(-6.68 17.96) rotate(-2.06)"/><rect class="cls-14" x="493.04" y="191.66" width="6.61" height="6.61" transform="translate(-6.68 17.96) rotate(-2.06)"/><rect class="cls-1" x="485.95" y="178.68" width="6.61" height="6.61" transform="translate(-6.22 17.7) rotate(-2.06)"/><rect class="cls-14" x="485.95" y="178.68" width="6.61" height="6.61" transform="translate(-6.22 17.7) rotate(-2.06)"/><rect class="cls-1" x="486.19" y="185.29" width="6.61" height="6.61" transform="translate(-6.46 17.71) rotate(-2.06)"/><rect class="cls-14" x="486.19" y="185.29" width="6.61" height="6.61" transform="translate(-6.46 17.71) rotate(-2.06)"/><rect class="cls-1" x="486.43" y="191.9" width="6.61" height="6.61" transform="translate(-6.7 17.72) rotate(-2.06)"/><rect class="cls-14" x="486.43" y="191.9" width="6.61" height="6.61" transform="translate(-6.7 17.72) rotate(-2.06)"/></g><g class="cls-17"><path class="cls-4" d="M431.82,231.16c4.7,1.76,7.44-5.55,2.73-7.31s-7.44,5.55-2.73,7.31Z"/></g><g class="cls-17"><path class="cls-4" d="M439.06,240.13a29.7,29.7,0,0,0,13.44,9c4.77,1.54,7.53-5.76,2.74-7.31a21.83,21.83,0,0,1-10.13-6.63c-3.28-3.8-9.33,1.12-6.05,4.93Z"/></g><path class="cls-9" d="M298.16,296.83a3.55,3.55,0,0,1-3.47,3.48,3.41,3.41,0,0,1-2.09-.69q-3.83-3-7-2.79a6.13,6.13,0,0,0-4.47,1.92,16.93,16.93,0,0,0-3.3,4.92,42,42,0,0,0-2.38,6.67c-.65,2.43-1.18,4.81-1.56,7.13s-.66,4.48-.81,6.49-.23,3.59-.23,4.75c0,1.62.13,3.87.4,6.72a48.2,48.2,0,0,0,1.57,8.47,23.44,23.44,0,0,0,3.36,7.3,7,7,0,0,0,5.68,3.24,8.55,8.55,0,0,0,5-1.62,21.46,21.46,0,0,0,4.29-4,34.75,34.75,0,0,0,3.48-5q1.5-2.67,2.55-4.75l-5.62,1.16q-2.85.57-5.74.92a22.1,22.1,0,0,1-3.48.35,6.09,6.09,0,0,1-3.19-.87,3.06,3.06,0,0,1-1.45-2.84,3.59,3.59,0,0,1,3.48-3.48,3.68,3.68,0,0,1,1.16.24c.31,0,1.22-.1,2.72-.29s4.16-.68,8-1.45c1.23-.31,2.39-.58,3.47-.81s2.05-.43,2.9-.58,1.93-.47,2.78-.7a1.27,1.27,0,0,0,.41-.06,1.22,1.22,0,0,1,.4-.05,3.28,3.28,0,0,1,2.5,1,3.45,3.45,0,0,1,1,2.43,9.29,9.29,0,0,1-.75,2.9c-.51,1.31-1.1,2.69-1.8,4.12s-1.39,2.78-2.09,4.05-1.19,2.15-1.5,2.61a44.34,44.34,0,0,1-3.25,4.87,28.33,28.33,0,0,1-4.11,4.35,23.07,23.07,0,0,1-4.93,3.18,13.28,13.28,0,0,1-5.8,1.28,20.08,20.08,0,0,1-11.47-3.19,25.11,25.11,0,0,1-7.71-8.17,38.37,38.37,0,0,1-4.35-11,52.93,52.93,0,0,1-1.39-11.83,57.92,57.92,0,0,1,1.45-12.57,42,42,0,0,1,4.64-12.06,28.66,28.66,0,0,1,8.23-9.1,20.54,20.54,0,0,1,12.23-3.59,16,16,0,0,1,3.3.46,21.92,21.92,0,0,1,4.06,1.39,14.29,14.29,0,0,1,3.48,2.21A3.78,3.78,0,0,1,298.16,296.83Z"/><path class="cls-9" d="M328.76,323.38a3.51,3.51,0,0,1,2.15.64,2.88,2.88,0,0,1,1.1,1.33h.93a8.73,8.73,0,0,1,5.27,1.56,11.53,11.53,0,0,1,3.42,4,20,20,0,0,1,1.86,5.34,28.25,28.25,0,0,1,.58,5.44,29.2,29.2,0,0,1-.82,6.61,20.38,20.38,0,0,1-2.66,6.38,15.53,15.53,0,0,1-4.93,4.81,13.92,13.92,0,0,1-7.47,1.91,17.37,17.37,0,0,1-6.61-1.28,16.55,16.55,0,0,1-9.28-9.27,19.65,19.65,0,0,1-1.39-7.53,22,22,0,0,1,1.28-7.42,20.14,20.14,0,0,1,3.65-6.38,18.34,18.34,0,0,1,5.68-4.46A15.74,15.74,0,0,1,328.76,323.38Zm3.6,8.92a3.65,3.65,0,0,1-3.36-2.08c-.78,0-1.45.6-2,1.79a18.78,18.78,0,0,0-1.39,4.06c-.35,1.51-.62,3-.81,4.46a26.76,26.76,0,0,0-.29,2.9c0,.31,0,1,.11,2.2a19.65,19.65,0,0,0,.64,3.71,10.34,10.34,0,0,0,1.68,3.54,3.8,3.8,0,0,0,3.25,1.56,4.38,4.38,0,0,0,3.3-1.39,10.43,10.43,0,0,0,2.14-3.42,19.45,19.45,0,0,0,1.16-4.23,23.9,23.9,0,0,0,.35-3.82,26.85,26.85,0,0,0-.17-2.73,13.32,13.32,0,0,0-.7-3,7.46,7.46,0,0,0-1.45-2.49A3.09,3.09,0,0,0,332.36,332.3Z"/><path class="cls-9" d="M365,323.38a3.51,3.51,0,0,1,2.15.64,2.88,2.88,0,0,1,1.1,1.33h.93a8.73,8.73,0,0,1,5.27,1.56,11.53,11.53,0,0,1,3.42,4,20,20,0,0,1,1.86,5.34,28.25,28.25,0,0,1,.58,5.44,29.2,29.2,0,0,1-.82,6.61,20.38,20.38,0,0,1-2.66,6.38,15.53,15.53,0,0,1-4.93,4.81,13.92,13.92,0,0,1-7.47,1.91,17.37,17.37,0,0,1-6.61-1.28,16.55,16.55,0,0,1-9.28-9.27,19.65,19.65,0,0,1-1.39-7.53,22,22,0,0,1,1.28-7.42,20.14,20.14,0,0,1,3.65-6.38,18.34,18.34,0,0,1,5.68-4.46A15.74,15.74,0,0,1,365,323.38Zm3.6,8.92a3.65,3.65,0,0,1-3.36-2.08c-.78,0-1.45.6-2,1.79a19.33,19.33,0,0,0-1.39,4.06c-.35,1.51-.62,3-.81,4.46a26.76,26.76,0,0,0-.29,2.9c0,.31,0,1,.11,2.2a19.65,19.65,0,0,0,.64,3.71,10.34,10.34,0,0,0,1.68,3.54,3.8,3.8,0,0,0,3.25,1.56,4.38,4.38,0,0,0,3.3-1.39,10.43,10.43,0,0,0,2.14-3.42A19.45,19.45,0,0,0,373,345.4a23.9,23.9,0,0,0,.35-3.82,26.85,26.85,0,0,0-.17-2.73,13.32,13.32,0,0,0-.7-3,7.46,7.46,0,0,0-1.45-2.49A3.09,3.09,0,0,0,368.64,332.3Z"/><path class="cls-9" d="M396.69,361.4a14.54,14.54,0,0,1-10.38-3.77,13.14,13.14,0,0,1-4-10,17.93,17.93,0,0,1,1.69-7.76,21.23,21.23,0,0,1,4.46-6.32,19.86,19.86,0,0,1,6.49-4.23,20.52,20.52,0,0,1,7.77-1.51,16.11,16.11,0,0,1,5.1.81V309.47q0-6.84.58-13.8a18.38,18.38,0,0,1,.86-3.82c.43-1.24,1.45-1.85,3.08-1.85a5.76,5.76,0,0,1,1.91.46,4.9,4.9,0,0,1,2.26,2.2,16.71,16.71,0,0,1,1.74,4.87c.46,2.09.87,4.42,1.21,7s.62,5.33.82,8.23.34,5.66.46,8.29.19,5,.23,7.24.06,4,.06,5.28a151.56,151.56,0,0,1-1,19.82c-.16.93-.35,2.05-.58,3.36a19.43,19.43,0,0,1-1.05,3.77,9,9,0,0,1-1.85,3,4.13,4.13,0,0,1-3.13,1.22,3.26,3.26,0,0,1-2.09-.64A4.35,4.35,0,0,1,410,362.5a9.69,9.69,0,0,1-.7-2.09c-.15-.73-.27-1.45-.35-2.14a10.57,10.57,0,0,1-.28-2.09q-.06-1.15-.18-2.55a25.44,25.44,0,0,1-5,5.39A10.49,10.49,0,0,1,396.69,361.4Zm-1.05-11.59V351a9.51,9.51,0,0,0,.12,1.51,5.85,5.85,0,0,0,.35,1.33c.15.39.35.58.58.58a5.22,5.22,0,0,0,3.65-1.79,23.34,23.34,0,0,0,3.36-4.35,39.55,39.55,0,0,0,2.67-5.16q1.1-2.61,1.56-4.11v-2.78a10.35,10.35,0,0,0-5.1-1.51,4,4,0,0,0-3.13,1.8,14.84,14.84,0,0,0-2.26,4.28,33.88,33.88,0,0,0-1.33,5.05A23.72,23.72,0,0,0,395.64,349.81Z"/><path class="cls-8" d="M296.16,295.83a3.55,3.55,0,0,1-3.47,3.48,3.41,3.41,0,0,1-2.09-.69q-3.83-3-7-2.79a6.13,6.13,0,0,0-4.47,1.92,16.93,16.93,0,0,0-3.3,4.92,42,42,0,0,0-2.38,6.67c-.65,2.43-1.18,4.81-1.56,7.13s-.66,4.48-.81,6.49-.23,3.59-.23,4.75c0,1.62.13,3.87.4,6.72a48.2,48.2,0,0,0,1.57,8.47,23.44,23.44,0,0,0,3.36,7.3,7,7,0,0,0,5.68,3.24,8.55,8.55,0,0,0,5-1.62,21.46,21.46,0,0,0,4.29-4,34.75,34.75,0,0,0,3.48-5q1.5-2.67,2.55-4.75l-5.62,1.16q-2.85.57-5.74.92a22.1,22.1,0,0,1-3.48.35,6.09,6.09,0,0,1-3.19-.87,3.06,3.06,0,0,1-1.45-2.84,3.59,3.59,0,0,1,3.48-3.48,3.68,3.68,0,0,1,1.16.24c.31,0,1.22-.1,2.72-.29s4.16-.68,8-1.45c1.23-.31,2.39-.58,3.47-.81s2.05-.43,2.9-.58,1.93-.47,2.78-.7a1.27,1.27,0,0,0,.41-.06,1.22,1.22,0,0,1,.4-.05,3.28,3.28,0,0,1,2.5,1,3.45,3.45,0,0,1,1,2.43,9.29,9.29,0,0,1-.75,2.9c-.51,1.31-1.1,2.69-1.8,4.12s-1.39,2.78-2.09,4.05-1.19,2.15-1.5,2.61a44.34,44.34,0,0,1-3.25,4.87,28.33,28.33,0,0,1-4.11,4.35,23.07,23.07,0,0,1-4.93,3.18,13.28,13.28,0,0,1-5.8,1.28,20.08,20.08,0,0,1-11.47-3.19,25.11,25.11,0,0,1-7.71-8.17,38.37,38.37,0,0,1-4.35-11,52.93,52.93,0,0,1-1.39-11.83,57.92,57.92,0,0,1,1.45-12.57,42,42,0,0,1,4.64-12.06,28.66,28.66,0,0,1,8.23-9.1,20.54,20.54,0,0,1,12.23-3.59,16,16,0,0,1,3.3.46,21.92,21.92,0,0,1,4.06,1.39,14.29,14.29,0,0,1,3.48,2.21A3.78,3.78,0,0,1,296.16,295.83Z"/><path class="cls-8" d="M326.76,322.38a3.51,3.51,0,0,1,2.15.64,2.88,2.88,0,0,1,1.1,1.33h.93a8.73,8.73,0,0,1,5.27,1.56,11.53,11.53,0,0,1,3.42,4,20,20,0,0,1,1.86,5.34,28.25,28.25,0,0,1,.58,5.44,29.2,29.2,0,0,1-.82,6.61,20.38,20.38,0,0,1-2.66,6.38,15.53,15.53,0,0,1-4.93,4.81,13.92,13.92,0,0,1-7.47,1.91,17.37,17.37,0,0,1-6.61-1.28,16.55,16.55,0,0,1-9.28-9.27,19.65,19.65,0,0,1-1.39-7.53,22,22,0,0,1,1.28-7.42,20.14,20.14,0,0,1,3.65-6.38,18.34,18.34,0,0,1,5.68-4.46A15.74,15.74,0,0,1,326.76,322.38Zm3.6,8.92a3.65,3.65,0,0,1-3.36-2.08c-.78,0-1.45.6-2,1.79a18.78,18.78,0,0,0-1.39,4.06c-.35,1.51-.62,3-.81,4.46a26.76,26.76,0,0,0-.29,2.9c0,.31,0,1,.11,2.2a19.65,19.65,0,0,0,.64,3.71,10.34,10.34,0,0,0,1.68,3.54,3.8,3.8,0,0,0,3.25,1.56,4.38,4.38,0,0,0,3.3-1.39,10.43,10.43,0,0,0,2.14-3.42,19.45,19.45,0,0,0,1.16-4.23,23.9,23.9,0,0,0,.35-3.82,26.85,26.85,0,0,0-.17-2.73,13.32,13.32,0,0,0-.7-3,7.46,7.46,0,0,0-1.45-2.49A3.09,3.09,0,0,0,330.36,331.3Z"/><path class="cls-8" d="M363,322.38a3.51,3.51,0,0,1,2.15.64,2.88,2.88,0,0,1,1.1,1.33h.93a8.73,8.73,0,0,1,5.27,1.56,11.53,11.53,0,0,1,3.42,4,20,20,0,0,1,1.86,5.34,28.25,28.25,0,0,1,.58,5.44,29.2,29.2,0,0,1-.82,6.61,20.38,20.38,0,0,1-2.66,6.38,15.53,15.53,0,0,1-4.93,4.81,13.92,13.92,0,0,1-7.47,1.91,17.37,17.37,0,0,1-6.61-1.28,16.55,16.55,0,0,1-9.28-9.27,19.65,19.65,0,0,1-1.39-7.53,22,22,0,0,1,1.28-7.42,20.14,20.14,0,0,1,3.65-6.38,18.34,18.34,0,0,1,5.68-4.46A15.74,15.74,0,0,1,363,322.38Zm3.6,8.92a3.65,3.65,0,0,1-3.36-2.08c-.78,0-1.45.6-2,1.79a19.33,19.33,0,0,0-1.39,4.06c-.35,1.51-.62,3-.81,4.46a26.76,26.76,0,0,0-.29,2.9c0,.31,0,1,.11,2.2a19.65,19.65,0,0,0,.64,3.71,10.34,10.34,0,0,0,1.68,3.54,3.8,3.8,0,0,0,3.25,1.56,4.38,4.38,0,0,0,3.3-1.39,10.43,10.43,0,0,0,2.14-3.42A19.45,19.45,0,0,0,371,344.4a23.9,23.9,0,0,0,.35-3.82,26.85,26.85,0,0,0-.17-2.73,13.32,13.32,0,0,0-.7-3,7.46,7.46,0,0,0-1.45-2.49A3.09,3.09,0,0,0,366.64,331.3Z"/><path class="cls-8" d="M394.69,360.4a14.54,14.54,0,0,1-10.38-3.77,13.14,13.14,0,0,1-4-10,17.93,17.93,0,0,1,1.69-7.76,21.23,21.23,0,0,1,4.46-6.32,19.86,19.86,0,0,1,6.49-4.23,20.52,20.52,0,0,1,7.77-1.51,16.11,16.11,0,0,1,5.1.81V308.47q0-6.84.58-13.8a18.38,18.38,0,0,1,.86-3.82c.43-1.24,1.45-1.85,3.08-1.85a5.76,5.76,0,0,1,1.91.46,4.9,4.9,0,0,1,2.26,2.2,16.71,16.71,0,0,1,1.74,4.87c.46,2.09.87,4.42,1.21,7s.62,5.33.82,8.23.34,5.66.46,8.29.19,5,.23,7.24.06,4,.06,5.28a151.56,151.56,0,0,1-1,19.82c-.16.93-.35,2.05-.58,3.36a19.43,19.43,0,0,1-1.05,3.77,9,9,0,0,1-1.85,3,4.13,4.13,0,0,1-3.13,1.22,3.26,3.26,0,0,1-2.09-.64A4.35,4.35,0,0,1,408,361.5a9.69,9.69,0,0,1-.7-2.09c-.15-.73-.27-1.45-.35-2.14a10.57,10.57,0,0,1-.28-2.09q-.06-1.15-.18-2.55a25.44,25.44,0,0,1-5,5.39A10.49,10.49,0,0,1,394.69,360.4Zm-1.05-11.59V350a9.51,9.51,0,0,0,.12,1.51,5.85,5.85,0,0,0,.35,1.33c.15.39.35.58.58.58a5.22,5.22,0,0,0,3.65-1.79,23.34,23.34,0,0,0,3.36-4.35,39.55,39.55,0,0,0,2.67-5.16q1.1-2.61,1.56-4.11v-2.78a10.35,10.35,0,0,0-5.1-1.51,4,4,0,0,0-3.13,1.8,14.84,14.84,0,0,0-2.26,4.28,33.88,33.88,0,0,0-1.33,5.05A23.72,23.72,0,0,0,393.64,348.81Z"/><path class="cls-9" d="M218.27,441.85a3.48,3.48,0,0,1-1.11,2.32,3.31,3.31,0,0,1-2.37.93,4.76,4.76,0,0,1-3.48-1.39,11,11,0,0,1-2.26-3.36,18.25,18.25,0,0,1-1.27-4.18c-.28-1.46-.49-2.7-.64-3.71q-.46-3.7-.64-8c-.12-2.9-.21-6-.29-9.22l-4.87.76-5.39.81c-1.81.27-3.57.5-5.27.69l-4.52.52a130.33,130.33,0,0,0-.7,13.1,58.29,58.29,0,0,0,.35,6.61,4.06,4.06,0,0,1-.93,2.72,3.14,3.14,0,0,1-2.55,1.1,3.31,3.31,0,0,1-2.26-.86,3.76,3.76,0,0,1-1.22-2.27,67.57,67.57,0,0,1-.34-7.3c0-2.08.13-5,.4-8.86s.72-8,1.34-12.52,1.46-9.14,2.55-13.86A71.59,71.59,0,0,1,187,383a33.47,33.47,0,0,1,6-9.45,10.69,10.69,0,0,1,8.05-3.65,10.42,10.42,0,0,1,7.6,3,23.33,23.33,0,0,1,5,7.77,53.38,53.38,0,0,1,3.07,10.61c.73,3.9,1.28,7.78,1.62,11.65s.54,7.43.58,10.72.06,5.93.06,7.94q0,4.17-.12,7.82c-.07,2.44-.15,4.54-.23,6.32s-.15,3.23-.23,4.35S218.27,441.78,218.27,441.85Zm-31.3-31,4.35-.52c1.58-.19,3.22-.4,4.92-.64s3.38-.5,5-.81,3.23-.58,4.7-.81q-.12-6-.41-11.71t-1-10.31c-.08-.31-.22-1-.41-2s-.44-2.05-.75-3.13a17.39,17.39,0,0,0-1.1-2.9c-.43-.85-.87-1.27-1.34-1.27a4.86,4.86,0,0,0-3.7,2.08A23.76,23.76,0,0,0,194,384.3a58.12,58.12,0,0,0-2.72,7.3c-.82,2.67-1.51,5.28-2.09,7.83s-1.06,4.85-1.45,6.9S187.12,409.9,187,410.9Z"/><path class="cls-9" d="M233.33,441.62a5.54,5.54,0,0,1-4.23-2,16,16,0,0,1-3-5.1,37.54,37.54,0,0,1-1.91-7q-.7-3.89-1.1-7.54c-.28-2.43-.45-4.67-.53-6.72s-.11-3.61-.11-4.7c0-2,.07-4.36.23-7.07a69.54,69.54,0,0,1,1-8.28,63.72,63.72,0,0,1,2.09-8.35,30.13,30.13,0,0,1,3.48-7.36,17.87,17.87,0,0,1,5.21-5.22,13.18,13.18,0,0,1,7.25-2,14.19,14.19,0,0,1,2.72.35,14,14,0,0,1,3.25,1.1,10.43,10.43,0,0,1,2.66,1.8,3.24,3.24,0,0,1,1.11,2.43,3.44,3.44,0,0,1-1,2.44,3.3,3.3,0,0,1-2.49,1,2.82,2.82,0,0,1-1.86-.58,8.71,8.71,0,0,0-4.52-1.62,2.63,2.63,0,0,0-2.2,1.62,15.43,15.43,0,0,0-1.51,4.12,50.34,50.34,0,0,0-.92,5.5q-.36,3-.52,5.8t-.24,5c0,1.51,0,2.57,0,3.19q0,5.79.34,11.36c1.47-.08,2.8-.18,4-.29a19.75,19.75,0,0,0,2.73-.41,2.18,2.18,0,0,1,1.15-.23,3.45,3.45,0,0,1,2.84,5.45,3.17,3.17,0,0,1-1.68,1.27,14.6,14.6,0,0,1-3.82.81c-1.55.16-3.17.28-4.87.35q.23,3.48.41,7c.11,2.32.17,4.63.17,6.95,0,.7,0,1.45-.12,2.26a7.54,7.54,0,0,1-.52,2.21,4.47,4.47,0,0,1-1.21,1.68A3.32,3.32,0,0,1,233.33,441.62Z"/><path class="cls-9" d="M271.7,375.67a45,45,0,0,1,.35,6.49q.22,3.94.29,9t.06,10.66v2.32a5.41,5.41,0,0,0,2-.35,3.93,3.93,0,0,1,1.16-.23,3.3,3.3,0,0,1,2.49,1,3.47,3.47,0,0,1,1,2.44,3.13,3.13,0,0,1-.69,2.09,4.47,4.47,0,0,1-1.68,1.21,9.06,9.06,0,0,1-2.15.58c-.77.12-1.5.22-2.2.29q0,6-.17,12.06t-.87,12.05c-.08.7-.2,1.41-.35,2.15a8.45,8.45,0,0,1-.7,2,4,4,0,0,1-1.27,1.51,3.49,3.49,0,0,1-2.09.58,5.22,5.22,0,0,1-2.61-.87,6.91,6.91,0,0,1-2.49-3.53,33,33,0,0,1-1.33-5.68q-.52-3.36-.81-7c-.2-2.39-.31-4.71-.35-6.95s-.06-4.18-.06-5.8v-.46c-.93,0-1.7,0-2.32-.06l-1-.06a3.54,3.54,0,0,1-2.38-1.16,3.23,3.23,0,0,1-.87-2.55,3.61,3.61,0,0,1,1.16-2.37,3.18,3.18,0,0,1,2.55-.87h.82a14.49,14.49,0,0,0,2.2.11q.1-3.24.23-6.89t.46-7.36c.23-2.48.54-4.91.93-7.31a54.51,54.51,0,0,1,1.51-6.72,10.65,10.65,0,0,1,.69-2.09,10.81,10.81,0,0,1,1.1-1.91,5.72,5.72,0,0,1,1.57-1.45,3.91,3.91,0,0,1,2.09-.58c1.62,0,2.64.62,3.07,1.86A14.31,14.31,0,0,1,271.7,375.67Z"/><path class="cls-9" d="M281.21,423.08a21.89,21.89,0,0,1,1.27-7.48,18.86,18.86,0,0,1,3.65-6.2,17.39,17.39,0,0,1,13.27-5.8,13.17,13.17,0,0,1,8,2.55,8.62,8.62,0,0,1,3.48,7.42,11.27,11.27,0,0,1-1.33,5.45,13,13,0,0,1-3.54,4.11,17.44,17.44,0,0,1-4.87,2.61,16.37,16.37,0,0,1-5.44.93,3.85,3.85,0,0,1-1.05-.23c.08.54.23,1.29.47,2.26a15.53,15.53,0,0,0,.92,2.72,10.13,10.13,0,0,0,1.39,2.26,2.47,2.47,0,0,0,2,1,8.32,8.32,0,0,0,4.76-1.51,9.07,9.07,0,0,0,3.24-3.83,3.2,3.2,0,0,1,3.13-2.08,3.27,3.27,0,0,1,2.49,1,3.44,3.44,0,0,1,1,2.44,6.6,6.6,0,0,1-.23,1.39,15,15,0,0,0-.93,1.62A14.32,14.32,0,0,1,310.3,437a19,19,0,0,1-4.4,3.19,13.16,13.16,0,0,1-6.38,1.45,19.47,19.47,0,0,1-7.53-1.39,16.51,16.51,0,0,1-5.74-3.88,17.76,17.76,0,0,1-3.71-5.91A20.08,20.08,0,0,1,281.21,423.08Zm18.19-12.52a2.51,2.51,0,0,0-2,1.1,9.49,9.49,0,0,0-1.45,2.66,24.76,24.76,0,0,0-.93,3.07,23.82,23.82,0,0,0-.46,2.44,3.89,3.89,0,0,1,1.16-.12c2.7,0,4.75-.67,6.14-2a5.74,5.74,0,0,0,2.09-4,2.47,2.47,0,0,0-1.51-2.5A7.79,7.79,0,0,0,299.4,410.56Z"/><path class="cls-9" d="M338.7,424.12q0-.93.12-2.67c.07-1.16.15-2.28.23-3.36s.11-2,.11-2.84-.08-1.22-.23-1.22q-1.86,0-3.36,2.9a41.19,41.19,0,0,0-2.72,6.78c-.82,2.59-1.51,5.18-2.09,7.77s-1.06,4.58-1.45,6a8.5,8.5,0,0,1-1.45,2.9,3.37,3.37,0,0,1-2.84,1.27,5.17,5.17,0,0,1-4.11-1.8,11.25,11.25,0,0,1-2.32-4.34,26.44,26.44,0,0,1-1-5.33c-.15-1.86-.23-3.4-.23-4.64s.1-3.19.29-5.62a46,46,0,0,1,1.16-7.25,20,20,0,0,1,2.61-6.26,5.31,5.31,0,0,1,4.63-2.66,3,3,0,0,1,2.44,1,6.78,6.78,0,0,1,1.22,2.38,12,12,0,0,1,.46,2.9c0,1,.1,1.85.17,2.55a18.5,18.5,0,0,1,3.77-3.83,8.13,8.13,0,0,1,5-1.62,12.19,12.19,0,0,1,9.16,3.59A12.79,12.79,0,0,1,351.8,420a16.16,16.16,0,0,1-.47,3.7,12.19,12.19,0,0,1-1.45,3.6,9.13,9.13,0,0,1-2.49,2.72,5.87,5.87,0,0,1-3.59,1.1q-3,0-4.06-2.2A11,11,0,0,1,338.7,424.12Z"/><path class="cls-9" d="M376.72,426.78c0-.77,0-1.87.11-3.3s.1-2.84.06-4.23a30.21,30.21,0,0,0-.29-3.65c-.15-1.05-.46-1.57-.93-1.57a3.08,3.08,0,0,0-2.37,1.39,15.38,15.38,0,0,0-2,3.6,40.3,40.3,0,0,0-1.68,4.92c-.5,1.82-1,3.58-1.39,5.28s-.78,3.28-1,4.75-.53,2.59-.76,3.36a8.41,8.41,0,0,1-1.45,2.9,3.36,3.36,0,0,1-2.84,1.27,5.17,5.17,0,0,1-4.11-1.79,11.51,11.51,0,0,1-2.32-4.35,27.15,27.15,0,0,1-1-5.33c-.15-1.86-.23-3.4-.23-4.64s.1-3.18.29-5.62a45.86,45.86,0,0,1,1.16-7.24,19.1,19.1,0,0,1,2.61-6.2,5.33,5.33,0,0,1,4.64-2.61,3.08,3.08,0,0,1,2.43.92,6.11,6.11,0,0,1,1.22,2.32,12.11,12.11,0,0,1,.46,2.9c0,1,.1,1.89.18,2.67a16.83,16.83,0,0,1,3.7-3.89,8,8,0,0,1,5-1.68,11.53,11.53,0,0,1,6.66,1.86,15,15,0,0,1,4.47,4.75,21.06,21.06,0,0,1,2.49,6.38,31.81,31.81,0,0,1,.75,6.72,33.12,33.12,0,0,1-.35,4.46,18.79,18.79,0,0,1-1.33,4.93,12.43,12.43,0,0,1-2.61,3.94,5.64,5.64,0,0,1-4.17,1.62,3.89,3.89,0,0,1-3.54-1.74,12,12,0,0,1-1.56-4.17,20.82,20.82,0,0,1-.35-4.93C376.68,429.12,376.72,427.79,376.72,426.78Z"/><path class="cls-9" d="M411.26,403.6a3.46,3.46,0,0,1,2.14.64,2.91,2.91,0,0,1,1.11,1.33h.92a8.67,8.67,0,0,1,5.28,1.57,11.35,11.35,0,0,1,3.42,4,19.88,19.88,0,0,1,1.85,5.33,27.58,27.58,0,0,1,.58,5.45,29.15,29.15,0,0,1-.81,6.6,20.17,20.17,0,0,1-2.67,6.38,15.5,15.5,0,0,1-4.92,4.81,13.93,13.93,0,0,1-7.48,1.91,17.36,17.36,0,0,1-6.61-1.27,16.92,16.92,0,0,1-5.5-3.6,16.6,16.6,0,0,1-3.77-5.68,19.47,19.47,0,0,1-1.39-7.53,22,22,0,0,1,1.27-7.42,20.08,20.08,0,0,1,3.66-6.38,18.23,18.23,0,0,1,5.68-4.46A15.72,15.72,0,0,1,411.26,403.6Zm3.59,8.93a3.66,3.66,0,0,1-3.36-2.09c-.77,0-1.45.6-2,1.8a19.44,19.44,0,0,0-1.39,4.05q-.52,2.26-.81,4.47c-.19,1.47-.29,2.43-.29,2.89s0,1.05.12,2.21a19.73,19.73,0,0,0,.63,3.71,10.21,10.21,0,0,0,1.69,3.53,3.81,3.81,0,0,0,3.24,1.57,4.44,4.44,0,0,0,3.31-1.39,10.7,10.7,0,0,0,2.14-3.42,19.7,19.7,0,0,0,1.16-4.24,25.12,25.12,0,0,0,.35-3.82,24.18,24.18,0,0,0-.18-2.72,13.26,13.26,0,0,0-.69-3,7.66,7.66,0,0,0-1.45-2.49A3.09,3.09,0,0,0,414.85,412.53Z"/><path class="cls-9" d="M447.54,403.6a3.46,3.46,0,0,1,2.14.64,2.91,2.91,0,0,1,1.11,1.33h.92a8.67,8.67,0,0,1,5.28,1.57,11.35,11.35,0,0,1,3.42,4,19.88,19.88,0,0,1,1.85,5.33,27.58,27.58,0,0,1,.58,5.45,29.15,29.15,0,0,1-.81,6.6,20.17,20.17,0,0,1-2.67,6.38,15.5,15.5,0,0,1-4.92,4.81,13.93,13.93,0,0,1-7.48,1.91,17.36,17.36,0,0,1-6.61-1.27,16.92,16.92,0,0,1-5.5-3.6,16.6,16.6,0,0,1-3.77-5.68,19.47,19.47,0,0,1-1.39-7.53,22,22,0,0,1,1.27-7.42,20.08,20.08,0,0,1,3.66-6.38,18.23,18.23,0,0,1,5.68-4.46A15.72,15.72,0,0,1,447.54,403.6Zm3.59,8.93a3.67,3.67,0,0,1-3.36-2.09c-.77,0-1.45.6-2,1.8a19.44,19.44,0,0,0-1.39,4.05q-.53,2.26-.81,4.47c-.19,1.47-.29,2.43-.29,2.89s0,1.05.12,2.21a19.73,19.73,0,0,0,.63,3.71,10.21,10.21,0,0,0,1.69,3.53,3.81,3.81,0,0,0,3.24,1.57,4.44,4.44,0,0,0,3.31-1.39,10.7,10.7,0,0,0,2.14-3.42,19.7,19.7,0,0,0,1.16-4.24,25.12,25.12,0,0,0,.35-3.82,24.18,24.18,0,0,0-.18-2.72,13.26,13.26,0,0,0-.69-3,7.66,7.66,0,0,0-1.45-2.49A3.09,3.09,0,0,0,451.13,412.53Z"/><path class="cls-9" d="M488.69,426.78c0-.77,0-1.87.11-3.3s.1-2.84.06-4.23a30.21,30.21,0,0,0-.29-3.65c-.15-1.05-.46-1.57-.92-1.57a3.08,3.08,0,0,0-2.38,1.39,15.38,15.38,0,0,0-2,3.6,40.3,40.3,0,0,0-1.68,4.92c-.5,1.82-1,3.58-1.39,5.28s-.77,3.28-1,4.75-.53,2.59-.76,3.36a8.41,8.41,0,0,1-1.45,2.9,3.36,3.36,0,0,1-2.84,1.27,5.17,5.17,0,0,1-4.11-1.79,11.51,11.51,0,0,1-2.32-4.35,26.43,26.43,0,0,1-1-5.33c-.16-1.86-.24-3.4-.24-4.64s.1-3.18.29-5.62a47,47,0,0,1,1.16-7.24,19.1,19.1,0,0,1,2.61-6.2,5.33,5.33,0,0,1,4.64-2.61,3.08,3.08,0,0,1,2.43.92,6.11,6.11,0,0,1,1.22,2.32,12.11,12.11,0,0,1,.46,2.9c0,1,.1,1.89.18,2.67a16.67,16.67,0,0,1,3.71-3.89,8,8,0,0,1,5-1.68,11.5,11.5,0,0,1,6.66,1.86,15,15,0,0,1,4.47,4.75,20.8,20.8,0,0,1,2.49,6.38,31.81,31.81,0,0,1,.75,6.72,33.12,33.12,0,0,1-.35,4.46,18.79,18.79,0,0,1-1.33,4.93,12.26,12.26,0,0,1-2.61,3.94,5.64,5.64,0,0,1-4.17,1.62,3.86,3.86,0,0,1-3.53-1.74,11.8,11.8,0,0,1-1.57-4.17,21.35,21.35,0,0,1-.35-4.93C488.65,429.12,488.69,427.79,488.69,426.78Z"/><path class="cls-8" d="M216.27,440.85a3.48,3.48,0,0,1-1.11,2.32,3.31,3.31,0,0,1-2.37.93,4.76,4.76,0,0,1-3.48-1.39,11,11,0,0,1-2.26-3.36,18.25,18.25,0,0,1-1.27-4.18c-.28-1.46-.49-2.7-.64-3.71q-.46-3.7-.64-8c-.12-2.9-.21-6-.29-9.22l-4.87.76-5.39.81c-1.81.27-3.57.5-5.27.69l-4.52.52a130.33,130.33,0,0,0-.7,13.1,58.29,58.29,0,0,0,.35,6.61,4.06,4.06,0,0,1-.93,2.72,3.14,3.14,0,0,1-2.55,1.1,3.31,3.31,0,0,1-2.26-.86,3.76,3.76,0,0,1-1.22-2.27,67.57,67.57,0,0,1-.34-7.3c0-2.08.13-5,.4-8.86s.72-8,1.34-12.52,1.46-9.14,2.55-13.86A71.59,71.59,0,0,1,185,382a33.47,33.47,0,0,1,6-9.45,10.69,10.69,0,0,1,8.05-3.65,10.42,10.42,0,0,1,7.6,3,23.33,23.33,0,0,1,5,7.77,53.38,53.38,0,0,1,3.07,10.61c.73,3.9,1.28,7.78,1.62,11.65s.54,7.43.58,10.72.06,5.93.06,7.94q0,4.17-.12,7.82c-.07,2.44-.15,4.54-.23,6.32s-.15,3.23-.23,4.35S216.27,440.78,216.27,440.85Zm-31.3-31,4.35-.52c1.58-.19,3.22-.4,4.92-.64s3.38-.5,5-.81,3.23-.58,4.7-.81q-.12-6-.41-11.71t-1-10.31c-.08-.31-.22-1-.41-2s-.44-2.05-.75-3.13a17.39,17.39,0,0,0-1.1-2.9c-.43-.85-.87-1.27-1.34-1.27a4.86,4.86,0,0,0-3.7,2.08A23.76,23.76,0,0,0,192,383.3a58.12,58.12,0,0,0-2.72,7.3c-.82,2.67-1.51,5.28-2.09,7.83s-1.06,4.85-1.45,6.9S185.12,408.9,185,409.9Z"/><path class="cls-8" d="M231.33,440.62a5.54,5.54,0,0,1-4.23-2,16,16,0,0,1-3-5.1,37.54,37.54,0,0,1-1.91-7q-.7-3.89-1.1-7.54c-.28-2.43-.45-4.67-.53-6.72s-.11-3.61-.11-4.7c0-2,.07-4.36.23-7.07a69.54,69.54,0,0,1,1-8.28,63.72,63.72,0,0,1,2.09-8.35,30.13,30.13,0,0,1,3.48-7.36,17.87,17.87,0,0,1,5.21-5.22,13.18,13.18,0,0,1,7.25-2,14.19,14.19,0,0,1,2.72.35,14,14,0,0,1,3.25,1.1,10.43,10.43,0,0,1,2.66,1.8,3.24,3.24,0,0,1,1.11,2.43,3.44,3.44,0,0,1-1,2.44,3.3,3.3,0,0,1-2.49,1,2.82,2.82,0,0,1-1.86-.58,8.71,8.71,0,0,0-4.52-1.62,2.63,2.63,0,0,0-2.2,1.62,15.43,15.43,0,0,0-1.51,4.12,50.34,50.34,0,0,0-.92,5.5q-.36,3-.52,5.8t-.24,5c0,1.51,0,2.57,0,3.19q0,5.79.34,11.36c1.47-.08,2.8-.18,4-.29a19.75,19.75,0,0,0,2.73-.41,2.18,2.18,0,0,1,1.15-.23,3.45,3.45,0,0,1,2.84,5.45,3.17,3.17,0,0,1-1.68,1.27,14.6,14.6,0,0,1-3.82.81c-1.55.16-3.17.28-4.87.35q.23,3.48.41,7c.11,2.32.17,4.63.17,6.95,0,.7,0,1.45-.12,2.26a7.54,7.54,0,0,1-.52,2.21,4.47,4.47,0,0,1-1.21,1.68A3.32,3.32,0,0,1,231.33,440.62Z"/><path class="cls-8" d="M269.7,374.67a45,45,0,0,1,.35,6.49q.22,3.94.29,9t.06,10.66v2.32a5.41,5.41,0,0,0,2-.35,3.93,3.93,0,0,1,1.16-.23,3.3,3.3,0,0,1,2.49,1,3.47,3.47,0,0,1,1,2.44,3.13,3.13,0,0,1-.69,2.09,4.47,4.47,0,0,1-1.68,1.21,9.06,9.06,0,0,1-2.15.58c-.77.12-1.5.22-2.2.29q0,6-.17,12.06t-.87,12.05c-.08.7-.2,1.41-.35,2.15a8.45,8.45,0,0,1-.7,2,4,4,0,0,1-1.27,1.51,3.49,3.49,0,0,1-2.09.58,5.22,5.22,0,0,1-2.61-.87,6.91,6.91,0,0,1-2.49-3.53,33,33,0,0,1-1.33-5.68q-.52-3.36-.81-7c-.2-2.39-.31-4.71-.35-6.95s-.06-4.18-.06-5.8v-.46c-.93,0-1.7,0-2.32-.06l-1-.06a3.54,3.54,0,0,1-2.38-1.16,3.23,3.23,0,0,1-.87-2.55,3.61,3.61,0,0,1,1.16-2.37,3.18,3.18,0,0,1,2.55-.87h.82a14.49,14.49,0,0,0,2.2.11q.1-3.24.23-6.89t.46-7.36c.23-2.48.54-4.91.93-7.31a54.51,54.51,0,0,1,1.51-6.72,10.65,10.65,0,0,1,.69-2.09,10.81,10.81,0,0,1,1.1-1.91,5.72,5.72,0,0,1,1.57-1.45,3.91,3.91,0,0,1,2.09-.58c1.62,0,2.64.62,3.07,1.86A14.31,14.31,0,0,1,269.7,374.67Z"/><path class="cls-8" d="M279.21,422.08a21.89,21.89,0,0,1,1.27-7.48,18.86,18.86,0,0,1,3.65-6.2,17.39,17.39,0,0,1,13.27-5.8,13.17,13.17,0,0,1,8,2.55,8.62,8.62,0,0,1,3.48,7.42,11.27,11.27,0,0,1-1.33,5.45,13,13,0,0,1-3.54,4.11,17.44,17.44,0,0,1-4.87,2.61,16.37,16.37,0,0,1-5.44.93,3.85,3.85,0,0,1-1.05-.23c.08.54.23,1.29.47,2.26a15.53,15.53,0,0,0,.92,2.72,10.13,10.13,0,0,0,1.39,2.26,2.47,2.47,0,0,0,2,1,8.32,8.32,0,0,0,4.76-1.51,9.07,9.07,0,0,0,3.24-3.83,3.2,3.2,0,0,1,3.13-2.08,3.27,3.27,0,0,1,2.49,1,3.44,3.44,0,0,1,1,2.44,6.6,6.6,0,0,1-.23,1.39,15,15,0,0,0-.93,1.62A14.32,14.32,0,0,1,308.3,436a19,19,0,0,1-4.4,3.19,13.16,13.16,0,0,1-6.38,1.45,19.47,19.47,0,0,1-7.53-1.39,16.51,16.51,0,0,1-5.74-3.88,17.76,17.76,0,0,1-3.71-5.91A20.08,20.08,0,0,1,279.21,422.08Zm18.19-12.52a2.51,2.51,0,0,0-2,1.1,9.49,9.49,0,0,0-1.45,2.66,24.76,24.76,0,0,0-.93,3.07,23.82,23.82,0,0,0-.46,2.44,3.89,3.89,0,0,1,1.16-.12c2.7,0,4.75-.67,6.14-2a5.74,5.74,0,0,0,2.09-4,2.47,2.47,0,0,0-1.51-2.5A7.79,7.79,0,0,0,297.4,409.56Z"/><path class="cls-8" d="M336.7,423.12q0-.93.12-2.67c.07-1.16.15-2.28.23-3.36s.11-2,.11-2.84-.08-1.22-.23-1.22q-1.86,0-3.36,2.9a41.19,41.19,0,0,0-2.72,6.78c-.82,2.59-1.51,5.18-2.09,7.77s-1.06,4.58-1.45,6a8.5,8.5,0,0,1-1.45,2.9,3.37,3.37,0,0,1-2.84,1.27,5.17,5.17,0,0,1-4.11-1.8,11.25,11.25,0,0,1-2.32-4.34,26.44,26.44,0,0,1-1-5.33c-.15-1.86-.23-3.4-.23-4.64s.1-3.19.29-5.62a46,46,0,0,1,1.16-7.25,20,20,0,0,1,2.61-6.26,5.31,5.31,0,0,1,4.63-2.66,3,3,0,0,1,2.44,1,6.78,6.78,0,0,1,1.22,2.38,12,12,0,0,1,.46,2.9c0,1,.1,1.85.17,2.55a18.5,18.5,0,0,1,3.77-3.83,8.13,8.13,0,0,1,5-1.62,12.19,12.19,0,0,1,9.16,3.59A12.79,12.79,0,0,1,349.8,419a16.16,16.16,0,0,1-.47,3.7,12.19,12.19,0,0,1-1.45,3.6,9.13,9.13,0,0,1-2.49,2.72,5.87,5.87,0,0,1-3.59,1.1q-3,0-4.06-2.2A11,11,0,0,1,336.7,423.12Z"/><path class="cls-8" d="M374.72,425.78c0-.77,0-1.87.11-3.3s.1-2.84.06-4.23a30.21,30.21,0,0,0-.29-3.65c-.15-1.05-.46-1.57-.93-1.57a3.08,3.08,0,0,0-2.37,1.39,15.38,15.38,0,0,0-2,3.6,40.3,40.3,0,0,0-1.68,4.92c-.5,1.82-1,3.58-1.39,5.28s-.78,3.28-1,4.75-.53,2.59-.76,3.36a8.41,8.41,0,0,1-1.45,2.9,3.36,3.36,0,0,1-2.84,1.27,5.17,5.17,0,0,1-4.11-1.79,11.51,11.51,0,0,1-2.32-4.35,27.15,27.15,0,0,1-1-5.33c-.15-1.86-.23-3.4-.23-4.64s.1-3.18.29-5.62a45.86,45.86,0,0,1,1.16-7.24,19.1,19.1,0,0,1,2.61-6.2,5.33,5.33,0,0,1,4.64-2.61,3.08,3.08,0,0,1,2.43.92,6.11,6.11,0,0,1,1.22,2.32,12.11,12.11,0,0,1,.46,2.9c0,1,.1,1.89.18,2.67a16.83,16.83,0,0,1,3.7-3.89,8,8,0,0,1,5-1.68,11.53,11.53,0,0,1,6.66,1.86,15,15,0,0,1,4.47,4.75,21.06,21.06,0,0,1,2.49,6.38,31.81,31.81,0,0,1,.75,6.72,33.12,33.12,0,0,1-.35,4.46,18.79,18.79,0,0,1-1.33,4.93,12.43,12.43,0,0,1-2.61,3.94,5.64,5.64,0,0,1-4.17,1.62,3.89,3.89,0,0,1-3.54-1.74,12,12,0,0,1-1.56-4.17,20.82,20.82,0,0,1-.35-4.93C374.68,428.12,374.72,426.79,374.72,425.78Z"/><path class="cls-8" d="M409.26,402.6a3.46,3.46,0,0,1,2.14.64,2.91,2.91,0,0,1,1.11,1.33h.92a8.67,8.67,0,0,1,5.28,1.57,11.35,11.35,0,0,1,3.42,4,19.88,19.88,0,0,1,1.85,5.33,27.58,27.58,0,0,1,.58,5.45,29.15,29.15,0,0,1-.81,6.6,20.17,20.17,0,0,1-2.67,6.38,15.5,15.5,0,0,1-4.92,4.81,13.93,13.93,0,0,1-7.48,1.91,17.36,17.36,0,0,1-6.61-1.27,16.92,16.92,0,0,1-5.5-3.6,16.6,16.6,0,0,1-3.77-5.68,19.47,19.47,0,0,1-1.39-7.53,22,22,0,0,1,1.27-7.42,20.08,20.08,0,0,1,3.66-6.38,18.23,18.23,0,0,1,5.68-4.46A15.72,15.72,0,0,1,409.26,402.6Zm3.59,8.93a3.66,3.66,0,0,1-3.36-2.09c-.77,0-1.45.6-2,1.8a19.44,19.44,0,0,0-1.39,4.05q-.52,2.26-.81,4.47c-.19,1.47-.29,2.43-.29,2.89s0,1.05.12,2.21a19.73,19.73,0,0,0,.63,3.71,10.21,10.21,0,0,0,1.69,3.53,3.81,3.81,0,0,0,3.24,1.57,4.44,4.44,0,0,0,3.31-1.39,10.7,10.7,0,0,0,2.14-3.42,19.7,19.7,0,0,0,1.16-4.24,25.12,25.12,0,0,0,.35-3.82,24.18,24.18,0,0,0-.18-2.72,13.26,13.26,0,0,0-.69-3,7.66,7.66,0,0,0-1.45-2.49A3.09,3.09,0,0,0,412.85,411.53Z"/><path class="cls-8" d="M445.54,402.6a3.46,3.46,0,0,1,2.14.64,2.91,2.91,0,0,1,1.11,1.33h.92a8.67,8.67,0,0,1,5.28,1.57,11.35,11.35,0,0,1,3.42,4,19.88,19.88,0,0,1,1.85,5.33,27.58,27.58,0,0,1,.58,5.45,29.15,29.15,0,0,1-.81,6.6,20.17,20.17,0,0,1-2.67,6.38,15.5,15.5,0,0,1-4.92,4.81,13.93,13.93,0,0,1-7.48,1.91,17.36,17.36,0,0,1-6.61-1.27,16.92,16.92,0,0,1-5.5-3.6,16.6,16.6,0,0,1-3.77-5.68,19.47,19.47,0,0,1-1.39-7.53,22,22,0,0,1,1.27-7.42,20.08,20.08,0,0,1,3.66-6.38,18.23,18.23,0,0,1,5.68-4.46A15.72,15.72,0,0,1,445.54,402.6Zm3.59,8.93a3.67,3.67,0,0,1-3.36-2.09c-.77,0-1.45.6-2,1.8a19.44,19.44,0,0,0-1.39,4.05q-.53,2.26-.81,4.47c-.19,1.47-.29,2.43-.29,2.89s0,1.05.12,2.21a19.73,19.73,0,0,0,.63,3.71,10.21,10.21,0,0,0,1.69,3.53,3.81,3.81,0,0,0,3.24,1.57,4.44,4.44,0,0,0,3.31-1.39,10.7,10.7,0,0,0,2.14-3.42,19.7,19.7,0,0,0,1.16-4.24,25.12,25.12,0,0,0,.35-3.82,24.18,24.18,0,0,0-.18-2.72,13.26,13.26,0,0,0-.69-3,7.66,7.66,0,0,0-1.45-2.49A3.09,3.09,0,0,0,449.13,411.53Z"/><path class="cls-8" d="M486.69,425.78c0-.77,0-1.87.11-3.3s.1-2.84.06-4.23a30.21,30.21,0,0,0-.29-3.65c-.15-1.05-.46-1.57-.92-1.57a3.08,3.08,0,0,0-2.38,1.39,15.38,15.38,0,0,0-2,3.6,40.3,40.3,0,0,0-1.68,4.92c-.5,1.82-1,3.58-1.39,5.28s-.77,3.28-1,4.75-.53,2.59-.76,3.36a8.41,8.41,0,0,1-1.45,2.9,3.36,3.36,0,0,1-2.84,1.27,5.17,5.17,0,0,1-4.11-1.79,11.51,11.51,0,0,1-2.32-4.35,26.43,26.43,0,0,1-1-5.33c-.16-1.86-.24-3.4-.24-4.64s.1-3.18.29-5.62a47,47,0,0,1,1.16-7.24,19.1,19.1,0,0,1,2.61-6.2,5.33,5.33,0,0,1,4.64-2.61,3.08,3.08,0,0,1,2.43.92,6.11,6.11,0,0,1,1.22,2.32,12.11,12.11,0,0,1,.46,2.9c0,1,.1,1.89.18,2.67a16.67,16.67,0,0,1,3.71-3.89,8,8,0,0,1,5-1.68,11.5,11.5,0,0,1,6.66,1.86,15,15,0,0,1,4.47,4.75,20.8,20.8,0,0,1,2.49,6.38,31.81,31.81,0,0,1,.75,6.72,33.12,33.12,0,0,1-.35,4.46,18.79,18.79,0,0,1-1.33,4.93,12.26,12.26,0,0,1-2.61,3.94,5.64,5.64,0,0,1-4.17,1.62,3.86,3.86,0,0,1-3.53-1.74,11.8,11.8,0,0,1-1.57-4.17,21.35,21.35,0,0,1-.35-4.93C486.65,428.12,486.69,426.79,486.69,425.78Z"/></svg>