<svg xmlns="http://www.w3.org/2000/svg" xmlns:xlink="http://www.w3.org/1999/xlink" viewBox="0 0 662 496"><defs><style>.cls-1{fill:none;}.cls-2{fill:#1d2d49;}.cls-3{fill:#2c3b4c;}.cls-4{clip-path:url(#clip-path);}.cls-5{fill:#a6c3ed;opacity:0.13;}.cls-19,.cls-6{fill:#fff;}.cls-7{fill:#efefef;}.cls-8{fill:url(#radial-gradient);}.cls-9{fill:#e5d439;}.cls-10{fill:#ffe088;}.cls-11{fill:#fff6a1;}.cls-12{fill:#5d3c06;}.cls-13{fill:#f7a341;}.cls-14{clip-path:url(#clip-path-2);}.cls-15{opacity:0.71;}.cls-16{fill:#ffcd19;}.cls-17{fill:#fdb500;}.cls-18{clip-path:url(#clip-path-3);}.cls-19{opacity:0.57;}</style><clipPath id="clip-path"><ellipse class="cls-1" cx="334" cy="256.5" rx="308" ry="178.5"/></clipPath><radialGradient id="radial-gradient" cx="461.5" cy="198.5" r="192.5" gradientUnits="userSpaceOnUse"><stop offset="0" stop-color="#fdb500" stop-opacity="0.5"/><stop offset="1" stop-color="#fff6a1" stop-opacity="0"/></radialGradient><clipPath id="clip-path-2"><path class="cls-1" d="M467.08,209.64c-.14,9.66-13.93,10.15-14.76.53-.11-1.22-2-.89-1.87.32a9.26,9.26,0,0,0,18.51-.68c0-1.21-1.86-1.39-1.88-.17Z"/></clipPath><clipPath id="clip-path-3"><ellipse class="cls-1" cx="-386" cy="294.5" rx="308" ry="178.5"/></clipPath></defs><title>Greeting-evening</title><g id="Layer_3" data-name="Layer 3"><path class="cls-2" d="M646,242.5C646,356,504.75,433,330.5,433S21,351,21,242.5,156.25,46,330.5,46,646,134,646,242.5Z"/><ellipse class="cls-3" cx="328.5" cy="250.5" rx="305.5" ry="182.5"/><g class="cls-4"><path class="cls-5" d="M604.82,364.45a33,33,0,0,0-37.31-48.19A96.81,96.81,0,0,0,385,290.44a46.33,46.33,0,0,0-49.42,7.09,46.39,46.39,0,0,0-81.82-14.28,93.58,93.58,0,0,0-64.28-24.94c-30.9,0-58.16,14.38-74.37,36.28a46.36,46.36,0,0,0-72.8,36.33,46.36,46.36,0,0,0-66.18.75,50.22,50.22,0,0,0-47.9-35.15A50.19,50.19,0,0,0-122,346.71a50.16,50.16,0,0,0,3,17.13,33.07,33.07,0,0,0-32.24,33.06A33.11,33.11,0,0,0-118.1,430H598.24a33.11,33.11,0,0,0,6.58-65.55Z"/><path class="cls-6" d="M605.47,386.45a33,33,0,0,0-37.3-48.19,96.82,96.82,0,0,0-182.53-25.82,46.33,46.33,0,0,0-49.42,7.09,46.39,46.39,0,0,0-81.82-14.28,93.54,93.54,0,0,0-64.28-24.94c-30.9,0-58.16,14.38-74.37,36.28A46.35,46.35,0,0,0,43,352.92a46.37,46.37,0,0,0-66.19.75,50.21,50.21,0,0,0-47.9-35.15,50.19,50.19,0,0,0-50.18,50.19,50.16,50.16,0,0,0,3,17.13,33.07,33.07,0,0,0-32.24,33.06,33.1,33.1,0,0,0,33.1,33.1H598.89a33.1,33.1,0,0,0,6.58-65.55Z"/></g><path class="cls-7" d="M624.49,405.88a64.34,64.34,0,0,0-75.86-63.34c0-.35,0-.7,0-1A42.59,42.59,0,0,0,465,330.23,42.47,42.47,0,0,0,439.15,317,98.84,98.84,0,1,0,244,294.84c0,.94.05,1.87.08,2.8a64.39,64.39,0,0,0-82.71,53.91A42.49,42.49,0,0,0,113,387.71a42.59,42.59,0,1,0-13.76,82.9H565.21v-.56A64.38,64.38,0,0,0,624.49,405.88Z"/><path class="cls-6" d="M624,411.88c0-32.57-28.59-59-63.84-59a69.71,69.71,0,0,0-11.38.95c0-.32,0-.63,0-.95,0-21.55-18.91-39-42.23-39-19.46,0-35.83,12.16-40.73,28.7a43.37,43.37,0,0,0-25.61-12.13,84.56,84.56,0,0,0,2.49-20.28c0-50-43.88-90.54-98-90.54s-98,40.54-98,90.54c0,.86.05,1.7.07,2.55a69,69,0,0,0-18.63-2.55c-32.67,0-59.6,22.68-63.37,51.93a45.4,45.4,0,0,0-6.1-.41c-21.31,0-38.93,14.58-41.81,33.53a45.33,45.33,0,0,0-13.65-2.09c-23.32,0-42.23,17.46-42.23,39s18.91,39,42.23,39h462v-.51C598.11,468.26,624,442.88,624,411.88Z"/><circle class="cls-8" cx="461.5" cy="198.5" r="192.5"/><ellipse class="cls-9" cx="457.87" cy="198.02" rx="92.15" ry="92.07" transform="translate(-6.82 16.58) rotate(-2.06)"/><circle class="cls-10" cx="460.52" cy="195.33" r="101.83"/><ellipse class="cls-11" cx="460.43" cy="198.18" rx="98.13" ry="98.04" transform="translate(-6.82 16.67) rotate(-2.06)"/><circle class="cls-12" cx="408.48" cy="187.72" r="14.8"/><circle class="cls-6" cx="402.57" cy="181.65" r="4.34"/><circle class="cls-12" cx="513.98" cy="183.93" r="14.8"/><circle class="cls-6" cx="508.07" cy="177.86" r="4.34"/><ellipse class="cls-13" cx="407.32" cy="213.8" rx="15.7" ry="5.83" transform="translate(-7.42 14.77) rotate(-2.06)"/><ellipse class="cls-13" cx="514.91" cy="209.93" rx="15.7" ry="5.83" transform="matrix(1, -0.04, 0.04, 1, -7.21, 18.64)"/><g class="cls-14"><rect class="cls-1" x="464.78" y="201.97" width="6.61" height="6.61" transform="translate(-7.07 16.95) rotate(-2.06)"/><rect class="cls-12" x="464.78" y="201.97" width="6.61" height="6.61" transform="translate(-7.07 16.95) rotate(-2.06)"/><rect class="cls-1" x="465.02" y="208.58" width="6.61" height="6.61" transform="translate(-7.31 16.96) rotate(-2.06)"/><rect class="cls-12" x="465.02" y="208.58" width="6.61" height="6.61" transform="translate(-7.31 16.96) rotate(-2.06)"/><rect class="cls-1" x="465.26" y="215.19" width="6.61" height="6.61" transform="translate(-7.55 16.98) rotate(-2.06)"/><rect class="cls-12" x="465.26" y="215.19" width="6.61" height="6.61" transform="translate(-7.55 16.98) rotate(-2.06)"/><rect class="cls-1" x="458.17" y="202.21" width="6.61" height="6.61" transform="translate(-7.09 16.71) rotate(-2.06)"/><rect class="cls-12" x="458.17" y="202.21" width="6.61" height="6.61" transform="translate(-7.09 16.71) rotate(-2.06)"/><rect class="cls-1" x="458.41" y="208.82" width="6.61" height="6.61" transform="translate(-7.32 16.73) rotate(-2.06)"/><rect class="cls-12" x="458.41" y="208.82" width="6.61" height="6.61" transform="translate(-7.32 16.73) rotate(-2.06)"/><rect class="cls-1" x="458.65" y="215.43" width="6.61" height="6.61" transform="translate(-7.56 16.74) rotate(-2.06)"/><rect class="cls-12" x="458.65" y="215.43" width="6.61" height="6.61" transform="translate(-7.56 16.74) rotate(-2.06)"/><rect class="cls-1" x="458.89" y="222.04" width="6.61" height="6.61" transform="translate(-7.8 16.75) rotate(-2.06)"/><rect class="cls-12" x="458.89" y="222.04" width="6.61" height="6.61" transform="translate(-7.8 16.75) rotate(-2.06)"/><rect class="cls-1" x="451.56" y="202.44" width="6.61" height="6.61" transform="translate(-7.1 16.48) rotate(-2.06)"/><rect class="cls-12" x="451.56" y="202.44" width="6.61" height="6.61" transform="translate(-7.1 16.48) rotate(-2.06)"/><rect class="cls-1" x="451.8" y="209.05" width="6.61" height="6.61" transform="translate(-7.34 16.49) rotate(-2.06)"/><rect class="cls-12" x="451.8" y="209.05" width="6.61" height="6.61" transform="translate(-7.34 16.49) rotate(-2.06)"/><rect class="cls-1" x="452.04" y="215.66" width="6.61" height="6.61" transform="translate(-7.57 16.5) rotate(-2.06)"/><rect class="cls-12" x="452.04" y="215.66" width="6.61" height="6.61" transform="translate(-7.57 16.5) rotate(-2.06)"/><rect class="cls-1" x="444.95" y="202.68" width="6.61" height="6.61" transform="translate(-7.11 16.24) rotate(-2.06)"/><rect class="cls-12" x="444.95" y="202.68" width="6.61" height="6.61" transform="translate(-7.11 16.24) rotate(-2.06)"/><rect class="cls-1" x="445.19" y="209.29" width="6.61" height="6.61" transform="translate(-7.35 16.25) rotate(-2.06)"/><rect class="cls-12" x="445.19" y="209.29" width="6.61" height="6.61" transform="translate(-7.35 16.25) rotate(-2.06)"/><rect class="cls-1" x="445.43" y="215.9" width="6.61" height="6.61" transform="translate(-7.59 16.26) rotate(-2.06)"/><rect class="cls-12" x="445.43" y="215.9" width="6.61" height="6.61" transform="translate(-7.59 16.26) rotate(-2.06)"/></g><g class="cls-15"><path class="cls-6" d="M390.82,255.16c4.7,1.76,7.44-5.55,2.73-7.31s-7.44,5.55-2.73,7.31Z"/></g><g class="cls-15"><path class="cls-6" d="M398.06,264.13a29.7,29.7,0,0,0,13.44,9c4.77,1.54,7.53-5.76,2.74-7.31a21.83,21.83,0,0,1-10.13-6.63c-3.28-3.8-9.33,1.12-6.05,4.93Z"/></g><path class="cls-16" d="M298.16,312.83a3.55,3.55,0,0,1-3.47,3.48,3.41,3.41,0,0,1-2.09-.69q-3.83-3-7-2.79a6.13,6.13,0,0,0-4.47,1.92,16.93,16.93,0,0,0-3.3,4.92,42,42,0,0,0-2.38,6.67c-.65,2.43-1.18,4.81-1.56,7.13s-.66,4.48-.81,6.49-.23,3.59-.23,4.75c0,1.62.13,3.87.4,6.72a48.2,48.2,0,0,0,1.57,8.47,23.44,23.44,0,0,0,3.36,7.3,7,7,0,0,0,5.68,3.24,8.55,8.55,0,0,0,5-1.62,21.46,21.46,0,0,0,4.29-4,34.75,34.75,0,0,0,3.48-5q1.5-2.67,2.55-4.75l-5.62,1.16q-2.85.57-5.74.92a22.1,22.1,0,0,1-3.48.35,6.09,6.09,0,0,1-3.19-.87,3.06,3.06,0,0,1-1.45-2.84,3.59,3.59,0,0,1,3.48-3.48,3.68,3.68,0,0,1,1.16.24c.31,0,1.22-.1,2.72-.29s4.16-.68,8-1.45c1.23-.31,2.39-.58,3.47-.81s2.05-.43,2.9-.58,1.93-.47,2.78-.7a1.27,1.27,0,0,0,.41-.06,1.22,1.22,0,0,1,.4-.05,3.28,3.28,0,0,1,2.5,1,3.45,3.45,0,0,1,1,2.43,9.29,9.29,0,0,1-.75,2.9c-.51,1.31-1.1,2.69-1.8,4.12s-1.39,2.78-2.09,4.05-1.19,2.15-1.5,2.61a44.34,44.34,0,0,1-3.25,4.87,28.33,28.33,0,0,1-4.11,4.35,23.07,23.07,0,0,1-4.93,3.18,13.28,13.28,0,0,1-5.8,1.28,20.08,20.08,0,0,1-11.47-3.19,25.11,25.11,0,0,1-7.71-8.17,38.37,38.37,0,0,1-4.35-11,52.93,52.93,0,0,1-1.39-11.83,57.92,57.92,0,0,1,1.45-12.57,42,42,0,0,1,4.64-12.06,28.66,28.66,0,0,1,8.23-9.1,20.54,20.54,0,0,1,12.23-3.59,16,16,0,0,1,3.3.46,21.92,21.92,0,0,1,4.06,1.39,14.29,14.29,0,0,1,3.48,2.21A3.78,3.78,0,0,1,298.16,312.83Z"/><path class="cls-16" d="M328.76,339.38a3.51,3.51,0,0,1,2.15.64,2.88,2.88,0,0,1,1.1,1.33h.93a8.73,8.73,0,0,1,5.27,1.56,11.53,11.53,0,0,1,3.42,4,20,20,0,0,1,1.86,5.34,28.25,28.25,0,0,1,.58,5.44,29.2,29.2,0,0,1-.82,6.61,20.38,20.38,0,0,1-2.66,6.38,15.53,15.53,0,0,1-4.93,4.81,13.92,13.92,0,0,1-7.47,1.91,17.37,17.37,0,0,1-6.61-1.28,16.55,16.55,0,0,1-9.28-9.27,19.65,19.65,0,0,1-1.39-7.53,22,22,0,0,1,1.28-7.42,20.14,20.14,0,0,1,3.65-6.38,18.34,18.34,0,0,1,5.68-4.46A15.74,15.74,0,0,1,328.76,339.38Zm3.6,8.92a3.65,3.65,0,0,1-3.36-2.08c-.78,0-1.45.6-2,1.79a18.78,18.78,0,0,0-1.39,4.06c-.35,1.51-.62,3-.81,4.46a26.76,26.76,0,0,0-.29,2.9c0,.31,0,1,.11,2.2a19.65,19.65,0,0,0,.64,3.71,10.34,10.34,0,0,0,1.68,3.54,3.8,3.8,0,0,0,3.25,1.56,4.38,4.38,0,0,0,3.3-1.39,10.43,10.43,0,0,0,2.14-3.42,19.45,19.45,0,0,0,1.16-4.23,23.9,23.9,0,0,0,.35-3.82,26.85,26.85,0,0,0-.17-2.73,13.32,13.32,0,0,0-.7-3,7.46,7.46,0,0,0-1.45-2.49A3.09,3.09,0,0,0,332.36,348.3Z"/><path class="cls-16" d="M365,339.38a3.51,3.51,0,0,1,2.15.64,2.88,2.88,0,0,1,1.1,1.33h.93a8.73,8.73,0,0,1,5.27,1.56,11.53,11.53,0,0,1,3.42,4,20,20,0,0,1,1.86,5.34,28.25,28.25,0,0,1,.58,5.44,29.2,29.2,0,0,1-.82,6.61,20.38,20.38,0,0,1-2.66,6.38,15.53,15.53,0,0,1-4.93,4.81,13.92,13.92,0,0,1-7.47,1.91,17.37,17.37,0,0,1-6.61-1.28,16.55,16.55,0,0,1-9.28-9.27,19.65,19.65,0,0,1-1.39-7.53,22,22,0,0,1,1.28-7.42,20.14,20.14,0,0,1,3.65-6.38,18.34,18.34,0,0,1,5.68-4.46A15.74,15.74,0,0,1,365,339.38Zm3.6,8.92a3.65,3.65,0,0,1-3.36-2.08c-.78,0-1.45.6-2,1.79a19.33,19.33,0,0,0-1.39,4.06c-.35,1.51-.62,3-.81,4.46a26.76,26.76,0,0,0-.29,2.9c0,.31,0,1,.11,2.2a19.65,19.65,0,0,0,.64,3.71,10.34,10.34,0,0,0,1.68,3.54,3.8,3.8,0,0,0,3.25,1.56,4.38,4.38,0,0,0,3.3-1.39,10.43,10.43,0,0,0,2.14-3.42A19.45,19.45,0,0,0,373,361.4a23.9,23.9,0,0,0,.35-3.82,26.85,26.85,0,0,0-.17-2.73,13.32,13.32,0,0,0-.7-3,7.46,7.46,0,0,0-1.45-2.49A3.09,3.09,0,0,0,368.64,348.3Z"/><path class="cls-16" d="M396.69,377.4a14.54,14.54,0,0,1-10.38-3.77,13.14,13.14,0,0,1-4-10,17.93,17.93,0,0,1,1.69-7.76,21.23,21.23,0,0,1,4.46-6.32,19.86,19.86,0,0,1,6.49-4.23,20.52,20.52,0,0,1,7.77-1.51,16.11,16.11,0,0,1,5.1.81V325.47q0-6.84.58-13.8a18.38,18.38,0,0,1,.86-3.82c.43-1.24,1.45-1.85,3.08-1.85a5.76,5.76,0,0,1,1.91.46,4.9,4.9,0,0,1,2.26,2.2,16.71,16.71,0,0,1,1.74,4.87c.46,2.09.87,4.42,1.21,7s.62,5.33.82,8.23.34,5.66.46,8.29.19,5,.23,7.24.06,4,.06,5.28a151.56,151.56,0,0,1-1,19.82c-.16.93-.35,2.05-.58,3.36a19.43,19.43,0,0,1-1.05,3.77,9,9,0,0,1-1.85,3,4.13,4.13,0,0,1-3.13,1.22,3.26,3.26,0,0,1-2.09-.64A4.35,4.35,0,0,1,410,378.5a9.69,9.69,0,0,1-.7-2.09c-.15-.73-.27-1.45-.35-2.14a10.57,10.57,0,0,1-.28-2.09q-.06-1.15-.18-2.55a25.44,25.44,0,0,1-5,5.39A10.49,10.49,0,0,1,396.69,377.4Zm-1.05-11.59V367a9.51,9.51,0,0,0,.12,1.51,5.85,5.85,0,0,0,.35,1.33c.15.39.35.58.58.58a5.22,5.22,0,0,0,3.65-1.79,23.34,23.34,0,0,0,3.36-4.35,39.55,39.55,0,0,0,2.67-5.16q1.1-2.61,1.56-4.11v-2.78a10.35,10.35,0,0,0-5.1-1.51,4,4,0,0,0-3.13,1.8,14.84,14.84,0,0,0-2.26,4.28,33.88,33.88,0,0,0-1.33,5.05A23.72,23.72,0,0,0,395.64,365.81Z"/><path class="cls-17" d="M296.16,311.83a3.55,3.55,0,0,1-3.47,3.48,3.41,3.41,0,0,1-2.09-.69q-3.83-3-7-2.79a6.13,6.13,0,0,0-4.47,1.92,16.93,16.93,0,0,0-3.3,4.92,42,42,0,0,0-2.38,6.67c-.65,2.43-1.18,4.81-1.56,7.13s-.66,4.48-.81,6.49-.23,3.59-.23,4.75c0,1.62.13,3.87.4,6.72a48.2,48.2,0,0,0,1.57,8.47,23.44,23.44,0,0,0,3.36,7.3,7,7,0,0,0,5.68,3.24,8.55,8.55,0,0,0,5-1.62,21.46,21.46,0,0,0,4.29-4,34.75,34.75,0,0,0,3.48-5q1.5-2.67,2.55-4.75l-5.62,1.16q-2.85.57-5.74.92a22.1,22.1,0,0,1-3.48.35,6.09,6.09,0,0,1-3.19-.87,3.06,3.06,0,0,1-1.45-2.84,3.59,3.59,0,0,1,3.48-3.48,3.68,3.68,0,0,1,1.16.24c.31,0,1.22-.1,2.72-.29s4.16-.68,8-1.45c1.23-.31,2.39-.58,3.47-.81s2.05-.43,2.9-.58,1.93-.47,2.78-.7a1.27,1.27,0,0,0,.41-.06,1.22,1.22,0,0,1,.4-.05,3.28,3.28,0,0,1,2.5,1,3.45,3.45,0,0,1,1,2.43,9.29,9.29,0,0,1-.75,2.9c-.51,1.31-1.1,2.69-1.8,4.12s-1.39,2.78-2.09,4.05-1.19,2.15-1.5,2.61a44.34,44.34,0,0,1-3.25,4.87,28.33,28.33,0,0,1-4.11,4.35,23.07,23.07,0,0,1-4.93,3.18,13.28,13.28,0,0,1-5.8,1.28,20.08,20.08,0,0,1-11.47-3.19,25.11,25.11,0,0,1-7.71-8.17,38.37,38.37,0,0,1-4.35-11,52.93,52.93,0,0,1-1.39-11.83,57.92,57.92,0,0,1,1.45-12.57,42,42,0,0,1,4.64-12.06,28.66,28.66,0,0,1,8.23-9.1,20.54,20.54,0,0,1,12.23-3.59,16,16,0,0,1,3.3.46,21.92,21.92,0,0,1,4.06,1.39,14.29,14.29,0,0,1,3.48,2.21A3.78,3.78,0,0,1,296.16,311.83Z"/><path class="cls-17" d="M326.76,338.38a3.51,3.51,0,0,1,2.15.64,2.88,2.88,0,0,1,1.1,1.33h.93a8.73,8.73,0,0,1,5.27,1.56,11.53,11.53,0,0,1,3.42,4,20,20,0,0,1,1.86,5.34,28.25,28.25,0,0,1,.58,5.44,29.2,29.2,0,0,1-.82,6.61,20.38,20.38,0,0,1-2.66,6.38,15.53,15.53,0,0,1-4.93,4.81,13.92,13.92,0,0,1-7.47,1.91,17.37,17.37,0,0,1-6.61-1.28,16.55,16.55,0,0,1-9.28-9.27,19.65,19.65,0,0,1-1.39-7.53,22,22,0,0,1,1.28-7.42,20.14,20.14,0,0,1,3.65-6.38,18.34,18.34,0,0,1,5.68-4.46A15.74,15.74,0,0,1,326.76,338.38Zm3.6,8.92a3.65,3.65,0,0,1-3.36-2.08c-.78,0-1.45.6-2,1.79a18.78,18.78,0,0,0-1.39,4.06c-.35,1.51-.62,3-.81,4.46a26.76,26.76,0,0,0-.29,2.9c0,.31,0,1,.11,2.2a19.65,19.65,0,0,0,.64,3.71,10.34,10.34,0,0,0,1.68,3.54,3.8,3.8,0,0,0,3.25,1.56,4.38,4.38,0,0,0,3.3-1.39,10.43,10.43,0,0,0,2.14-3.42,19.45,19.45,0,0,0,1.16-4.23,23.9,23.9,0,0,0,.35-3.82,26.85,26.85,0,0,0-.17-2.73,13.32,13.32,0,0,0-.7-3,7.46,7.46,0,0,0-1.45-2.49A3.09,3.09,0,0,0,330.36,347.3Z"/><path class="cls-17" d="M363,338.38a3.51,3.51,0,0,1,2.15.64,2.88,2.88,0,0,1,1.1,1.33h.93a8.73,8.73,0,0,1,5.27,1.56,11.53,11.53,0,0,1,3.42,4,20,20,0,0,1,1.86,5.34,28.25,28.25,0,0,1,.58,5.44,29.2,29.2,0,0,1-.82,6.61,20.38,20.38,0,0,1-2.66,6.38,15.53,15.53,0,0,1-4.93,4.81,13.92,13.92,0,0,1-7.47,1.91,17.37,17.37,0,0,1-6.61-1.28,16.55,16.55,0,0,1-9.28-9.27,19.65,19.65,0,0,1-1.39-7.53,22,22,0,0,1,1.28-7.42,20.14,20.14,0,0,1,3.65-6.38,18.34,18.34,0,0,1,5.68-4.46A15.74,15.74,0,0,1,363,338.38Zm3.6,8.92a3.65,3.65,0,0,1-3.36-2.08c-.78,0-1.45.6-2,1.79a19.33,19.33,0,0,0-1.39,4.06c-.35,1.51-.62,3-.81,4.46a26.76,26.76,0,0,0-.29,2.9c0,.31,0,1,.11,2.2a19.65,19.65,0,0,0,.64,3.71,10.34,10.34,0,0,0,1.68,3.54,3.8,3.8,0,0,0,3.25,1.56,4.38,4.38,0,0,0,3.3-1.39,10.43,10.43,0,0,0,2.14-3.42A19.45,19.45,0,0,0,371,360.4a23.9,23.9,0,0,0,.35-3.82,26.85,26.85,0,0,0-.17-2.73,13.32,13.32,0,0,0-.7-3,7.46,7.46,0,0,0-1.45-2.49A3.09,3.09,0,0,0,366.64,347.3Z"/><path class="cls-17" d="M394.69,376.4a14.54,14.54,0,0,1-10.38-3.77,13.14,13.14,0,0,1-4-10,17.93,17.93,0,0,1,1.69-7.76,21.23,21.23,0,0,1,4.46-6.32,19.86,19.86,0,0,1,6.49-4.23,20.52,20.52,0,0,1,7.77-1.51,16.11,16.11,0,0,1,5.1.81V324.47q0-6.84.58-13.8a18.38,18.38,0,0,1,.86-3.82c.43-1.24,1.45-1.85,3.08-1.85a5.76,5.76,0,0,1,1.91.46,4.9,4.9,0,0,1,2.26,2.2,16.71,16.71,0,0,1,1.74,4.87c.46,2.09.87,4.42,1.21,7s.62,5.33.82,8.23.34,5.66.46,8.29.19,5,.23,7.24.06,4,.06,5.28a151.56,151.56,0,0,1-1,19.82c-.16.93-.35,2.05-.58,3.36a19.43,19.43,0,0,1-1.05,3.77,9,9,0,0,1-1.85,3,4.13,4.13,0,0,1-3.13,1.22,3.26,3.26,0,0,1-2.09-.64A4.35,4.35,0,0,1,408,377.5a9.69,9.69,0,0,1-.7-2.09c-.15-.73-.27-1.45-.35-2.14a10.57,10.57,0,0,1-.28-2.09q-.06-1.15-.18-2.55a25.44,25.44,0,0,1-5,5.39A10.49,10.49,0,0,1,394.69,376.4Zm-1.05-11.59V366a9.51,9.51,0,0,0,.12,1.51,5.85,5.85,0,0,0,.35,1.33c.15.39.35.58.58.58a5.22,5.22,0,0,0,3.65-1.79,23.34,23.34,0,0,0,3.36-4.35,39.55,39.55,0,0,0,2.67-5.16q1.1-2.61,1.56-4.11v-2.78a10.35,10.35,0,0,0-5.1-1.51,4,4,0,0,0-3.13,1.8,14.84,14.84,0,0,0-2.26,4.28,33.88,33.88,0,0,0-1.33,5.05A23.72,23.72,0,0,0,393.64,364.81Z"/><path class="cls-16" d="M235.3,440.62a35.59,35.59,0,0,1-11.48-1.85,7.37,7.37,0,0,1-3.82-3.08,23.14,23.14,0,0,1-2.73-5.62,49.61,49.61,0,0,1-1.79-7.07c-.47-2.55-.83-5-1.1-7.42s-.45-4.61-.53-6.66-.11-3.65-.11-4.81c0-2.71.09-5.41.29-8.12a53,53,0,0,1,1.22-8.11,52.34,52.34,0,0,1,2.89-9.91,14.86,14.86,0,0,1,4.23-5.85,14.59,14.59,0,0,1,6.5-2.84,51.17,51.17,0,0,1,9.67-.76,83.77,83.77,0,0,1,8.64.41,47.27,47.27,0,0,1,4.81.64,2.8,2.8,0,0,1,1.91,1.15,3.78,3.78,0,0,1,.64,2.21,3.45,3.45,0,0,1-1,2.43,3.28,3.28,0,0,1-2.5,1,1.22,1.22,0,0,1-.4,0,1.27,1.27,0,0,0-.41-.06,34.78,34.78,0,0,0-4.29-.52q-3.36-.28-7.42-.29c-.69,0-1.58,0-2.66.06s-2.2.11-3.36.23a27.61,27.61,0,0,0-3.31.52,7.92,7.92,0,0,0-2.49.93v1.56c0,.58,0,1.3.12,2.14q0,11.49.34,23h3.25q1.27,0,3.3-.06c1.35,0,2.75-.12,4.18-.23s2.74-.25,3.94-.41a6.38,6.38,0,0,0,2.49-.69,3.71,3.71,0,0,1,2.09-.7,3.37,3.37,0,0,1,3.47,3.48,3.3,3.3,0,0,1-1.39,2.78,9.57,9.57,0,0,1-3.71,1.56,45.86,45.86,0,0,1-4.92.82c-1.74.19-3.46.31-5.16.34s-3.17.06-4.41.06h-3q0,10.91.7,21.91a17.3,17.3,0,0,0,3.65.75,35.22,35.22,0,0,0,3.53.18A28.77,28.77,0,0,0,245,432.1a27,27,0,0,0,6.37-3.07,3.79,3.79,0,0,1,2.09-.7,3.57,3.57,0,0,1,3.47,3.48c0,1.47-.86,2.75-2.6,3.83a26.31,26.31,0,0,1-6.2,2.72A52.24,52.24,0,0,1,241,440,37.42,37.42,0,0,1,235.3,440.62Z"/><path class="cls-16" d="M274.25,428.8a15.55,15.55,0,0,0,.58,3.24,11.34,11.34,0,0,0,.58,1.51c1.23-.62,2.39-2.1,3.47-4.46a60.93,60.93,0,0,0,2.9-7.77q1.28-4.23,2.09-8.29c.54-2.7.92-4.75,1.16-6.14a3.75,3.75,0,0,1,1.16-2.14,3.09,3.09,0,0,1,2.2-.87,3.27,3.27,0,0,1,2.49,1,3.44,3.44,0,0,1,1,2.43,19.89,19.89,0,0,1-.41,3.54c-.27,1.43-.58,2.9-.93,4.4s-.71,3-1.1,4.35-.69,2.51-.93,3.36q-.69,2.21-1.79,5.28a33.75,33.75,0,0,1-2.73,5.79,18.15,18.15,0,0,1-3.88,4.64,7.8,7.8,0,0,1-5.16,1.91,11.14,11.14,0,0,1-7.19-2.32,17,17,0,0,1-4.63-5.79,28.25,28.25,0,0,1-2.49-7.48,40,40,0,0,1-.76-7.48,40.6,40.6,0,0,1,.29-4.4,21.2,21.2,0,0,1,1.16-4.93,11.75,11.75,0,0,1,2.38-4,5.25,5.25,0,0,1,4.05-1.62,4.25,4.25,0,0,1,2.38.64,5.33,5.33,0,0,1,1.62,1.62,6.86,6.86,0,0,1,.93,2.2,19.15,19.15,0,0,1,.41,2.38c.15,1.31.27,2.74.34,4.29s.16,3.21.24,5,.15,3.52.23,5.22S274.09,427.25,274.25,428.8Z"/><path class="cls-16" d="M294.64,422.08a21.89,21.89,0,0,1,1.28-7.48,18.86,18.86,0,0,1,3.65-6.2,17.35,17.35,0,0,1,5.74-4.23,17.53,17.53,0,0,1,7.53-1.57,13.17,13.17,0,0,1,8,2.55,8.62,8.62,0,0,1,3.48,7.42A11.27,11.27,0,0,1,323,418a13,13,0,0,1-3.54,4.11,17.44,17.44,0,0,1-4.87,2.61,16.43,16.43,0,0,1-5.45.93,3.8,3.8,0,0,1-1-.23c.08.54.23,1.29.46,2.26a15.55,15.55,0,0,0,.93,2.72,10.13,10.13,0,0,0,1.39,2.26,2.47,2.47,0,0,0,2,1,8.32,8.32,0,0,0,4.76-1.51,9.07,9.07,0,0,0,3.24-3.83,3.2,3.2,0,0,1,3.13-2.08,3.29,3.29,0,0,1,2.49,1,3.44,3.44,0,0,1,1,2.44,6.6,6.6,0,0,1-.23,1.39,15,15,0,0,0-.93,1.62,14.32,14.32,0,0,1-2.55,3.24,18.84,18.84,0,0,1-4.41,3.19,13.09,13.09,0,0,1-6.37,1.45,19.55,19.55,0,0,1-7.54-1.39,16.56,16.56,0,0,1-5.73-3.88,17.76,17.76,0,0,1-3.71-5.91A20.09,20.09,0,0,1,294.64,422.08Zm18.2-12.52a2.53,2.53,0,0,0-2,1.1,9.73,9.73,0,0,0-1.44,2.66,24.76,24.76,0,0,0-.93,3.07c-.23,1-.39,1.82-.47,2.44a4,4,0,0,1,1.16-.12c2.71,0,4.76-.67,6.15-2a5.72,5.72,0,0,0,2.08-4,2.46,2.46,0,0,0-1.5-2.5A7.79,7.79,0,0,0,312.84,409.56Z"/><path class="cls-16" d="M353.07,425.78c0-.77,0-1.87.11-3.3s.1-2.84.06-4.23a32.4,32.4,0,0,0-.29-3.65c-.16-1.05-.46-1.57-.93-1.57a3.08,3.08,0,0,0-2.37,1.39,15.38,15.38,0,0,0-2,3.6,40.3,40.3,0,0,0-1.68,4.92q-.76,2.73-1.39,5.28c-.43,1.7-.78,3.28-1.05,4.75a34.05,34.05,0,0,1-.75,3.36,8.41,8.41,0,0,1-1.45,2.9,3.37,3.37,0,0,1-2.84,1.27,5.17,5.17,0,0,1-4.11-1.79,11.37,11.37,0,0,1-2.32-4.35,26.44,26.44,0,0,1-1-5.33c-.15-1.86-.23-3.4-.23-4.64s.1-3.18.29-5.62a45.86,45.86,0,0,1,1.16-7.24,19.1,19.1,0,0,1,2.61-6.2,5.32,5.32,0,0,1,4.63-2.61,3.1,3.1,0,0,1,2.44.92,6.25,6.25,0,0,1,1.22,2.32,12.63,12.63,0,0,1,.46,2.9c0,1,.09,1.89.17,2.67a16.87,16.87,0,0,1,3.71-3.89,8,8,0,0,1,5-1.68,11.55,11.55,0,0,1,6.66,1.86,14.81,14.81,0,0,1,4.46,4.75,21.08,21.08,0,0,1,2.5,6.38,31.81,31.81,0,0,1,.75,6.72,34.85,34.85,0,0,1-.35,4.46,19.19,19.19,0,0,1-1.33,4.93,12.43,12.43,0,0,1-2.61,3.94,5.64,5.64,0,0,1-4.17,1.62,3.89,3.89,0,0,1-3.54-1.74,12,12,0,0,1-1.56-4.17,20.82,20.82,0,0,1-.35-4.93C353,428.12,353.07,426.79,353.07,425.78Z"/><path class="cls-16" d="M381.46,436.45a8.66,8.66,0,0,1-1.44,2.9,3.38,3.38,0,0,1-2.84,1.27,5.18,5.18,0,0,1-4.12-1.8,11.39,11.39,0,0,1-2.32-4.34,26.43,26.43,0,0,1-1-5.33c-.16-1.86-.23-3.4-.23-4.64s.09-3.19.28-5.62a47.17,47.17,0,0,1,1.16-7.25,20,20,0,0,1,2.61-6.26,5.33,5.33,0,0,1,4.64-2.66,3.13,3.13,0,0,1,2.66,1.21,6,6,0,0,1,1.16,2.84,59.43,59.43,0,0,1,.58,6.5q.12,3.24.12,6.49v3.65c0,1.51,0,3.07-.12,4.69s-.21,3.19-.4,4.7A20.5,20.5,0,0,1,381.46,436.45Zm0-42.89a4.34,4.34,0,1,1-1.27-3.13A4.25,4.25,0,0,1,381.46,393.56Z"/><path class="cls-16" d="M408.71,425.78c0-.77,0-1.87.11-3.3s.1-2.84.06-4.23a32.4,32.4,0,0,0-.29-3.65c-.16-1.05-.46-1.57-.93-1.57a3.08,3.08,0,0,0-2.37,1.39,15,15,0,0,0-2,3.6,40.3,40.3,0,0,0-1.68,4.92c-.51,1.82-1,3.58-1.4,5.28s-.77,3.28-1,4.75a34.05,34.05,0,0,1-.75,3.36,8.59,8.59,0,0,1-1.45,2.9,3.38,3.38,0,0,1-2.84,1.27,5.2,5.2,0,0,1-4.12-1.79,11.49,11.49,0,0,1-2.31-4.35,25.76,25.76,0,0,1-1-5.33c-.15-1.86-.23-3.4-.23-4.64s.09-3.18.29-5.62a45.86,45.86,0,0,1,1.16-7.24,19.1,19.1,0,0,1,2.61-6.2,5.32,5.32,0,0,1,4.63-2.61,3.1,3.1,0,0,1,2.44.92,6.1,6.1,0,0,1,1.21,2.32,12.12,12.12,0,0,1,.47,2.9c0,1,.09,1.89.17,2.67a16.67,16.67,0,0,1,3.71-3.89,8,8,0,0,1,5-1.68,11.55,11.55,0,0,1,6.66,1.86,15,15,0,0,1,4.46,4.75,21.08,21.08,0,0,1,2.5,6.38,31.81,31.81,0,0,1,.75,6.72,34.85,34.85,0,0,1-.35,4.46,19.19,19.19,0,0,1-1.33,4.93,12.43,12.43,0,0,1-2.61,3.94,5.64,5.64,0,0,1-4.17,1.62,3.88,3.88,0,0,1-3.54-1.74,11.8,11.8,0,0,1-1.56-4.17,20.82,20.82,0,0,1-.35-4.93C408.67,428.12,408.71,426.79,408.71,425.78Z"/><path class="cls-16" d="M443.36,466.47a14.63,14.63,0,0,1-10.66-3.94,13.44,13.44,0,0,1-4.06-10.09,3.44,3.44,0,0,1,1-2.43,3.24,3.24,0,0,1,2.49-1,3.29,3.29,0,0,1,2.43,1,3.34,3.34,0,0,1,1.05,2.43,6.94,6.94,0,0,0,1.91,5.16,6.23,6.23,0,0,0,4.58,1.92,6.87,6.87,0,0,0,1.91-.29,4.36,4.36,0,0,0,1.8-1.11,6.67,6.67,0,0,0,1.39-2.26,10.79,10.79,0,0,0,.58-3.88q0-4.64-2.21-6.14a12.16,12.16,0,0,0-6.25-1.74H437a4.09,4.09,0,0,1-2.73-.93,3,3,0,0,1-1-2.67,3.44,3.44,0,0,1,1.5-2.78,10.36,10.36,0,0,0,1.11-.69c.58-.39,1.29-.89,2.14-1.51a18.31,18.31,0,0,1-9.56-5.22,14.14,14.14,0,0,1-3.77-10.2,16.37,16.37,0,0,1,1.45-6.89,18.22,18.22,0,0,1,3.88-5.57,17.9,17.9,0,0,1,12.52-5,7.43,7.43,0,0,0,3.13-.69,11.16,11.16,0,0,0,4.52-3.83,3.34,3.34,0,0,0,.7-1.74,3.39,3.39,0,0,1,1-2.43,3.28,3.28,0,0,1,2.49-1.05,3.57,3.57,0,0,1,3.48,3.48,10.72,10.72,0,0,1-.87,3.54,29.8,29.8,0,0,1-4.23,6.55,11.82,11.82,0,0,1,3.94,5.62A21.82,21.82,0,0,1,457,425a17.5,17.5,0,0,1-2.32,4.87,22.11,22.11,0,0,1-3.59,4.06c-1.39,1.23-2.9,2.51-4.52,3.82a41,41,0,0,1,5.68,1.51,16.65,16.65,0,0,1,4.69,2.49,12,12,0,0,1,3.25,3.83,11.46,11.46,0,0,1,1.22,5.5,13.39,13.39,0,0,1-1.69,6.84,15.3,15.3,0,0,1-4.34,4.81,19.07,19.07,0,0,1-5.86,2.84A22.05,22.05,0,0,1,443.36,466.47Zm-5.1-46.25c0,.54,0,1.29.12,2.26a9.88,9.88,0,0,0,.69,2.9,7.55,7.55,0,0,0,1.68,2.55,4,4,0,0,0,3,1.1,5.39,5.39,0,0,0,3.3-1,7.93,7.93,0,0,0,2.21-2.49,11.6,11.6,0,0,0,1.27-3.3,15.61,15.61,0,0,0,.41-3.42,16.59,16.59,0,0,0-.12-1.86,10.35,10.35,0,0,0-.46-2.08,7.88,7.88,0,0,0-.93-1.91,3.21,3.21,0,0,0-1.39-1.22,3.4,3.4,0,0,1-2.32.81,3.32,3.32,0,0,1-2.26-.87,3.67,3.67,0,0,1-1.22-2.14c-.85.31-1.72,1.44-2.61,3.42A17.7,17.7,0,0,0,438.26,420.22Z"/><path class="cls-17" d="M233.3,439.62a35.59,35.59,0,0,1-11.48-1.85,7.37,7.37,0,0,1-3.82-3.08,23.14,23.14,0,0,1-2.73-5.62,49.61,49.61,0,0,1-1.79-7.07c-.47-2.55-.83-5-1.1-7.42s-.45-4.61-.53-6.66-.11-3.65-.11-4.81c0-2.71.09-5.41.29-8.12a53,53,0,0,1,1.22-8.11,52.34,52.34,0,0,1,2.89-9.91,14.86,14.86,0,0,1,4.23-5.85,14.59,14.59,0,0,1,6.5-2.84,51.17,51.17,0,0,1,9.67-.76,83.77,83.77,0,0,1,8.64.41,47.27,47.27,0,0,1,4.81.64,2.8,2.8,0,0,1,1.91,1.15,3.78,3.78,0,0,1,.64,2.21,3.45,3.45,0,0,1-1,2.43,3.28,3.28,0,0,1-2.5,1,1.22,1.22,0,0,1-.4,0,1.27,1.27,0,0,0-.41-.06,34.78,34.78,0,0,0-4.29-.52q-3.36-.28-7.42-.29c-.69,0-1.58,0-2.66.06s-2.2.11-3.36.23a27.61,27.61,0,0,0-3.31.52,7.92,7.92,0,0,0-2.49.93v1.56c0,.58,0,1.3.12,2.14q0,11.49.34,23h3.25q1.27,0,3.3-.06c1.35,0,2.75-.12,4.18-.23s2.74-.25,3.94-.41a6.38,6.38,0,0,0,2.49-.69,3.71,3.71,0,0,1,2.09-.7,3.37,3.37,0,0,1,3.47,3.48,3.3,3.3,0,0,1-1.39,2.78,9.57,9.57,0,0,1-3.71,1.56,45.86,45.86,0,0,1-4.92.82c-1.74.19-3.46.31-5.16.34s-3.17.06-4.41.06h-3q0,10.91.7,21.91a17.3,17.3,0,0,0,3.65.75,35.22,35.22,0,0,0,3.53.18A28.77,28.77,0,0,0,243,431.1a27,27,0,0,0,6.37-3.07,3.79,3.79,0,0,1,2.09-.7,3.57,3.57,0,0,1,3.47,3.48c0,1.47-.86,2.75-2.6,3.83a26.31,26.31,0,0,1-6.2,2.72A52.24,52.24,0,0,1,239,439,37.42,37.42,0,0,1,233.3,439.62Z"/><path class="cls-17" d="M272.25,427.8a15.55,15.55,0,0,0,.58,3.24,11.34,11.34,0,0,0,.58,1.51c1.23-.62,2.39-2.1,3.47-4.46a60.93,60.93,0,0,0,2.9-7.77q1.28-4.23,2.09-8.29c.54-2.7.92-4.75,1.16-6.14a3.75,3.75,0,0,1,1.16-2.14,3.09,3.09,0,0,1,2.2-.87,3.27,3.27,0,0,1,2.49,1,3.44,3.44,0,0,1,1,2.43,19.89,19.89,0,0,1-.41,3.54c-.27,1.43-.58,2.9-.93,4.4s-.71,3-1.1,4.35-.69,2.51-.93,3.36q-.69,2.21-1.79,5.28a33.75,33.75,0,0,1-2.73,5.79,18.15,18.15,0,0,1-3.88,4.64,7.8,7.8,0,0,1-5.16,1.91,11.14,11.14,0,0,1-7.19-2.32,17,17,0,0,1-4.63-5.79,28.25,28.25,0,0,1-2.49-7.48,40,40,0,0,1-.76-7.48,40.6,40.6,0,0,1,.29-4.4,21.2,21.2,0,0,1,1.16-4.93,11.75,11.75,0,0,1,2.38-4,5.25,5.25,0,0,1,4.05-1.62,4.25,4.25,0,0,1,2.38.64,5.33,5.33,0,0,1,1.62,1.62,6.86,6.86,0,0,1,.93,2.2,19.15,19.15,0,0,1,.41,2.38c.15,1.31.27,2.74.34,4.29s.16,3.21.24,5,.15,3.52.23,5.22S272.09,426.25,272.25,427.8Z"/><path class="cls-17" d="M292.64,421.08a21.89,21.89,0,0,1,1.28-7.48,18.86,18.86,0,0,1,3.65-6.2,17.35,17.35,0,0,1,5.74-4.23,17.53,17.53,0,0,1,7.53-1.57,13.17,13.17,0,0,1,8,2.55,8.62,8.62,0,0,1,3.48,7.42A11.27,11.27,0,0,1,321,417a13,13,0,0,1-3.54,4.11,17.44,17.44,0,0,1-4.87,2.61,16.43,16.43,0,0,1-5.45.93,3.8,3.8,0,0,1-1-.23c.08.54.23,1.29.46,2.26a15.55,15.55,0,0,0,.93,2.72,10.13,10.13,0,0,0,1.39,2.26,2.47,2.47,0,0,0,2,1,8.32,8.32,0,0,0,4.76-1.51,9.07,9.07,0,0,0,3.24-3.83,3.2,3.2,0,0,1,3.13-2.08,3.29,3.29,0,0,1,2.49,1,3.44,3.44,0,0,1,1,2.44,6.6,6.6,0,0,1-.23,1.39,15,15,0,0,0-.93,1.62,14.32,14.32,0,0,1-2.55,3.24,18.84,18.84,0,0,1-4.41,3.19,13.09,13.09,0,0,1-6.37,1.45,19.55,19.55,0,0,1-7.54-1.39,16.56,16.56,0,0,1-5.73-3.88,17.76,17.76,0,0,1-3.71-5.91A20.09,20.09,0,0,1,292.64,421.08Zm18.2-12.52a2.53,2.53,0,0,0-2,1.1,9.73,9.73,0,0,0-1.44,2.66,24.76,24.76,0,0,0-.93,3.07c-.23,1-.39,1.82-.47,2.44a4,4,0,0,1,1.16-.12c2.71,0,4.76-.67,6.15-2a5.72,5.72,0,0,0,2.08-4,2.46,2.46,0,0,0-1.5-2.5A7.79,7.79,0,0,0,310.84,408.56Z"/><path class="cls-17" d="M351.07,424.78c0-.77,0-1.87.11-3.3s.1-2.84.06-4.23a32.4,32.4,0,0,0-.29-3.65c-.16-1.05-.46-1.57-.93-1.57a3.08,3.08,0,0,0-2.37,1.39,15.38,15.38,0,0,0-2,3.6,40.3,40.3,0,0,0-1.68,4.92q-.76,2.73-1.39,5.28c-.43,1.7-.78,3.28-1.05,4.75a34.05,34.05,0,0,1-.75,3.36,8.41,8.41,0,0,1-1.45,2.9,3.37,3.37,0,0,1-2.84,1.27,5.17,5.17,0,0,1-4.11-1.79,11.37,11.37,0,0,1-2.32-4.35,26.44,26.44,0,0,1-1-5.33c-.15-1.86-.23-3.4-.23-4.64s.1-3.18.29-5.62a45.86,45.86,0,0,1,1.16-7.24,19.1,19.1,0,0,1,2.61-6.2,5.32,5.32,0,0,1,4.63-2.61,3.1,3.1,0,0,1,2.44.92,6.25,6.25,0,0,1,1.22,2.32,12.63,12.63,0,0,1,.46,2.9c0,1,.09,1.89.17,2.67a16.87,16.87,0,0,1,3.71-3.89,8,8,0,0,1,5-1.68,11.55,11.55,0,0,1,6.66,1.86,14.81,14.81,0,0,1,4.46,4.75,21.08,21.08,0,0,1,2.5,6.38,31.81,31.81,0,0,1,.75,6.72,34.85,34.85,0,0,1-.35,4.46,19.19,19.19,0,0,1-1.33,4.93,12.43,12.43,0,0,1-2.61,3.94,5.64,5.64,0,0,1-4.17,1.62,3.89,3.89,0,0,1-3.54-1.74,12,12,0,0,1-1.56-4.17,20.82,20.82,0,0,1-.35-4.93C351,427.12,351.07,425.79,351.07,424.78Z"/><path class="cls-17" d="M379.46,435.45a8.66,8.66,0,0,1-1.44,2.9,3.38,3.38,0,0,1-2.84,1.27,5.18,5.18,0,0,1-4.12-1.8,11.39,11.39,0,0,1-2.32-4.34,26.43,26.43,0,0,1-1-5.33c-.16-1.86-.23-3.4-.23-4.64s.09-3.19.28-5.62a47.17,47.17,0,0,1,1.16-7.25,20,20,0,0,1,2.61-6.26,5.33,5.33,0,0,1,4.64-2.66,3.13,3.13,0,0,1,2.66,1.21,6,6,0,0,1,1.16,2.84,59.43,59.43,0,0,1,.58,6.5q.12,3.24.12,6.49v3.65c0,1.51,0,3.07-.12,4.69s-.21,3.19-.4,4.7A20.5,20.5,0,0,1,379.46,435.45Zm0-42.89a4.34,4.34,0,1,1-1.27-3.13A4.25,4.25,0,0,1,379.46,392.56Z"/><path class="cls-17" d="M406.71,424.78c0-.77,0-1.87.11-3.3s.1-2.84.06-4.23a32.4,32.4,0,0,0-.29-3.65c-.16-1.05-.46-1.57-.93-1.57a3.08,3.08,0,0,0-2.37,1.39,15,15,0,0,0-2,3.6,40.3,40.3,0,0,0-1.68,4.92c-.51,1.82-1,3.58-1.4,5.28s-.77,3.28-1,4.75a34.05,34.05,0,0,1-.75,3.36,8.59,8.59,0,0,1-1.45,2.9,3.38,3.38,0,0,1-2.84,1.27,5.2,5.2,0,0,1-4.12-1.79,11.49,11.49,0,0,1-2.31-4.35,25.76,25.76,0,0,1-1-5.33c-.15-1.86-.23-3.4-.23-4.64s.09-3.18.29-5.62a45.86,45.86,0,0,1,1.16-7.24,19.1,19.1,0,0,1,2.61-6.2,5.32,5.32,0,0,1,4.63-2.61,3.1,3.1,0,0,1,2.44.92,6.1,6.1,0,0,1,1.21,2.32,12.12,12.12,0,0,1,.47,2.9c0,1,.09,1.89.17,2.67a16.67,16.67,0,0,1,3.71-3.89,8,8,0,0,1,5-1.68,11.55,11.55,0,0,1,6.66,1.86,15,15,0,0,1,4.46,4.75,21.08,21.08,0,0,1,2.5,6.38,31.81,31.81,0,0,1,.75,6.72,34.85,34.85,0,0,1-.35,4.46,19.19,19.19,0,0,1-1.33,4.93,12.43,12.43,0,0,1-2.61,3.94,5.64,5.64,0,0,1-4.17,1.62,3.88,3.88,0,0,1-3.54-1.74,11.8,11.8,0,0,1-1.56-4.17,20.82,20.82,0,0,1-.35-4.93C406.67,427.12,406.71,425.79,406.71,424.78Z"/><path class="cls-17" d="M441.36,465.47a14.63,14.63,0,0,1-10.66-3.94,13.44,13.44,0,0,1-4.06-10.09,3.44,3.44,0,0,1,1-2.43,3.24,3.24,0,0,1,2.49-1,3.29,3.29,0,0,1,2.43,1,3.34,3.34,0,0,1,1.05,2.43,6.94,6.94,0,0,0,1.91,5.16,6.23,6.23,0,0,0,4.58,1.92,6.87,6.87,0,0,0,1.91-.29,4.36,4.36,0,0,0,1.8-1.11,6.67,6.67,0,0,0,1.39-2.26,10.79,10.79,0,0,0,.58-3.88q0-4.64-2.21-6.14a12.16,12.16,0,0,0-6.25-1.74H435a4.09,4.09,0,0,1-2.73-.93,3,3,0,0,1-1-2.67,3.44,3.44,0,0,1,1.5-2.78,10.36,10.36,0,0,0,1.11-.69c.58-.39,1.29-.89,2.14-1.51a18.31,18.31,0,0,1-9.56-5.22,14.14,14.14,0,0,1-3.77-10.2,16.37,16.37,0,0,1,1.45-6.89,18.22,18.22,0,0,1,3.88-5.57,17.9,17.9,0,0,1,12.52-5,7.43,7.43,0,0,0,3.13-.69,11.16,11.16,0,0,0,4.52-3.83,3.34,3.34,0,0,0,.7-1.74,3.39,3.39,0,0,1,1-2.43,3.28,3.28,0,0,1,2.49-1.05,3.57,3.57,0,0,1,3.48,3.48,10.72,10.72,0,0,1-.87,3.54,29.8,29.8,0,0,1-4.23,6.55,11.82,11.82,0,0,1,3.94,5.62A21.82,21.82,0,0,1,455,424a17.5,17.5,0,0,1-2.32,4.87,22.11,22.11,0,0,1-3.59,4.06c-1.39,1.23-2.9,2.51-4.52,3.82a41,41,0,0,1,5.68,1.51,16.65,16.65,0,0,1,4.69,2.49,12,12,0,0,1,3.25,3.83,11.46,11.46,0,0,1,1.22,5.5,13.39,13.39,0,0,1-1.69,6.84,15.3,15.3,0,0,1-4.34,4.81,19.07,19.07,0,0,1-5.86,2.84A22.05,22.05,0,0,1,441.36,465.47Zm-5.1-46.25c0,.54,0,1.29.12,2.26a9.88,9.88,0,0,0,.69,2.9,7.55,7.55,0,0,0,1.68,2.55,4,4,0,0,0,3,1.1,5.39,5.39,0,0,0,3.3-1,7.93,7.93,0,0,0,2.21-2.49,11.6,11.6,0,0,0,1.27-3.3,15.61,15.61,0,0,0,.41-3.42,16.59,16.59,0,0,0-.12-1.86,10.35,10.35,0,0,0-.46-2.08,7.88,7.88,0,0,0-.93-1.91,3.21,3.21,0,0,0-1.39-1.22,3.4,3.4,0,0,1-2.32.81,3.32,3.32,0,0,1-2.26-.87,3.67,3.67,0,0,1-1.22-2.14c-.85.31-1.72,1.44-2.61,3.42A17.7,17.7,0,0,0,436.26,419.22Z"/><polygon class="cls-11" points="128.67 105.32 130.78 109.59 135.5 110.28 132.09 113.61 132.89 118.31 128.67 116.09 124.45 118.31 125.26 113.61 121.84 110.28 126.56 109.59 128.67 105.32"/><polygon class="cls-11" points="53.8 214.82 56.1 219.49 61.26 220.24 57.53 223.87 58.41 229 53.8 226.58 49.19 229 50.07 223.87 46.34 220.24 51.5 219.49 53.8 214.82"/><polygon class="cls-11" points="387.8 88.82 390.1 93.49 395.26 94.23 391.53 97.87 392.41 103 387.8 100.58 383.19 103 384.07 97.87 380.34 94.23 385.5 93.49 387.8 88.82"/><polygon class="cls-11" points="612.8 184.82 615.1 189.49 620.26 190.24 616.53 193.87 617.41 199 612.8 196.58 608.19 199 609.07 193.87 605.34 190.24 610.5 189.49 612.8 184.82"/><polygon class="cls-11" points="583.8 290.91 585.1 293.54 588 293.97 585.9 296.01 586.4 298.9 583.8 297.54 581.2 298.9 581.7 296.01 579.6 293.97 582.5 293.54 583.8 290.91"/><polygon class="cls-11" points="362.8 133.96 364.41 137.22 368 137.74 365.4 140.28 366.01 143.85 362.8 142.16 359.59 143.85 360.2 140.28 357.6 137.74 361.19 137.22 362.8 133.96"/><polygon class="cls-11" points="246.8 100.91 248.1 103.54 251 103.97 248.9 106.01 249.4 108.9 246.8 107.54 244.2 108.9 244.7 106.01 242.6 103.97 245.5 103.54 246.8 100.91"/><polygon class="cls-11" points="145.9 178.11 147.79 181.93 152 182.54 148.95 185.51 149.67 189.71 145.9 187.73 142.13 189.71 142.85 185.51 139.81 182.54 144.02 181.93 145.9 178.11"/><polygon class="cls-11" points="214.9 239.01 216.17 241.58 219 241.99 216.95 243.99 217.44 246.81 214.9 245.47 212.37 246.81 212.85 243.99 210.81 241.99 213.64 241.58 214.9 239.01"/></g><g id="Layer_2" data-name="Layer 2"><g class="cls-18"><path class="cls-19" d="M-8.53,377.45a33,33,0,0,0,4.26-16.21,33.11,33.11,0,0,0-33.11-33.11,33.13,33.13,0,0,0-8.45,1.13,96.84,96.84,0,0,0-95.4-80.39,96.82,96.82,0,0,0-87.13,54.57,46.29,46.29,0,0,0-19.17-4.15,46.18,46.18,0,0,0-30.25,11.24,46.41,46.41,0,0,0-44.47-33.16,46.34,46.34,0,0,0-37.35,18.88,93.54,93.54,0,0,0-64.28-24.94c-30.9,0-58.16,14.38-74.37,36.28a46.14,46.14,0,0,0-26.45-8.3A46.38,46.38,0,0,0-571,343.92a46.27,46.27,0,0,0-32.73-13.52,46.25,46.25,0,0,0-33.46,14.27,50.21,50.21,0,0,0-47.9-35.15,50.19,50.19,0,0,0-50.18,50.19,50.16,50.16,0,0,0,3,17.13,33.07,33.07,0,0,0-32.24,33.06,33.1,33.1,0,0,0,33.1,33.1H-15.11A33.1,33.1,0,0,0,18,409.9,33.12,33.12,0,0,0-8.53,377.45Z"/></g></g></svg>